<?xml version="1.0" encoding="utf-8"?>
<!-- Generator: Adobe Illustrator 22.0.1, SVG Export Plug-In . SVG Version: 6.00 Build 0)  -->
<svg version="1.1" id="Capa_1" xmlns="http://www.w3.org/2000/svg" xmlns:xlink="http://www.w3.org/1999/xlink" x="0px" y="0px"
	 viewBox="0 0 850.4 850.4" style="enable-background:new 0 0 850.4 850.4;" xml:space="preserve">
<style type="text/css">
	.st0{display:none;fill:#D09175;}
	.st1{fill:none;}
	.st2{enable-background:new    ;}
	.st3{fill:#FFFFFF;}
	.st4{fill:none;stroke:#FFFFFF;stroke-width:5;stroke-miterlimit:10;}
</style>
<rect y="0" class="st0" width="850.4" height="850.4"/>
<rect x="473" y="527.7" class="st1" width="124.4" height="82.8"/>
<g class="st2">
	<path class="st3" d="M470.5,571.4c0.1,0.3,0.3,1,0.7,2c0.4,1,1.1,2,2.1,3.2c1,1.1,2.3,2.1,4,3c1.7,0.9,3.9,1.4,6.5,1.5
		c-1.4,0.3-2.9,0.3-4.5-0.1c-1.6-0.4-3-1-4.3-1.9c-1.3-0.9-2.4-2-3.2-3.3C470.9,574.5,470.5,573,470.5,571.4z M503.4,555
		c0.1-0.4,0.5-0.6,1-0.7c0.5,0,1.1,0.1,1.6,0.3c0.5,0.2,1,0.5,1.4,0.8c0.4,0.3,0.5,0.7,0.4,1c-0.5,1.5-1.1,2.9-1.6,4.2
		c-0.5,1.3-1.1,2.6-1.5,3.7c-1.6,3.5-3.4,6.4-5.6,8.7c-2.2,2.3-4.5,4.1-6.9,5.3c-2.4,1.2-4.8,1.9-7.2,2.1c-2.4,0.2-4.6-0.1-6.6-0.9
		c-3-1.2-5.1-3.2-6.3-5.9c-1.2-2.7-1.7-5.8-1.6-9.1c0.2-3.3,1-6.7,2.3-10.1c1.4-3.4,3.2-6.3,5.4-8.8c2.2-2.5,4.8-4.3,7.7-5.4
		c2.9-1.1,6-1,9.2,0.3c2,0.7,3.3,2,4.1,3.7c0.7,1.7,1,3.7,0.7,5.8c-0.3,2.2-1,4.4-2.1,6.7c-1.2,2.3-2.6,4.4-4.4,6.4
		c-1.8,2-3.8,3.6-6.1,5c-2.3,1.4-4.7,2.1-7.3,2.2l0.6,0.2c0.2,0.1,0.4,0.1,0.5,0.2c0.2,1.4,1,2.3,2.4,2.8c1.4,0.5,3.1,0.6,5,0.1
		c1.9-0.5,3.9-1.6,5.9-3.3c2-1.7,3.8-4.1,5.3-7.2C500.8,560.9,502,558.1,503.4,555z M474,572.6c-0.3,1.2-0.1,2.2,0.5,3.3
		c0.6,1,1.5,1.9,2.7,2.6c1.2,0.7,2.6,1.2,4.3,1.5c1.7,0.3,3.4,0.3,5.3-0.1c-2.6,0.1-4.7-0.2-6.3-0.8c-1.6-0.6-2.9-1.3-3.8-2.1
		c-0.9-0.8-1.6-1.6-2-2.5C474.3,573.7,474.1,573,474,572.6z M483.8,548.8c-1.4,1.2-2.6,3-3.8,5.3c-1.2,2.3-2.1,4.8-2.6,7.4
		c-0.6,2.6-0.7,5.1-0.5,7.6c0.2,2.4,1.1,4.4,2.5,5.8c-0.9-1.2-1.4-2.7-1.6-4.4c-0.2-1.7-0.2-3.5,0.1-5.3c0.2-1.8,0.6-3.7,1.2-5.5
		c0.5-1.9,1.1-3.6,1.8-5.1c0.6-1.5,1.3-2.8,1.8-3.9C483.1,549.7,483.5,549,483.8,548.8z M485.9,577.9c-1.2,0.1-2.2-0.1-3.2-0.4
		c-1-0.3-1.9-0.8-2.7-1.3s-1.5-1.1-2-1.7c-0.5-0.6-0.9-1.2-1-1.6c0,0.9,0.3,1.7,0.9,2.3c0.6,0.7,1.3,1.2,2.2,1.7
		c0.9,0.4,1.9,0.7,2.9,0.9C484,578,485,578.1,485.9,577.9z M497.8,546c-0.6-1.6-1.8-2.8-3.5-3.5c-1.7-0.7-3.6-0.8-5.7-0.5
		c-2.1,0.3-4.2,1.2-6.2,2.5c-2,1.3-3.7,3.1-4.9,5.4c1.3-1.9,2.9-3.4,4.8-4.6c1.9-1.2,3.8-2,5.8-2.4c2-0.4,3.9-0.4,5.6,0.1
		C495.4,543.5,496.8,544.5,497.8,546z M487.4,548.5c-0.7-0.3-1.6,0.2-2.7,1.4c-1.1,1.2-2.1,2.8-3,4.7c-1,1.9-1.8,3.9-2.5,6
		c-0.7,2.1-1,3.9-1,5.5c1.3-5.4,2.9-9.6,4.7-12.4C484.8,550.9,486.3,549.2,487.4,548.5z M482.8,574.3c-1.7-0.6-2.7-1.8-3-3.5
		c-0.3-1.7-0.3-3.6,0.1-5.6c0.4-2,0.9-4,1.7-5.8c0.8-1.9,1.4-3.2,1.9-4.1l0.3-0.6l-0.3,0.6c-1.6,3-2.8,5.6-3.6,7.9
		c-0.7,2.3-1.1,4.2-1.1,5.8c0,1.6,0.4,2.8,1.1,3.8C480.6,573.6,481.5,574.1,482.8,574.3z M479.5,552.5c0.2-0.6,0.7-1.4,1.4-2.4
		c0.7-1,1.6-1.9,2.7-2.9c1.1-0.9,2.4-1.8,3.8-2.4c1.4-0.7,2.9-1,4.6-0.9c-0.9-0.2-1.9-0.2-3.1,0c-1.2,0.2-2.4,0.7-3.6,1.4
		c-1.2,0.7-2.4,1.7-3.4,2.9C480.9,549.4,480.1,550.8,479.5,552.5z M480.1,569.6c2.1,0,4.2-0.5,6.1-1.5c2-1,3.8-2.2,5.4-3.7
		c1.6-1.5,3-3.1,4.1-4.8c1.1-1.7,1.9-3.3,2.3-4.8c-1.2,2.8-2.6,5.1-4.3,7c-1.7,1.9-3.5,3.4-5.3,4.5c-1.8,1.1-3.5,1.9-5,2.5
		C482,569.2,480.9,569.5,480.1,569.6z M480.7,575.6c0.7,1,1.9,1.6,3.4,1.8c1.5,0.2,3.2,0,4.9-0.6c1.7-0.5,3.4-1.4,4.9-2.6
		c1.6-1.2,2.7-2.7,3.6-4.4c-1.6,2.2-3.4,3.9-5.2,4.9c-1.9,1-3.6,1.7-5.2,1.9c-1.6,0.3-3,0.3-4.2-0.1
		C481.7,576.2,481,575.9,480.7,575.6l-0.1-0.1L480.7,575.6z M491.5,553.2c-0.5,2-1.3,3.7-2.3,5.1c-1,1.4-2.1,2.4-3.2,3.3
		c-1.1,0.8-2.1,1.4-3,1.8c-0.9,0.4-1.5,0.6-1.8,0.7c1.6-0.1,3.1-0.5,4.5-1.4c1.4-0.9,2.5-1.9,3.4-3c0.9-1.1,1.6-2.3,2-3.5
		C491.6,555,491.7,554,491.5,553.2z M490.4,551c-0.4-0.6-1-0.7-1.9-0.2c-0.8,0.5-1.7,1.3-2.6,2.4c-0.9,1.2-1.8,2.6-2.6,4.3
		c-0.8,1.7-1.4,3.5-1.8,5.4c1.4-0.3,2.8-1,4-2.1c1.3-1,2.3-2.2,3.2-3.5c0.9-1.3,1.5-2.5,1.9-3.7C490.9,552.5,490.9,551.6,490.4,551z
		 M499.4,565.4c-1.2,1.7-2.5,3.3-3.8,4.7c-1.3,1.4-2.7,2.6-4.2,3.5c-1.5,0.9-3.1,1.5-4.7,1.7c-1.7,0.3-3.4,0.1-5.3-0.4
		c1.5,0.8,3,1.2,4.7,1c1.6-0.1,3.2-0.6,4.8-1.5c1.6-0.9,3.1-2.1,4.5-3.6C496.9,569.2,498.2,567.5,499.4,565.4z M499,550.3
		c0.5-2.2,0.4-4-0.6-5.6c-0.9-1.6-2.2-2.7-4-3.5c-1.7-0.7-3.7-0.9-6-0.6c-2.3,0.3-4.5,1.3-6.7,3c2.2-1.4,4.3-2.2,6.5-2.5
		c2.1-0.3,4-0.1,5.7,0.5c1.7,0.6,3,1.7,3.9,3.2C498.9,546.3,499.2,548.1,499,550.3z M495.1,545.7c0.8,1.8,1.2,3.6,1.2,5.4
		c0,1.9-0.5,3.7-1.3,5.4s-2,3.3-3.6,4.8c-1.6,1.5-3.5,2.8-5.7,3.9c2.9-1,5.2-2.5,6.9-4.3c1.7-1.9,2.9-3.8,3.6-5.7
		c0.7-2,0.9-3.8,0.7-5.6C496.6,547.8,496,546.5,495.1,545.7z M485.7,551.3c1.7-1.5,3.1-2.1,4.3-1.9c1.2,0.2,1.9,0.9,2.2,2.2
		c0.3,1.3,0.1,2.8-0.6,4.8c-0.7,1.9-2.1,3.9-4.2,5.9c2.8-2.2,4.6-4.4,5.4-6.5c0.7-2.1,0.8-3.7,0.3-5c-0.6-1.3-1.6-2-3-2
		C488.8,548.7,487.3,549.5,485.7,551.3z M485.8,578.7c1.2,0.3,2.6,0.3,4-0.3c1.5-0.5,2.8-1.3,4.1-2.2c1.3-1,2.5-2.2,3.5-3.6
		c1-1.4,1.8-2.9,2.2-4.4c-1.2,2.4-2.5,4.2-4,5.6c-1.4,1.4-2.8,2.4-4.1,3.2c-1.3,0.7-2.5,1.2-3.6,1.4
		C487,578.6,486.2,578.7,485.8,578.7z M494.9,553.2c0.3-2.2,0.2-3.8-0.4-5c-0.6-1.2-1.4-2-2.4-2.3c-1-0.4-2-0.4-3.1,0
		c-1.1,0.4-1.9,1-2.4,2c0.5-0.5,1.2-0.8,2.1-1.1c0.9-0.3,1.9-0.3,2.8,0c0.9,0.3,1.7,0.9,2.4,1.9
		C494.6,549.7,494.9,551.2,494.9,553.2z M494.5,532.2c0.1,0.4,0.5,0.8,1,1.3c0.5,0.5,1.2,1,2,1.4c0.8,0.5,1.8,0.9,2.8,1.3
		c1.1,0.4,2.2,0.7,3.5,0.8c-0.9,0.9-2,1.5-3.3,1.7c-1.2,0.3-2.4,0.4-3.5,0.3s-2.1-0.4-3-0.8c-0.9-0.4-1.6-0.9-2-1.5
		c-0.1-0.5-0.1-1,0-1.5c0.1-0.4,0.3-0.9,0.5-1.4c0,0.1,0.2,0.4,0.5,0.9c0.3,0.5,0.5,0.8,0.7,0.9c-0.4-0.7-0.6-1.3-0.6-1.8
		c0-0.5,0.2-0.9,0.4-1.3c0.2-0.3,0.4-0.6,0.7-0.7C494.3,531.9,494.5,532,494.5,532.2z M492.6,535.1c0,0.5,0.3,1,0.8,1.4
		c0.5,0.4,1.2,0.8,2,1.1c0.8,0.3,1.7,0.5,2.6,0.6c0.9,0.1,1.8,0.1,2.6-0.1c-0.2,0-0.6,0-1.3-0.1c-0.6-0.1-1.4-0.2-2.2-0.4
		s-1.6-0.5-2.5-0.9C494,536.4,493.2,535.8,492.6,535.1z M493.9,533c-0.2,0.7-0.1,1.3,0.4,1.8c0.5,0.5,1.1,1,1.9,1.4
		c0.8,0.4,1.6,0.7,2.5,1c0.9,0.2,1.7,0.4,2.5,0.4c-1.8-0.3-3.1-0.8-4.1-1.3c-1-0.5-1.7-1-2.1-1.5c-0.4-0.5-0.7-0.9-0.9-1.2
		C494,533.3,493.9,533.1,493.9,533z M502.5,537.2c-1.9-0.3-3.5-0.9-4.7-1.6c-1.3-0.7-2.1-1.3-2.6-1.8c0.1,0.3,0.4,0.7,0.9,1.1
		c0.5,0.4,1.2,0.8,2,1.1c0.8,0.3,1.6,0.6,2.3,0.8C501.2,537.1,501.9,537.2,502.5,537.2z M495.3,536c-0.1,0.2,0,0.4,0.3,0.6
		c0.2,0.2,0.5,0.3,0.9,0.5c0.4,0.1,0.7,0.2,1.1,0.3c0.4,0,0.7,0.1,0.9,0.1c-0.5-0.1-1.1-0.3-1.8-0.6
		C496,536.5,495.5,536.3,495.3,536z"/>
	<path class="st3" d="M546.5,555c0.1-0.4,0.5-0.6,1-0.7c0.5,0,1,0.1,1.6,0.3c0.5,0.2,1,0.5,1.4,0.8c0.4,0.3,0.5,0.7,0.4,1
		c-1.2,2.8-2.2,5.4-3.2,7.6c-1,2.2-1.9,4.2-2.8,5.9c-0.6,1.2-1.2,2.2-1.8,3.2c-0.6,1-1.1,1.8-1.7,2.6c-2,2.9-4,4.7-6.3,5.4
		c-2.2,0.7-4.3,0.8-6.1,0.2c-1.6-0.5-2.9-1.3-4-2.3s-1.7-2.7-1.9-4.8c-0.2-2.1,0.2-4.8,1.2-8.1c1-3.3,2.8-7.4,5.5-12.5
		c-1.2,1.7-2.4,3.4-3.6,5.1c-1.2,1.7-2.4,3.6-3.6,5.6c-1.2,2-2.4,4.2-3.6,6.6c-1.2,2.4-2.4,5.1-3.7,8.1c-0.5,0.1-1.1,0-1.8-0.2
		c-0.7-0.2-1.4-0.4-2.1-0.7c-0.7-0.3-1.4-0.6-1.9-0.9c-0.6-0.3-1-0.6-1.2-0.8c0.7-2.6,1.8-5.9,3.5-10c1.7-4.1,3.4-8.3,5.3-12.7
		c-1.2,1.8-2.4,3.6-3.6,5.6c-1.2,2-2.4,4-3.6,6.1c-1.2,2.1-2.4,4.2-3.5,6.4c-1.2,2.1-2.2,4.2-3.3,6.1c-0.1,0.2-0.6,0.2-1.7,0
		c-1-0.2-2.2-0.5-3.3-1c-1.2-0.5-2.2-1-3-1.7c-0.9-0.6-1.2-1.3-0.9-2c0.2-0.5,0.6-1.6,1.3-3.1c0.7-1.5,1.5-3.3,2.3-5.3
		c0.9-2,1.8-4.2,2.8-6.4s2-4.3,2.8-6.3c0.9-2,1.6-3.7,2.3-5.1c0.6-1.4,1.1-2.3,1.3-2.7c0.4-0.7,1-1.4,1.7-2c0.7-0.6,1.5-1.1,2.4-1.5
		c0.9-0.4,1.8-0.7,2.8-0.9c1-0.2,1.9-0.2,2.7-0.1c-0.4,0.3-0.8,1-1.3,1.9c-0.5,0.9-0.8,1.7-1,2.3c0.9-1.2,1.7-2,2.5-2.6
		c0.8-0.6,1.4-1,2-1.2c0.5-0.2,1-0.3,1.4-0.3c0.4,0,0.6,0.1,0.8,0.2c-0.5,0.5-1.3,1.4-2.1,2.7c-0.9,1.3-1.8,2.7-2.9,4.4
		c-1.1,1.7-2.1,3.5-3.2,5.5c-1.1,2-2,4-2.8,5.9c1.6-2.4,3.1-4.7,4.6-6.9c1.5-2.2,2.9-4.1,4.3-5.8c1.4-1.7,2.6-3.1,3.8-4.2
		c1.2-1.1,2.1-1.9,2.9-2.3c0.7-0.4,1.7-0.7,2.7-0.8c1.1-0.1,2.1-0.1,3,0.1c0.9,0.1,1.7,0.4,2.2,0.8c0.5,0.4,0.5,0.8,0.1,1.3
		c-1.4,1.6-2.8,3.3-4.3,5.3c-1.5,2-2.9,4-4.3,6.2c-1.4,2.2-2.6,4.4-3.8,6.6s-2.2,4.4-3,6.4c1-1.8,2.2-3.8,3.5-5.8
		c1.3-2,2.7-4.1,4.1-6.1c1.5-2.1,3-4.1,4.6-6c1.6-1.9,3.3-3.7,4.9-5.2c0.9-0.6,2.1-1,3.6-1.3s2.9-0.3,4.3-0.1
		c1.3,0.2,2.4,0.5,3.1,1.1c0.7,0.5,0.8,1.3,0.2,2.1c-4.3,6.4-7.5,12-9.8,17c-2.3,5-3.6,8.8-4,11.4c-0.2,1.2-0.1,2,0.3,2.6
		c0.4,0.6,0.9,0.7,1.7,0.4c0.7-0.3,1.7-1.2,2.8-2.7c1.2-1.5,2.4-3.7,3.9-6.7c0.7-1.6,1.5-3.3,2.4-5.1
		C544.5,559.4,545.5,557.3,546.5,555z M511.1,558.7c-0.7,0.4-1.6,1.5-2.6,3.2c-1.1,1.7-2.2,3.6-3.2,5.6c-1.1,2-2,4-2.9,5.8
		c-0.9,1.9-1.4,3.2-1.6,4c0.5-1,1.3-2.4,2.2-4.2c0.9-1.8,1.9-3.6,2.9-5.4c1-1.9,2-3.6,2.9-5.3C509.8,560.8,510.6,559.5,511.1,558.7z
		 M502.6,576.7c0.2-0.3,0.6-1,1.2-2.1c0.6-1,1.3-2.2,2-3.4s1.4-2.4,2-3.6c0.6-1.2,1.1-2,1.4-2.4c-0.3,0.3-0.8,0.9-1.4,1.8
		c-0.6,0.8-1.2,1.8-1.8,2.9c-0.6,1.1-1.3,2.3-1.9,3.5C503.5,574.7,503,575.8,502.6,576.7z M520,540.9c-0.5,0.2-1.4,1.2-2.7,2.8
		c-1.3,1.7-2.7,3.7-4.2,6c-1.5,2.3-2.8,4.7-4.1,7.2c-1.3,2.5-2.1,4.6-2.5,6.3c0.3-0.9,0.9-2,1.6-3.4c0.7-1.4,1.5-2.8,2.4-4.4
		c0.9-1.5,1.8-3.1,2.7-4.7c0.9-1.6,1.9-3.1,2.7-4.4c0.9-1.4,1.7-2.5,2.4-3.5C519.1,541.9,519.6,541.3,520,540.9z M515.3,540.9
		c-0.3-0.1-0.8,0.4-1.5,1.4c-0.7,1-1.5,2.2-2.3,3.6c-0.8,1.4-1.5,2.8-2.1,4.2c-0.6,1.4-1,2.5-1,3.2c0.2-0.4,0.6-1.2,1.3-2.4
		c0.6-1.2,1.3-2.5,2.1-3.9c0.7-1.4,1.5-2.6,2.1-3.8C514.5,542,515,541.3,515.3,540.9z M513.7,541.6c-0.2,0.1-0.5,0.5-1,1
		c-0.5,0.5-1,1.2-1.5,2c-0.5,0.8-1,1.6-1.4,2.6c-0.4,1-0.7,1.9-0.8,2.8c0.1-0.5,0.4-1.1,0.8-1.9c0.4-0.8,0.8-1.6,1.3-2.5
		c0.5-0.8,0.9-1.6,1.4-2.4C513,542.5,513.4,542,513.7,541.6z M509.8,564.2c0.5-0.8,1.2-2.1,2.2-3.9c1-1.8,2.1-3.6,3.4-5.5
		c1.2-1.9,2.4-3.7,3.6-5.3c1.2-1.7,2.1-2.8,2.7-3.5c-1,0.8-2,2-3.2,3.5c-1.2,1.5-2.3,3.2-3.5,4.9c-1.2,1.7-2.2,3.5-3.2,5.2
		C511,561.4,510.3,562.9,509.8,564.2z M530.9,541.7c-1.2-0.3-2.5,0.1-3.9,1.3c-1.4,1.2-2.8,2.9-4.2,4.9c-1.4,2.1-2.7,4.4-4.1,7
		c-1.3,2.6-2.5,5.1-3.6,7.5c-1.1,2.4-1.9,4.5-2.6,6.4c-0.7,1.8-1.2,3-1.4,3.6c4.3-9.6,7.9-16.9,10.9-22
		C525.1,545.4,528,542.5,530.9,541.7z M533.1,540.6c-0.1-0.1-0.5-0.3-1-0.6c-0.5-0.2-1.2-0.3-2.1-0.3c-0.9,0-1.9,0.3-3.1,0.8
		c-1.2,0.5-2.6,1.4-4.1,2.7c-1.6,1.4-3.3,3.2-5.1,5.6c-1.9,2.4-3.9,5.5-6,9.2c2.4-3.9,4.7-7,6.7-9.5c2-2.5,3.9-4.4,5.6-5.7
		c1.7-1.3,3.3-2.2,4.8-2.5C530.2,540.1,531.7,540.1,533.1,540.6z M512.4,577.2c2-5.6,4-10.3,5.9-14.2c1.9-3.9,3.6-7.2,5.2-9.8
		c1.6-2.6,2.9-4.5,4-5.9c1.1-1.4,1.8-2.2,2.1-2.6c-1.7,1.2-3.4,3-5.1,5.6c-1.7,2.6-3.3,5.4-4.8,8.6c-1.5,3.2-2.9,6.4-4.2,9.7
		C514.3,571.8,513.3,574.7,512.4,577.2z M515.1,578.1c0.3-0.7,0.7-1.7,1.4-3c0.6-1.4,1.4-2.9,2.3-4.6c0.9-1.7,1.8-3.5,2.8-5.4
		c1-1.9,2.1-3.6,3.2-5.2c-0.7,0.9-1.6,2-2.5,3.5c-0.9,1.4-1.8,3-2.7,4.7c-0.9,1.7-1.8,3.4-2.5,5.2
		C516.2,574.9,515.6,576.6,515.1,578.1z M515.8,573.4c1.5-3.3,3.2-6.4,5-9.5c1.8-3,3.7-5.9,5.6-8.6c1.9-2.7,3.8-5.2,5.7-7.4
		c1.9-2.2,3.6-4.1,5.2-5.6c-1.6,1-3.4,2.7-5.6,5.1c-2.2,2.5-4.3,5.3-6.4,8.3c-2.1,3.1-4,6.2-5.8,9.4
		C517.8,568.3,516.5,571,515.8,573.4z M522.5,574.6c0.1,0.3,0.2,0.7,0.3,1.3c0.1,0.6,0.4,1.3,0.8,1.9c0.4,0.7,1,1.4,1.8,2.1
		c0.8,0.7,2,1.3,3.6,1.8c-0.8,0-1.7-0.2-2.5-0.7c-0.9-0.4-1.7-1-2.3-1.7c-0.7-0.7-1.2-1.4-1.5-2.3
		C522.2,576.2,522.2,575.4,522.5,574.6z M524.7,577.6c-0.6-2-0.7-4.1-0.4-6.6c0.4-2.4,1-4.9,2-7.5c1-2.6,2.2-5.3,3.6-8
		c1.4-2.7,2.8-5.4,4.1-8c-0.8,1.2-1.9,3.1-3.4,5.7c-1.5,2.6-2.8,5.4-4.1,8.4c-1.3,3-2.2,6-2.7,8.8
		C523.4,573.4,523.7,575.8,524.7,577.6z M535.8,549c-0.9,0.7-2,2.1-3.2,4c-1.2,1.9-2.2,4.1-3.2,6.5c-0.9,2.4-1.7,4.9-2.2,7.4
		c-0.5,2.5-0.7,4.7-0.5,6.5c0-1.6,0.3-3.6,0.9-5.8c0.6-2.3,1.4-4.6,2.3-7c0.9-2.4,1.9-4.6,2.9-6.7C534,551.8,534.9,550.2,535.8,549z
		 M539,548.2c-3.3,4.7-5.7,9-7.3,12.7s-2.6,6.9-3,9.4c-0.4,2.5-0.3,4.5,0.5,5.8c0.7,1.3,1.8,2,3.3,2c-1.5-0.3-2.4-1.2-2.8-2.5
		c-0.4-1.4-0.5-3-0.2-4.9c0.3-1.9,0.9-4,1.7-6.3c0.8-2.2,1.8-4.4,2.7-6.5c1-2.1,1.9-4,2.9-5.7C537.7,550.4,538.4,549.1,539,548.2
		c0.1-0.2,0.3-0.4,0.4-0.6c0.1-0.2,0.2-0.4,0.4-0.6c-0.1,0.1-0.2,0.3-0.3,0.5C539.2,547.8,539.1,548,539,548.2z M529,577.9
		c0.6,0.9,1.5,1.4,2.6,1.4s2.3-0.4,3.6-1.1c1.3-0.7,2.5-1.8,3.6-3.2c1.2-1.4,2.1-3.1,2.7-5c-1.4,2.7-2.7,4.7-4.1,6
		c-1.4,1.3-2.7,2.1-3.8,2.5s-2.1,0.5-2.9,0.3S529.3,578.3,529,577.9z M530.6,580c1,0.8,2.2,0.9,3.7,0.4c1.4-0.6,2.8-1.6,4.3-3
		c1.4-1.5,2.8-3.2,4-5.3c1.3-2.1,2.2-4.2,2.9-6.4c-1.8,3.9-3.5,6.8-5.1,8.8c-1.7,2-3.2,3.5-4.5,4.4s-2.5,1.3-3.4,1.3
		C531.5,580.2,530.9,580.1,530.6,580z M533.8,577.2c-1.3-0.4-2-1.3-2.1-2.8c-0.1-1.5,0.1-3,0.6-4.8c0.5-1.7,1.1-3.4,1.9-5
		c0.7-1.6,1.3-2.8,1.6-3.6c-1.2,1.8-2.2,3.7-3,5.6c-0.8,1.9-1.4,3.6-1.6,5.2c-0.3,1.6-0.2,2.8,0.2,3.9
		C531.8,576.7,532.6,577.2,533.8,577.2z M543.4,545.6c-0.8,0.1-1.8,0.9-3.1,2.4c-1.3,1.6-2.5,3.5-3.7,5.7c-1.2,2.3-2.3,4.7-3.4,7.4
		s-1.7,5.1-2,7.3c0.5-2.2,1.4-4.6,2.4-7c1.1-2.4,2.3-4.7,3.5-6.8c1.3-2.1,2.5-4,3.6-5.6C542,547.4,542.8,546.3,543.4,545.6z
		 M540.9,568.5c-1.1,2.2-2.1,3.9-3.2,5.1c-1,1.3-1.8,2-2.2,2.4c0.5,0.1,1-0.2,1.6-0.8c0.6-0.6,1.1-1.3,1.6-2.1
		c0.5-0.8,0.9-1.6,1.3-2.5C540.4,569.8,540.7,569.1,540.9,568.5z"/>
	<path class="st3" d="M543.8,571.4c0.1,0.3,0.3,1,0.7,2c0.4,1,1.1,2,2.1,3.2c1,1.1,2.3,2.1,4,3c1.7,0.9,3.9,1.4,6.5,1.5
		c-1.4,0.3-2.9,0.3-4.5-0.1c-1.6-0.4-3-1-4.3-1.9c-1.3-0.9-2.4-2-3.2-3.3C544.2,574.5,543.8,573,543.8,571.4z M576.7,555
		c0.1-0.4,0.5-0.6,1-0.7c0.5,0,1.1,0.1,1.6,0.3c0.5,0.2,1,0.5,1.4,0.8c0.4,0.3,0.5,0.7,0.4,1c-0.5,1.5-1.1,2.9-1.6,4.2
		c-0.5,1.3-1.1,2.6-1.5,3.7c-1.6,3.5-3.4,6.4-5.6,8.7c-2.2,2.3-4.5,4.1-6.9,5.3c-2.4,1.2-4.8,1.9-7.2,2.1c-2.4,0.2-4.6-0.1-6.6-0.9
		c-3-1.2-5.1-3.2-6.3-5.9c-1.2-2.7-1.7-5.8-1.6-9.1c0.2-3.3,1-6.7,2.3-10.1c1.4-3.4,3.2-6.3,5.4-8.8c2.2-2.5,4.8-4.3,7.7-5.4
		c2.9-1.1,6-1,9.2,0.3c2,0.7,3.3,2,4.1,3.7c0.7,1.7,1,3.7,0.7,5.8c-0.3,2.2-1,4.4-2.1,6.7c-1.2,2.3-2.6,4.4-4.4,6.4
		c-1.8,2-3.8,3.6-6.1,5c-2.3,1.4-4.7,2.1-7.3,2.2l0.6,0.2c0.2,0.1,0.4,0.1,0.5,0.2c0.2,1.4,1,2.3,2.4,2.8c1.4,0.5,3.1,0.6,5,0.1
		c1.9-0.5,3.9-1.6,5.9-3.3c2-1.7,3.8-4.1,5.3-7.2C574.1,560.9,575.3,558.1,576.7,555z M547.3,572.6c-0.3,1.2-0.1,2.2,0.5,3.3
		c0.6,1,1.5,1.9,2.7,2.6c1.2,0.7,2.6,1.2,4.3,1.5c1.7,0.3,3.4,0.3,5.3-0.1c-2.6,0.1-4.7-0.2-6.3-0.8c-1.6-0.6-2.9-1.3-3.8-2.1
		c-0.9-0.8-1.6-1.6-2-2.5C547.6,573.7,547.4,573,547.3,572.6z M557.1,548.8c-1.4,1.2-2.6,3-3.8,5.3c-1.2,2.3-2.1,4.8-2.6,7.4
		c-0.6,2.6-0.7,5.1-0.5,7.6c0.2,2.4,1.1,4.4,2.5,5.8c-0.9-1.2-1.4-2.7-1.6-4.4c-0.2-1.7-0.2-3.5,0.1-5.3c0.2-1.8,0.6-3.7,1.2-5.5
		c0.5-1.9,1.1-3.6,1.8-5.1c0.6-1.5,1.3-2.8,1.8-3.9C556.4,549.7,556.8,549,557.1,548.8z M559.2,577.9c-1.2,0.1-2.2-0.1-3.2-0.4
		c-1-0.3-1.9-0.8-2.7-1.3s-1.5-1.1-2-1.7c-0.5-0.6-0.9-1.2-1-1.6c0,0.9,0.3,1.7,0.9,2.3c0.6,0.7,1.3,1.2,2.2,1.7
		c0.9,0.4,1.9,0.7,2.9,0.9C557.3,578,558.3,578.1,559.2,577.9z M571.1,546c-0.6-1.6-1.8-2.8-3.5-3.5c-1.7-0.7-3.6-0.8-5.7-0.5
		c-2.1,0.3-4.2,1.2-6.2,2.5c-2,1.3-3.7,3.1-4.9,5.4c1.3-1.9,2.9-3.4,4.8-4.6c1.9-1.2,3.8-2,5.8-2.4c2-0.4,3.9-0.4,5.6,0.1
		C568.7,543.5,570.1,544.5,571.1,546z M560.7,548.5c-0.7-0.3-1.6,0.2-2.7,1.4c-1.1,1.2-2.1,2.8-3,4.7c-1,1.9-1.8,3.9-2.5,6
		c-0.7,2.1-1,3.9-1,5.5c1.3-5.4,2.9-9.6,4.7-12.4C558.1,550.9,559.6,549.2,560.7,548.5z M556,574.3c-1.7-0.6-2.7-1.8-3-3.5
		c-0.3-1.7-0.3-3.6,0.1-5.6c0.4-2,0.9-4,1.7-5.8c0.8-1.9,1.4-3.2,1.9-4.1l0.3-0.6l-0.3,0.6c-1.6,3-2.8,5.6-3.6,7.9
		c-0.7,2.3-1.1,4.2-1.1,5.8c0,1.6,0.4,2.8,1.1,3.8C553.9,573.6,554.8,574.1,556,574.3z M552.8,552.5c0.2-0.6,0.7-1.4,1.4-2.4
		c0.7-1,1.6-1.9,2.7-2.9c1.1-0.9,2.4-1.8,3.8-2.4c1.4-0.7,2.9-1,4.6-0.9c-0.9-0.2-1.9-0.2-3.1,0c-1.2,0.2-2.4,0.7-3.6,1.4
		c-1.2,0.7-2.4,1.7-3.4,2.9C554.1,549.4,553.3,550.8,552.8,552.5z M553.4,569.6c2.1,0,4.2-0.5,6.1-1.5c2-1,3.8-2.2,5.4-3.7
		c1.6-1.5,3-3.1,4.1-4.8c1.1-1.7,1.9-3.3,2.3-4.8c-1.2,2.8-2.6,5.1-4.3,7c-1.7,1.9-3.5,3.4-5.3,4.5c-1.8,1.1-3.5,1.9-5,2.5
		C555.3,569.2,554.2,569.5,553.4,569.6z M554,575.6c0.7,1,1.9,1.6,3.4,1.8c1.5,0.2,3.2,0,4.9-0.6c1.7-0.5,3.4-1.4,4.9-2.6
		c1.6-1.2,2.7-2.7,3.6-4.4c-1.6,2.2-3.4,3.9-5.2,4.9c-1.9,1-3.6,1.7-5.2,1.9c-1.6,0.3-3,0.3-4.2-0.1
		C555,576.2,554.3,575.9,554,575.6l-0.1-0.1L554,575.6z M564.8,553.2c-0.5,2-1.3,3.7-2.3,5.1c-1,1.4-2.1,2.4-3.2,3.3
		c-1.1,0.8-2.1,1.4-3,1.8c-0.9,0.4-1.5,0.6-1.8,0.7c1.6-0.1,3.1-0.5,4.5-1.4c1.4-0.9,2.5-1.9,3.4-3c0.9-1.1,1.6-2.3,2-3.5
		C564.9,555,565,554,564.8,553.2z M563.7,551c-0.4-0.6-1-0.7-1.9-0.2c-0.8,0.5-1.7,1.3-2.6,2.4c-0.9,1.2-1.8,2.6-2.6,4.3
		c-0.8,1.7-1.4,3.5-1.8,5.4c1.4-0.3,2.8-1,4-2.1c1.3-1,2.3-2.2,3.2-3.5c0.9-1.3,1.5-2.5,1.9-3.7C564.2,552.5,564.1,551.6,563.7,551z
		 M572.7,565.4c-1.2,1.7-2.5,3.3-3.8,4.7c-1.3,1.4-2.7,2.6-4.2,3.5c-1.5,0.9-3.1,1.5-4.7,1.7c-1.7,0.3-3.4,0.1-5.3-0.4
		c1.5,0.8,3,1.2,4.7,1c1.6-0.1,3.2-0.6,4.8-1.5c1.6-0.9,3.1-2.1,4.5-3.6C570.2,569.2,571.5,567.5,572.7,565.4z M572.3,550.3
		c0.5-2.2,0.4-4-0.6-5.6c-0.9-1.6-2.2-2.7-4-3.5c-1.7-0.7-3.7-0.9-6-0.6c-2.3,0.3-4.5,1.3-6.7,3c2.2-1.4,4.3-2.2,6.5-2.5
		c2.1-0.3,4-0.1,5.7,0.5c1.7,0.6,3,1.7,3.9,3.2C572.1,546.3,572.5,548.1,572.3,550.3z M568.3,545.7c0.8,1.8,1.2,3.6,1.2,5.4
		c0,1.9-0.5,3.7-1.3,5.4s-2,3.3-3.6,4.8c-1.6,1.5-3.5,2.8-5.7,3.9c2.9-1,5.2-2.5,6.9-4.3c1.7-1.9,2.9-3.8,3.6-5.7
		c0.7-2,0.9-3.8,0.7-5.6C569.9,547.8,569.3,546.5,568.3,545.7z M559,551.3c1.7-1.5,3.1-2.1,4.3-1.9c1.2,0.2,1.9,0.9,2.2,2.2
		c0.3,1.3,0.1,2.8-0.6,4.8c-0.7,1.9-2.1,3.9-4.2,5.9c2.8-2.2,4.6-4.4,5.4-6.5c0.7-2.1,0.8-3.7,0.3-5c-0.6-1.3-1.6-2-3-2
		C562,548.7,560.6,549.5,559,551.3z M559.1,578.7c1.2,0.3,2.6,0.3,4-0.3c1.5-0.5,2.8-1.3,4.1-2.2c1.3-1,2.5-2.2,3.5-3.6
		c1-1.4,1.8-2.9,2.2-4.4c-1.2,2.4-2.5,4.2-4,5.6c-1.4,1.4-2.8,2.4-4.1,3.2c-1.3,0.7-2.5,1.2-3.6,1.4
		C560.2,578.6,559.5,578.7,559.1,578.7z M568.1,553.2c0.3-2.2,0.2-3.8-0.4-5c-0.6-1.2-1.4-2-2.4-2.3c-1-0.4-2-0.4-3.1,0
		c-1.1,0.4-1.9,1-2.4,2c0.5-0.5,1.2-0.8,2.1-1.1c0.9-0.3,1.9-0.3,2.8,0c0.9,0.3,1.7,0.9,2.4,1.9
		C567.9,549.7,568.2,551.2,568.1,553.2z"/>
</g>
<rect x="534.2" y="580.8" class="st1" width="208.8" height="82.8"/>
<g class="st2">
	<path class="st3" d="M526.9,625.6c0.1,0.3,0.2,0.8,0.4,1.5c0.2,0.7,0.5,1.4,1,2.1c0.5,0.7,1.1,1.5,2,2.2c0.8,0.7,1.9,1.3,3.3,1.7
		c-0.7,0-1.5-0.2-2.4-0.6c-0.8-0.4-1.6-0.9-2.3-1.5c-0.7-0.6-1.3-1.4-1.6-2.3C526.8,627.8,526.7,626.8,526.9,625.6z M564.6,608.1
		c0.1-0.4,0.5-0.6,1-0.7c0.5,0,1,0.1,1.6,0.3c0.5,0.2,1,0.5,1.4,0.8c0.4,0.3,0.5,0.7,0.4,1c-0.5,1.2-1,2.3-1.4,3.6
		c-0.5,1.2-0.9,2.3-1.3,3.3c-2.6,5.8-6,10.1-10.4,13c-4.3,2.8-9.5,4.3-15.3,4.4c-2.8,0-5.2-0.4-7.1-1.2c-2-0.8-3.4-1.9-4.4-3.4
		c-1-1.5-1.4-3.2-1.4-5.3c0.1-2.1,0.7-4.4,2-6.9c1.4-2.7,2.5-4.8,3.3-6.4c0.8-1.5,1.3-2.7,1.7-3.4c0.3-0.7,0.4-1.2,0.3-1.4
		c-0.1-0.2-0.4-0.3-0.8-0.3c1-0.4,1.9-0.5,2.8-0.3c0.8,0.2,1.6,0.7,2.3,1.3c0.7,0.6,1.3,1.4,1.9,2.2c0.5,0.9,0.9,1.7,1.2,2.5
		c-0.2,0.2-0.6,0.6-1.1,1.1c-0.5,0.5-1.1,1.3-1.6,2.3c0.3-0.3,0.7-0.8,1.3-1.4c0.6-0.6,1.1-1,1.5-1.4c0.3,1.4,0.3,2.4-0.2,3
		c-2.2,2.4-3.7,4.6-4.7,6.4c-1,1.8-1.5,3.3-1.6,4.4s0.2,1.9,0.8,2.3c0.6,0.4,1.5,0.5,2.4,0.3c1-0.3,2.1-0.9,3.3-2
		c1.2-1,2.4-2.5,3.6-4.3c1.5-2.4,2.1-4.6,1.7-6.5c-0.3-1.9-1.5-4.1-3.6-6.5c-2-2.4-3-4.8-3.1-7.1c-0.1-2.3,0.5-4.2,1.7-5.8
		c1-1.4,2.4-2.4,4.1-3c1.7-0.6,3.4-1,5.2-1c1.8,0,3.5,0.2,5.2,0.8c1.7,0.6,3,1.4,4,2.4c1,1.1,1.6,2.3,1.7,3.8c0.1,1.5-0.5,3.2-1.8,5
		c-1.2,1.6-2.4,2.6-3.8,2.8c-1.4,0.2-2.5,0.1-3.5-0.6c-1-0.6-1.5-1.5-1.7-2.6c-0.2-1.2,0.3-2.3,1.4-3.4c-0.3,0.7-0.2,1.1,0.6,1.2
		c0.7,0.1,1.4-0.2,2-1.1c0.5-0.7,0.5-1.4,0.2-1.9c-0.3-0.5-0.9-0.8-1.6-1c-0.7-0.2-1.5-0.2-2.3,0.1c-0.8,0.2-1.6,0.7-2.2,1.4
		c-0.6,0.7-0.8,1.6-0.5,2.6c0.3,1,0.8,2.1,1.5,3.3s1.5,2.5,2.4,3.9c0.9,1.4,1.6,2.9,2.1,4.5c0.5,1.6,0.8,3.3,0.7,5
		c-0.1,1.8-0.7,3.6-1.8,5.5c1.6-1.2,3-2.8,4.4-4.8c1.4-2.1,2.5-4.2,3.6-6.4c0.3-0.6,0.6-1.3,0.9-2.2
		C563.9,609.6,564.2,608.8,564.6,608.1z M531.8,629.6c1,1,2.2,1.6,3.6,2c1.5,0.4,3,0.4,4.6,0.2c1.6-0.3,3.2-0.8,4.8-1.7
		c1.6-0.8,3-2,4.2-3.4s2.2-3.1,2.8-5.1c0.7-2,0.9-4.3,0.6-6.9c-0.1,3.7-0.9,6.7-2.4,9.2c-1.6,2.5-3.4,4.4-5.6,5.6
		c-2.2,1.3-4.4,1.9-6.8,1.9S533.4,630.8,531.8,629.6z M540.4,612c-1.6,1.4-3,2.8-4.1,4.3c-1.1,1.5-1.9,3-2.5,4.4
		c-0.6,1.4-0.9,2.7-1,3.8c-0.1,1.2,0.1,2.1,0.5,2.7c-0.3-1.4-0.2-2.9,0.4-4.6c0.6-1.6,1.3-3.2,2.2-4.6c0.9-1.5,1.8-2.7,2.7-3.9
		C539.4,613.1,540,612.4,540.4,612l0.2-0.2L540.4,612z M550,621.4c-1.6,2.8-3.2,4.8-5,6.1c-1.8,1.3-3.4,2.1-5,2.5
		c-1.6,0.4-2.9,0.5-4.1,0.3s-1.9-0.4-2.2-0.6l-0.2-0.2l0.2,0.2c0.9,0.8,2.2,1.3,3.7,1.3c1.5,0.1,3-0.2,4.6-0.9
		c1.6-0.7,3.1-1.7,4.5-3.2S549.1,623.6,550,621.4z M540.9,615.1c-1.9,1.6-3.4,3.3-4.4,4.9c-1.1,1.7-1.7,3.2-2,4.5
		c-0.3,1.3-0.3,2.4,0.1,3.2c0.3,0.8,1,1.2,1.9,1.2c-1.2-0.6-1.8-1.6-1.6-2.9c0.1-1.3,0.6-2.7,1.3-4.2c0.7-1.5,1.6-2.8,2.5-4.1
		S540.3,615.6,540.9,615.1z M539.5,633.2c2.8,0.1,5.4-0.2,7.8-0.9c2.4-0.7,4.6-1.8,6.6-3.1c2-1.3,3.6-2.9,5-4.7
		c1.4-1.8,2.4-3.8,3-5.8c-0.4,0.7-1.2,1.9-2.3,3.4c-1.1,1.5-2.6,3-4.5,4.5c-1.9,1.5-4.2,2.9-6.8,4.2
		C545.8,632,542.9,632.8,539.5,633.2z M551.8,593.5c-2-0.3-3.8-0.2-5.3,0.4c-1.5,0.6-2.7,1.5-3.5,2.7c-0.8,1.2-1.2,2.6-1.2,4.2
		c0,1.6,0.6,3.1,1.6,4.6c-0.9-2-1.2-3.7-1-5.2c0.2-1.5,0.8-2.8,1.7-3.9c0.9-1,2.1-1.8,3.5-2.3C548.9,593.7,550.4,593.5,551.8,593.5z
		 M547.8,613.6c0.1,0.4,0.3,1,0.5,1.8c0.2,0.8,0.2,1.8-0.1,2.9c-0.3,1.2-0.9,2.5-1.8,4.1c-0.9,1.5-2.4,3.2-4.5,5.1
		c1.6-1.2,3-2.5,4-3.9c1.1-1.4,1.8-2.7,2.3-4c0.5-1.3,0.7-2.5,0.6-3.5C548.7,615.1,548.4,614.3,547.8,613.6z M542.9,601.9
		c0.1-1.6,0.6-2.9,1.3-4.1c0.7-1.2,1.8-2.2,3.3-3.1c-1,0.3-1.8,0.8-2.4,1.4c-0.6,0.6-1.1,1.2-1.5,1.9c-0.4,0.7-0.6,1.4-0.7,2.1
		C542.7,600.8,542.8,601.4,542.9,601.9z M545.6,600.4c-0.6,1-0.7,2-0.4,3c0.4,1,1,2,1.8,3c0.8,1,1.7,2.1,2.6,3.3
		c0.9,1.2,1.6,2.5,2,3.9c-0.1-1.4-0.6-2.6-1.3-3.7c-0.7-1.1-1.5-2.1-2.3-3.2c-0.8-1-1.5-2-2-3S545.4,601.7,545.6,600.4z
		 M546.1,624.7c1.6-1.8,2.7-3.5,3.3-5.1c0.6-1.6,0.8-3,0.6-4.3c-0.2-1.3-0.7-2.5-1.5-3.7s-1.9-2.1-3.1-3c0.7,0.7,1.4,1.6,2.1,2.5
		c0.7,1,1.3,2.1,1.6,3.3c0.3,1.3,0.3,2.7-0.1,4.4C548.6,620.5,547.6,622.5,546.1,624.7z M550.8,607.7c-1.9-2.2-3-4.2-3.3-5.8
		c-0.3-1.6-0.2-3,0.4-4c0.5-1,1.4-1.8,2.4-2.3c1.1-0.5,2-0.7,2.8-0.6c-0.8-0.3-1.8-0.3-2.9,0.1c-1.2,0.4-2.1,1.2-2.7,2.2
		c-0.6,1.1-0.8,2.5-0.5,4.3C547.4,603.4,548.7,605.4,550.8,607.7z M548.1,633.1c1.8-0.4,3.4-1,5-1.8c1.6-0.8,3-1.7,4.3-2.7
		c1.3-1,2.4-2,3.4-3.1c0.9-1,1.7-2,2.3-3c-0.9,2-2,3.6-3.3,5c-1.3,1.4-2.7,2.5-4.1,3.3c-1.4,0.8-2.8,1.5-4.2,1.8
		C550.2,632.9,549,633.1,548.1,633.1z M548.9,599.1c0.3-0.3,0.6-0.6,1.1-1c0.4-0.4,0.9-0.7,1.5-1c0.6-0.3,1.2-0.4,1.9-0.5
		c0.7,0,1.4,0.1,2.1,0.5c-0.3-0.4-0.8-0.7-1.4-0.8c-0.6-0.1-1.2-0.1-1.8,0c-0.6,0.1-1.3,0.4-1.9,0.9
		C549.8,597.7,549.3,598.3,548.9,599.1z M553.4,624.9c1.6-2.4,2.4-4.7,2.4-6.9c0-2.2-0.4-4.2-1.2-6c-0.8-1.8-1.7-3.4-2.8-4.7
		c-1.1-1.3-1.9-2.3-2.4-2.9l-0.5-0.5c0.1,0.1,0.1,0.1,0.2,0.2c0.1,0.1,0.2,0.2,0.3,0.3c3,4,4.9,7.7,5.5,11.1
		C555.5,619,555,622.1,553.4,624.9z M549.1,628.1c2.9-0.7,5.6-2.4,8-4.9s4.2-5.4,5.2-8.6c-0.3,0.7-0.8,1.6-1.5,2.8s-1.6,2.5-2.6,3.8
		s-2.4,2.6-3.9,3.8C552.8,626.2,551.1,627.3,549.1,628.1z M550.2,626.7c1.1-1.1,1.9-2.3,2.4-3.7c0.5-1.4,0.9-2.8,1-4.1
		c0.1-1.4,0.1-2.6-0.2-3.8c-0.2-1.2-0.7-2.1-1.3-2.8c0.1,0.5,0.3,1.3,0.6,2.2c0.2,0.9,0.4,2,0.4,3.3s-0.2,2.6-0.6,4.2
		S551.4,625,550.2,626.7z M554.9,602.2c1.1,0.1,2-0.2,2.7-0.7c0.7-0.5,1.3-1.2,1.6-1.9c0.3-0.8,0.4-1.6,0.3-2.5s-0.5-1.7-1.1-2.4
		c-0.6-0.7-1.5-1.3-2.7-1.7c-1.2-0.4-2.6-0.5-4.4-0.3c2.2,0.2,3.8,0.7,5,1.6c1.2,0.9,1.8,1.9,2.1,2.9c0.2,1.1,0,2.1-0.6,3
		C557.1,601.2,556.2,601.8,554.9,602.2z M553.3,602.2c0.2,1.4,0.8,2.3,1.9,2.6c1.1,0.3,2.2,0.2,3.3-0.4c1.1-0.6,1.9-1.6,2.5-3
		s0.4-3.2-0.5-5.2c0.5,2,0.4,3.6-0.1,4.9c-0.5,1.3-1.3,2.2-2.2,2.8c-0.9,0.6-1.9,0.7-2.8,0.5C554.4,604,553.7,603.3,553.3,602.2z
		 M553.6,605c0.2,0.7,0.7,1.2,1.5,1.4c0.8,0.2,1.6,0.1,2.5-0.2s1.8-0.8,2.5-1.6c0.8-0.7,1.3-1.7,1.5-2.8c-0.6,1.2-1.3,2.2-2.1,2.8
		c-0.8,0.6-1.6,1.1-2.3,1.2c-0.7,0.2-1.4,0.2-2.1,0C554.4,605.6,553.9,605.3,553.6,605z M563.1,598.3c0-0.7-0.2-1.3-0.6-2
		c-0.4-0.6-0.9-1.2-1.4-1.7c-0.5-0.5-1.1-0.9-1.6-1.2c-0.5-0.3-1-0.5-1.2-0.7c2,0.3,3.4,1,4.3,2.2
		C563.5,596.2,563.7,597.3,563.1,598.3z"/>
	<path class="st3" d="M561.8,624.5c0.1,0.3,0.3,1,0.7,2c0.4,1,1.1,2,2.1,3.2s2.3,2.1,4,3c1.7,0.9,3.9,1.4,6.5,1.5
		c-1.4,0.3-2.9,0.3-4.5-0.1c-1.6-0.4-3-1-4.3-1.9s-2.4-2-3.2-3.3C562.2,627.6,561.8,626.1,561.8,624.5z M594.7,608.1
		c0.1-0.4,0.5-0.6,1-0.7c0.5,0,1.1,0.1,1.6,0.3c0.5,0.2,1,0.5,1.4,0.8c0.4,0.3,0.5,0.7,0.4,1c-0.5,1.5-1.1,2.9-1.6,4.2
		c-0.5,1.3-1.1,2.6-1.5,3.7c-1.6,3.5-3.4,6.4-5.6,8.7c-2.2,2.3-4.5,4.1-6.9,5.3c-2.4,1.2-4.8,1.9-7.2,2.1c-2.4,0.2-4.6-0.1-6.6-0.9
		c-3-1.2-5.1-3.2-6.3-5.9c-1.2-2.7-1.7-5.8-1.6-9.1c0.2-3.3,1-6.7,2.3-10.1c1.4-3.4,3.2-6.3,5.4-8.8c2.2-2.5,4.8-4.3,7.7-5.4
		c2.9-1.1,6-1,9.2,0.3c2,0.7,3.3,2,4.1,3.7c0.7,1.7,1,3.7,0.7,5.8c-0.3,2.2-1,4.4-2.1,6.7c-1.2,2.3-2.6,4.4-4.4,6.4
		c-1.8,2-3.8,3.6-6.2,5c-2.3,1.4-4.7,2.1-7.3,2.2l0.6,0.2c0.2,0.1,0.4,0.1,0.5,0.2c0.2,1.4,1,2.3,2.4,2.8c1.4,0.5,3.1,0.6,5,0.1
		c1.9-0.5,3.9-1.6,5.9-3.3c2-1.7,3.8-4.1,5.3-7.2C592.2,614,593.4,611.2,594.7,608.1z M565.4,625.7c-0.3,1.2-0.1,2.2,0.5,3.3
		s1.5,1.9,2.7,2.6c1.2,0.7,2.6,1.2,4.3,1.5c1.7,0.3,3.4,0.3,5.3-0.1c-2.6,0.1-4.7-0.2-6.3-0.8c-1.6-0.6-2.9-1.3-3.8-2.1
		c-0.9-0.8-1.6-1.6-2-2.5C565.7,626.8,565.4,626.1,565.4,625.7z M575.1,601.9c-1.4,1.2-2.6,3-3.8,5.3s-2.1,4.8-2.6,7.4
		c-0.6,2.6-0.7,5.1-0.5,7.6c0.2,2.4,1.1,4.4,2.5,5.8c-0.9-1.2-1.4-2.7-1.6-4.4c-0.2-1.7-0.2-3.5,0.1-5.3c0.2-1.8,0.6-3.7,1.2-5.5
		c0.5-1.9,1.1-3.6,1.8-5.1c0.6-1.5,1.3-2.8,1.8-3.9C574.4,602.8,574.8,602.1,575.1,601.9z M577.3,631c-1.2,0.1-2.2-0.1-3.2-0.4
		c-1-0.3-1.9-0.8-2.7-1.3c-0.8-0.5-1.5-1.1-2-1.7c-0.5-0.6-0.9-1.2-1-1.6c0,0.9,0.3,1.7,0.9,2.3c0.6,0.7,1.3,1.2,2.2,1.7
		c0.9,0.4,1.9,0.7,2.9,0.9C575.3,631.1,576.3,631.2,577.3,631z M589.1,599.1c-0.6-1.6-1.8-2.8-3.5-3.5c-1.7-0.7-3.6-0.8-5.7-0.5
		c-2.1,0.3-4.2,1.2-6.2,2.5c-2,1.3-3.7,3.1-4.9,5.4c1.3-1.9,2.9-3.4,4.8-4.6c1.9-1.2,3.8-2,5.8-2.4c2-0.4,3.9-0.4,5.6,0.1
		C586.8,596.6,588.1,597.6,589.1,599.1z M578.8,601.7c-0.7-0.3-1.6,0.2-2.7,1.4s-2.1,2.8-3,4.7c-1,1.9-1.8,3.9-2.5,6
		c-0.7,2.1-1,3.9-1,5.5c1.3-5.4,2.9-9.6,4.7-12.4C576.1,604,577.6,602.3,578.8,601.7z M574.1,627.4c-1.7-0.6-2.7-1.8-3-3.5
		c-0.3-1.7-0.3-3.6,0.1-5.6c0.4-2,0.9-4,1.7-5.8c0.8-1.9,1.4-3.2,1.9-4.1l0.3-0.6l-0.3,0.6c-1.6,3-2.8,5.6-3.6,7.9
		c-0.7,2.3-1.1,4.2-1.1,5.8c0,1.6,0.4,2.8,1.1,3.8S572.9,627.2,574.1,627.4z M570.9,605.6c0.2-0.6,0.7-1.4,1.4-2.4
		c0.7-1,1.6-1.9,2.7-2.9c1.1-0.9,2.4-1.8,3.8-2.4c1.4-0.7,2.9-1,4.6-0.9c-0.9-0.2-1.9-0.2-3.1,0c-1.2,0.2-2.4,0.7-3.6,1.4
		c-1.2,0.7-2.4,1.7-3.4,2.9C572.2,602.5,571.4,603.9,570.9,605.6z M571.5,622.7c2.1,0,4.1-0.5,6.1-1.5c2-1,3.8-2.2,5.4-3.7
		c1.6-1.5,3-3.1,4.1-4.8c1.1-1.7,1.9-3.3,2.3-4.8c-1.2,2.8-2.6,5.1-4.3,7c-1.7,1.9-3.5,3.4-5.3,4.5c-1.8,1.1-3.5,1.9-5,2.5
		C573.3,622.3,572.2,622.6,571.5,622.7z M572.1,628.7c0.7,1,1.9,1.6,3.4,1.8c1.5,0.2,3.2,0,4.9-0.6c1.7-0.5,3.4-1.4,4.9-2.6
		c1.6-1.2,2.7-2.7,3.6-4.4c-1.6,2.2-3.4,3.9-5.2,4.9s-3.6,1.7-5.2,1.9c-1.6,0.3-3,0.3-4.2-0.1C573.1,629.3,572.3,629,572.1,628.7
		l-0.1-0.1L572.1,628.7z M582.8,606.3c-0.5,2-1.3,3.7-2.3,5.1c-1,1.4-2.1,2.4-3.2,3.3c-1.1,0.8-2.1,1.4-3,1.8
		c-0.9,0.4-1.5,0.6-1.8,0.7c1.6-0.1,3.1-0.5,4.5-1.4c1.4-0.9,2.5-1.9,3.4-3c0.9-1.1,1.6-2.3,2-3.5
		C582.9,608.1,583,607.1,582.8,606.3z M581.7,604.1c-0.4-0.6-1-0.7-1.9-0.2c-0.8,0.5-1.7,1.3-2.6,2.4c-0.9,1.2-1.8,2.6-2.6,4.3
		c-0.8,1.7-1.4,3.5-1.8,5.4c1.4-0.3,2.8-1,4-2.1c1.3-1,2.3-2.2,3.2-3.5c0.9-1.3,1.5-2.5,1.9-3.7
		C582.3,605.6,582.2,604.7,581.7,604.1z M590.8,618.5c-1.2,1.7-2.5,3.3-3.8,4.7c-1.3,1.4-2.7,2.6-4.2,3.5c-1.5,0.9-3.1,1.5-4.7,1.7
		c-1.7,0.3-3.4,0.1-5.3-0.4c1.5,0.8,3,1.2,4.7,1c1.6-0.1,3.2-0.6,4.8-1.5c1.6-0.9,3.1-2.1,4.5-3.6
		C588.2,622.3,589.6,620.6,590.8,618.5z M590.4,603.4c0.5-2.2,0.4-4-0.6-5.6c-0.9-1.6-2.2-2.7-4-3.5c-1.7-0.7-3.7-0.9-6-0.6
		c-2.3,0.3-4.5,1.3-6.7,3c2.2-1.4,4.3-2.2,6.5-2.5c2.1-0.3,4-0.1,5.7,0.5c1.7,0.6,3,1.7,3.9,3.2
		C590.2,599.4,590.6,601.2,590.4,603.4z M586.4,598.8c0.8,1.8,1.2,3.6,1.2,5.4c0,1.9-0.5,3.7-1.3,5.4s-2,3.3-3.6,4.8
		c-1.6,1.5-3.5,2.8-5.7,3.9c2.9-1,5.2-2.5,6.9-4.3c1.7-1.9,2.9-3.8,3.6-5.7c0.7-2,0.9-3.8,0.7-5.6
		C587.9,600.9,587.4,599.6,586.4,598.8z M577.1,604.4c1.7-1.5,3.1-2.1,4.3-1.9c1.2,0.2,1.9,0.9,2.2,2.2c0.3,1.3,0.1,2.8-0.6,4.8
		c-0.7,1.9-2.1,3.9-4.2,5.9c2.8-2.2,4.6-4.4,5.4-6.5c0.7-2.1,0.8-3.7,0.3-5c-0.6-1.3-1.6-2-3-2C580.1,601.8,578.6,602.6,577.1,604.4
		z M577.2,631.8c1.2,0.3,2.6,0.3,4-0.3c1.5-0.5,2.8-1.3,4.1-2.2c1.3-1,2.5-2.2,3.5-3.6c1-1.4,1.8-2.9,2.2-4.4
		c-1.2,2.4-2.5,4.2-4,5.6c-1.4,1.4-2.8,2.4-4.1,3.2c-1.3,0.7-2.5,1.2-3.6,1.4C578.3,631.7,577.6,631.8,577.2,631.8z M586.2,606.3
		c0.3-2.2,0.2-3.8-0.4-5c-0.6-1.2-1.4-2-2.4-2.3c-1-0.4-2-0.4-3.1,0c-1.1,0.4-1.9,1-2.4,2c0.5-0.5,1.2-0.8,2.1-1.1
		c0.9-0.3,1.9-0.3,2.8,0c0.9,0.3,1.7,0.9,2.4,1.9C585.9,602.8,586.3,604.3,586.2,606.3z"/>
	<path class="st3" d="M622.7,608.1c0.1-0.4,0.5-0.6,1-0.7c0.5,0,1,0.1,1.6,0.3c0.5,0.2,1,0.5,1.4,0.8c0.4,0.3,0.5,0.7,0.4,1
		c-2.7,7-5.1,12.4-7.2,16.1c-1.2,2-2.5,3.8-3.9,5.2c-1.4,1.4-2.8,2.5-4.2,3.2c-1.4,0.7-2.8,1.1-4.2,1.2c-1.4,0.1-2.7-0.2-3.8-0.8
		c-1.2-0.6-2.2-1.6-2.9-3c-0.7-1.4-1-3.2-1-5.5c0.1-2.3,0.6-5,1.6-8.3c1-3.3,2.6-7,4.7-11.3c-1.3-0.1-2.3-0.5-3.2-1
		c-0.8-0.5-1.3-0.9-1.4-1c-0.2,0.6-0.5,1.3-0.8,1.9c-0.3,0.7-0.6,1.3-0.8,2c-0.2,0.6-0.5,1.2-0.7,1.7c-0.2,0.5-0.3,0.9-0.4,1.1
		c-0.1,0.1-0.5,0.2-1,0.2s-1-0.1-1.5-0.2s-1-0.3-1.4-0.5s-0.6-0.4-0.6-0.7c1.3-3,2.1-5.4,2.5-6.9c0.4-1.6,0.5-2.6,0.4-3.2
		c-0.5-1.5-0.6-2.9-0.4-4.4c0.2-1.4,0.7-2.7,1.3-3.8c0.6-1.1,1.4-1.9,2.2-2.4c0.8-0.5,1.6-0.7,2.4-0.4c0.9,0.3,1.8,1,2.4,2
		c0.7,1,0.8,2,0.3,3.2c-0.1-0.5-0.2-1-0.4-1.4c-0.2-0.4-0.4-0.7-0.7-1.1c0.3,1,0.6,2,0.9,3s0.8,1.9,1.5,2.6c0.7,0.7,1.6,1.2,2.8,1.6
		c1.2,0.3,2.9,0.3,5,0c1.9-0.3,3.3,0.1,4.2,1c0.9,0.9,1.1,1.8,0.6,2.7c-1.6,2.4-3.1,4.9-4.6,7.7c-1.5,2.7-2.8,5.3-4,7.8
		c-1.5,3.4-2.3,6-2.4,7.7c-0.1,1.8,0.2,2.8,0.9,3.2c0.7,0.3,1.7,0,2.9-1.1s2.4-2.8,3.7-5.1c0.9-1.6,1.9-3.6,3-6
		C620.1,614.1,621.3,611.3,622.7,608.1z M597.7,595.3c0,0.6,0.2,1.5,0.5,2.5c0.3,1.1,0.8,2.1,1.4,3.2c0.6,1,1.5,1.9,2.6,2.7
		c1.1,0.8,2.4,1.3,3.9,1.4c-2.6-0.8-4.5-2.2-5.8-4.1C598.9,599.2,598.1,597.2,597.7,595.3z M599.2,592.6c-0.4,2.5-0.1,4.7,0.8,6.6
		c0.9,1.9,2.3,3.3,4.1,4.3c1.8,1,3.9,1.5,6.3,1.6c2.4,0.1,4.8-0.5,7.3-1.6c-2.6,0.9-5,1.3-7,1.3c-2,0-3.7-0.3-5.1-0.9
		c-1.4-0.6-2.5-1.4-3.4-2.4c-0.9-1-1.6-2-2-3.2c-0.5-1.1-0.8-2.2-0.9-3.2C599.2,594,599.1,593.2,599.2,592.6c0-0.1,0-0.3,0.1-0.4
		c0-0.1,0.1-0.2,0.1-0.4c0,0.1,0,0.3-0.1,0.4C599.2,592.4,599.2,592.5,599.2,592.6z M600.5,625.4c-0.3,3.1,0.3,5.4,1.6,7
		c1.4,1.5,3.1,2.2,5.1,2.1c2.1-0.1,4.3-1.1,6.6-2.8c2.3-1.8,4.4-4.3,6-7.7c-2.4,3.9-4.9,6.5-7.3,8c-2.4,1.5-4.5,2.1-6.4,1.9
		c-1.9-0.2-3.3-1.1-4.4-2.7C600.8,629.6,600.3,627.7,600.5,625.4z M601.9,589.8c-0.7,1.4-1,2.8-0.9,4.2c0.1,1.4,0.4,2.6,1,3.8
		c0.6,1.1,1.4,2.1,2.4,2.8c1,0.7,2.1,1.2,3.4,1.4c-1.8-0.7-3.2-1.6-4.1-2.9c-0.9-1.3-1.5-2.5-1.8-3.8c-0.3-1.3-0.4-2.5-0.3-3.5
		C601.6,590.7,601.7,590,601.9,589.8z M610.8,606.5c-0.7,0.1-1.6,0.7-2.5,1.9c-0.9,1.2-1.8,2.7-2.6,4.5c-0.8,1.8-1.6,3.7-2.1,5.6
		c-0.6,2-0.9,3.7-1,5.2c0.2-1.5,0.6-3.1,1.2-4.8c0.6-1.7,1.3-3.4,2.1-5c0.8-1.6,1.6-3,2.5-4.4C609.3,608.3,610.1,607.3,610.8,606.5z
		 M603.4,590.3c-0.3,2.4-0.1,4.4,0.7,5.9c0.8,1.5,1.9,2.6,3.2,3.3c1.3,0.7,2.7,1.1,4.2,1c1.5,0,2.8-0.4,4-1c-2.7,0.6-4.9,0.6-6.5,0
		c-1.6-0.6-2.8-1.5-3.7-2.6c-0.8-1.2-1.4-2.4-1.6-3.7C603.5,591.9,603.4,590.9,603.4,590.3z M606.7,631.3c-1.5-0.6-2.3-1.7-2.5-3.4
		c-0.2-1.7-0.1-3.5,0.4-5.4c0.4-1.9,1-3.8,1.8-5.5c0.8-1.8,1.4-3,1.8-3.9c-3.1,5.1-4.7,9.2-4.8,12.5
		C603.2,628.8,604.4,630.7,606.7,631.3z M616.5,599.6c-1.4,0.8-2.7,1.3-4.1,1.4c-1.4,0.1-2.6,0-3.8-0.3c-1.1-0.3-2.1-0.7-2.9-1.2
		c-0.8-0.5-1.4-0.9-1.6-1.3c0-0.1,0-0.2-0.1-0.2c0.1,0,0.1,0.1,0.1,0.2c0.8,1.3,1.9,2.2,3.2,2.7c1.3,0.5,2.6,0.8,3.9,0.8
		s2.5-0.2,3.5-0.6C615.7,600.7,616.3,600.2,616.5,599.6z M613.6,607.6c0.1-0.1,0.2-0.2,0.3-0.3c0-0.1,0.1-0.1,0.3-0.2L613.6,607.6
		c-2,2.3-3.7,4.8-5.1,7.4c-1.4,2.6-2.4,5-2.9,7.3c-0.6,2.2-0.7,4.1-0.3,5.7c0.4,1.6,1.4,2.4,3,2.6c-1.8-0.9-2.7-2.4-2.7-4.5
		c0-2.1,0.5-4.4,1.4-6.8c0.9-2.4,2-4.7,3.4-6.9C611.8,610.3,612.8,608.7,613.6,607.6z M605.4,633c2.1,0.6,4.1,0.4,5.9-0.8
		s3.5-2.6,4.9-4.3c1.4-1.8,2.6-3.6,3.7-5.4c1-1.9,1.7-3.3,2.1-4.2c-2.2,3.9-4.1,6.9-5.8,8.9c-1.7,2-3.3,3.4-4.6,4.3
		c-1.4,0.8-2.5,1.3-3.6,1.4C606.9,632.8,606.1,632.9,605.4,633z M606.4,602.7c1,0.5,2.2,0.9,3.5,1s2.6,0,3.8-0.2
		c1.2-0.2,2.3-0.6,3.2-1.1c0.9-0.5,1.4-1.1,1.6-1.8c-1.2,0.9-2.4,1.5-3.7,1.9c-1.3,0.4-2.6,0.6-3.8,0.7c-1.2,0.1-2.2,0.1-3-0.1
		C607.2,602.9,606.6,602.8,606.4,602.7z M608.6,629.3c-0.8-0.7-1.1-1.8-1-3.4c0.2-1.6,0.6-3.3,1.3-5.1c0.7-1.8,1.4-3.6,2.2-5.2
		c0.8-1.7,1.4-2.9,1.8-3.7c-1.8,2.9-3.1,5.4-4,7.6c-0.9,2.1-1.4,3.9-1.7,5.3c-0.2,1.4-0.2,2.5,0.1,3.2
		C607.6,628.6,608,629.1,608.6,629.3z M619,618c-1.3,3.2-2.5,5.6-3.7,7.2c-1.2,1.6-2.3,2.8-3.2,3.5c-1,0.7-1.8,1-2.4,1
		c-0.7,0-1.1,0-1.3-0.1c0.8,0.5,1.7,0.6,2.7,0.2c1-0.4,2-1.2,3-2.2c1-1.1,2-2.5,2.8-4.1C617.9,621.8,618.6,620,619,618z"/>
	<path class="st3" d="M620,614.1c-0.1,0.5-0.3,1.6-0.4,3c-0.1,1.5-0.1,3.1,0.2,4.9c0.2,1.8,0.8,3.5,1.6,5.3c0.8,1.8,2.2,3.2,4,4.4
		c-1.9-0.7-3.4-1.9-4.4-3.5c-1.1-1.6-1.7-3.3-2.1-5c-0.3-1.8-0.4-3.5-0.2-5.1C618.9,616.3,619.4,615,620,614.1z M658.7,608.1
		c0.1-0.4,0.5-0.6,1-0.7c0.5,0,1,0.1,1.5,0.3c0.5,0.2,0.9,0.5,1.3,0.8c0.4,0.3,0.5,0.7,0.4,1c-0.3,0.9-0.7,1.9-1.1,2.8
		c-0.4,0.9-0.7,1.8-1.1,2.6c-0.8,2-1.8,3.6-3.1,4.9c-1.3,1.3-2.6,2.4-4,3.2c-1.4,0.8-2.9,1.4-4.4,1.7c-1.5,0.3-2.9,0.5-4.2,0.4
		c-1.3,1.8-2.7,3.2-4.1,4.2c-1.5,1.1-2.9,1.8-4.4,2.4c-1.5,0.5-2.9,0.8-4.3,0.9c-1.4,0.1-2.7,0-4-0.3c-2-0.5-3.7-1.6-5.2-3.5
		c-1.5-1.8-2.4-4.4-2.7-7.6c-0.3-3.3,0.2-7.2,1.4-11.7s3.6-9.8,7.2-15.8c0.1-0.1,0.2-0.1,0.4-0.2c0.3-0.1,0.7,0,1.1,0.3
		c-0.3-0.4-0.6-0.7-1-0.8s-0.8-0.3-1.1-0.4c0.6-0.2,1.4-0.2,2.4-0.1c1,0.2,2.1,0.5,3.2,0.9c1.1,0.4,2.2,1,3.2,1.7
		c1,0.7,1.7,1.4,2.1,2.2c-2.7,3.7-4.8,7.2-6.4,10.7c-1.6,3.5-2.6,6.6-3.3,9.3c-0.6,2.7-0.8,5-0.5,6.8c0.3,1.8,1,2.8,2.1,3.1
		c1.2,0.3,2.4-0.1,3.6-1.1c1.3-1,2.5-2.4,3.7-4.1c-1.4-1.4-2.2-3.1-2.6-5.3c-0.4-2.2-0.1-4.8,1-7.9c1.1-3.1,2.4-5.6,4-7.4
		c1.6-1.8,3.2-3,4.8-3.6c1.6-0.6,3.1-0.6,4.5-0.1c1.4,0.6,2.4,1.7,3,3.4c0.7,1.7,0.8,3.8,0.5,6.5c-0.3,2.6-1.4,5.8-3.3,9.4
		c-0.3,0.5-0.5,1-0.7,1.4c-0.2,0.4-0.4,0.8-0.7,1.3c1.4-0.4,2.8-1.1,4-2c1.3-0.9,2.4-2.4,3.3-4.4c0.3-0.8,0.7-1.6,1.1-2.5
		C657.9,609.9,658.3,609,658.7,608.1z M624.5,618.1c-0.5,0.9-0.7,2-0.8,3.2c0,1.2,0.1,2.3,0.5,3.5c0.3,1.1,0.8,2.1,1.5,3
		c0.6,0.9,1.4,1.5,2.3,1.7c-1-0.5-1.7-1.3-2.2-2.3c-0.5-1-0.9-2-1.1-3.2c-0.2-1.1-0.4-2.2-0.4-3.3
		C624.3,619.7,624.4,618.8,624.5,618.1z M630.5,595c-0.7,0.3-1.5,1-2.2,2c-0.7,1-1.3,2.1-1.9,3.3c-0.5,1.2-1,2.3-1.3,3.3
		c-0.3,1.1-0.5,1.8-0.5,2.2c0.3-0.7,0.6-1.7,1.1-2.8c0.5-1.1,1-2.2,1.6-3.3c0.6-1,1.1-2,1.7-2.9C629.6,596,630.1,595.4,630.5,595z
		 M625.4,622.7c0-0.9,0.1-2,0.4-3.4c0.2-1.4,0.5-2.8,0.8-4.2c0.3-1.5,0.7-2.9,1.1-4.3c0.4-1.4,0.8-2.5,1.2-3.4
		c-0.5,0.7-1.1,1.8-1.5,3.3c-0.5,1.4-0.9,2.9-1.2,4.4c-0.3,1.5-0.6,3-0.7,4.4C625.3,620.9,625.3,621.9,625.4,622.7z M637.7,625.2
		c-1.8,2-3.5,3.2-5,3.6c-1.5,0.4-2.7,0.3-3.8-0.4c-1-0.7-1.7-1.8-2.2-3.5c-0.4-1.6-0.5-3.6-0.2-5.8c-0.8,3.1-0.9,5.5-0.2,7.2
		c0.7,1.7,1.7,2.8,3.1,3.2c1.4,0.4,2.8,0.3,4.4-0.5C635.5,628.4,636.8,627.1,637.7,625.2z M627.3,630.7c1,0.7,2.2,1.1,3.6,1.1
		c1.4,0,2.8-0.4,4.2-1c1.4-0.6,2.8-1.5,4-2.5c1.3-1,2.3-2.2,3-3.5c-2,2.2-3.8,3.8-5.4,4.8c-1.7,1-3.2,1.5-4.5,1.7
		c-1.3,0.2-2.4,0.2-3.3,0C628.1,631,627.5,630.9,627.3,630.7z M632,628.3c-2-0.3-3.2-1.4-3.6-3.3c-0.4-1.8-0.4-3.9-0.1-6.1
		c0.4-2.2,0.9-4.4,1.7-6.4c0.7-2,1.3-3.4,1.6-4.1c-1.2,1.8-2.2,3.9-3,6.3c-0.8,2.3-1.3,4.5-1.4,6.6c-0.1,2.1,0.2,3.8,0.9,5.1
		S630.2,628.4,632,628.3z M634.6,595c-0.4,0.2-0.9,0.8-1.5,1.7c-0.6,0.9-1.2,1.9-1.8,3c-0.6,1.1-1.1,2.2-1.5,3.4
		c-0.4,1.1-0.6,2-0.6,2.7c0.3-1,0.6-2.1,1.1-3.2c0.5-1.1,1-2.2,1.6-3.2c0.6-1,1.1-1.9,1.6-2.7C633.9,595.9,634.3,595.4,634.6,595z
		 M637.2,597.5c-0.5-0.1-1.3,0.4-2.1,1.6c-0.9,1.2-1.7,2.6-2.6,4.3c-0.8,1.7-1.6,3.3-2.2,4.9c-0.6,1.6-1,2.8-1.1,3.6
		c0.3-0.7,0.7-1.7,1.4-3c0.6-1.4,1.3-2.8,2.1-4.3c0.7-1.5,1.5-2.9,2.3-4.2C635.8,599,636.5,598.1,637.2,597.5z M635.9,595.9
		c-0.2-0.1-0.5,0-1,0.5c-0.4,0.4-0.9,1.1-1.4,1.8c-0.5,0.8-1,1.7-1.4,2.7c-0.5,1-0.8,2-1,2.8c0.3-0.7,0.7-1.4,1.1-2.3
		c0.4-0.8,0.8-1.6,1.3-2.4c0.4-0.7,0.9-1.4,1.3-2C635.2,596.5,635.6,596.1,635.9,595.9z M636.9,612.1c-0.2,1-0.3,2-0.3,3.2
		c0,1.2,0.2,2.3,0.6,3.3c0.3,1.1,0.9,2,1.6,2.7c0.7,0.8,1.6,1.3,2.6,1.6c-1.2-0.4-2-1.1-2.6-2.2c-0.6-1-1.1-2.1-1.3-3.3
		c-0.3-1.1-0.4-2.2-0.5-3.2C636.9,613.2,636.9,612.5,636.9,612.1z M647.5,601.4c-1.6-0.2-3,0.3-4.2,1.4c-1.2,1.1-2.1,2.5-2.8,4.2
		c-0.7,1.7-1.2,3.5-1.3,5.3c-0.2,1.8-0.1,3.4,0.3,4.7c-0.2-2.3-0.1-4.4,0.5-6.3c0.5-1.9,1.2-3.5,2-4.9c0.8-1.4,1.8-2.4,2.8-3.2
		C645.8,601.9,646.7,601.5,647.5,601.4z M651.5,610.3c1-3.7,1.2-6.4,0.6-8.3c-0.6-1.9-1.6-3-3-3.4c-1.4-0.3-2.9,0-4.5,1.1
		c-1.7,1.1-3,2.7-4.1,4.9c1.2-1.8,2.6-3.1,4.1-4.1c1.5-0.9,2.9-1.3,4.1-1c1.2,0.3,2.2,1.3,2.8,2.9
		C652,604.2,652.1,606.8,651.5,610.3z M654.4,617.2c-2,1.6-3.8,2.7-5.4,3.2c-1.7,0.5-3.1,0.5-4.3,0c-1.2-0.5-2.1-1.3-2.7-2.5
		c-0.6-1.2-0.8-2.7-0.6-4.5c-0.6,2-0.5,3.7,0.2,5.1c0.7,1.4,1.8,2.3,3.2,2.7c1.4,0.4,3,0.4,4.7-0.3
		C651.3,620.3,652.9,619,654.4,617.2z M641.4,620.8c0.6,1.1,1.6,1.8,2.8,2.2c1.3,0.4,2.7,0.5,4.1,0.2c1.5-0.3,2.9-1,4.3-2
		c1.4-1,2.6-2.5,3.5-4.4c-1.7,2.2-3.4,3.8-5,4.6c-1.7,0.8-3.2,1.2-4.5,1.2s-2.5-0.2-3.4-0.7C642.3,621.3,641.7,621,641.4,620.8z
		 M643.8,611.6c0.7-2.2,1-3.5,0.8-3.9c-0.2-0.3-0.9,0.8-2,3.6c-0.7,2-1,3.7-0.8,5.2C642.6,614.9,643.3,613.2,643.8,611.6z
		 M654.6,605.4c-0.1-2.5-0.6-4.4-1.5-5.7c-0.9-1.3-1.9-2.1-3.2-2.5c-1.2-0.4-2.5-0.4-3.8,0.1c-1.3,0.4-2.5,1.1-3.5,1.9
		c1.4-1.9,2.9-3,4.6-3.3c1.6-0.3,3.1,0,4.3,0.8c1.3,0.8,2.2,2,2.8,3.6C655,602,655.1,603.7,654.6,605.4z M644.6,605.3
		c0.5-0.1,0.8,0.1,1.1,0.5c0.3,0.4,0.4,1,0.3,2c-0.1,1-0.4,2.2-0.9,3.8c-0.5,1.6-1.3,3.5-2.4,5.8c0.9-1.6,1.7-3.2,2.3-4.8
		c0.7-1.6,1.1-3.1,1.3-4.3c0.2-1.3,0.2-2.2-0.1-2.8C646.1,604.9,645.5,604.8,644.6,605.3z M644.6,617c1.1-1.6,1.9-3.2,2.6-4.9
		s1-3.3,1.1-4.6c0.1-1.4-0.1-2.4-0.5-3.2c-0.4-0.8-1.2-1-2.3-0.8c0.5,0,1,0.2,1.5,0.7c0.4,0.4,0.7,1.2,0.7,2.2c0,1-0.2,2.4-0.6,4.1
		C646.7,612.2,645.9,614.4,644.6,617z M645.4,624.1c1.6,0.2,3.1,0.1,4.6-0.4c1.5-0.4,2.8-1.1,4.1-1.9c1.2-0.8,2.2-1.8,3-2.9
		c0.8-1.1,1.3-2.2,1.4-3.3c-0.9,1.8-1.9,3.3-3,4.4c-1.1,1.1-2.3,1.9-3.5,2.5c-1.2,0.6-2.4,1-3.6,1.2
		C647.3,623.9,646.2,624,645.4,624.1z M646.4,600.4c2.6,0.1,3.9,1.5,4,4.1c0.1,2.6-0.8,6.3-2.5,11.1c1-2.4,1.8-4.6,2.3-6.6
		c0.5-2,0.7-3.7,0.7-5c-0.1-1.4-0.5-2.4-1.2-3C648.9,600.3,647.8,600.2,646.4,600.4z M648.6,619.3c1.4-2.5,2.5-4.7,3.2-6.7
		c0.7-2,1.1-3.7,1.4-5.1c0.2-1.4,0.3-2.6,0.2-3.4c-0.1-0.8-0.2-1.4-0.4-1.6c0,0.2,0,0.7,0,1.6c0,0.9-0.1,2-0.4,3.5
		c-0.2,1.4-0.7,3.1-1.3,5.1C650.7,614.7,649.8,616.9,648.6,619.3z"/>
	<path class="st3" d="M675.3,608.1c0.1-0.4,0.5-0.6,1-0.7c0.5,0,1,0.1,1.6,0.3c0.5,0.2,1,0.5,1.4,0.8c0.4,0.3,0.5,0.7,0.4,1
		c-1.7,4.4-3.3,8.1-4.7,11c-1.4,2.9-2.8,5.3-4.1,7.2c-1.6,2.2-3.4,3.7-5.6,4.6c-2.2,0.9-4.3,1-6.3,0.3c-1.6-0.5-2.9-1.5-4-2.8
		c-1.1-1.3-1.7-3.3-1.7-5.8s0.7-6,2.2-10.2c1.5-4.2,3.9-9.5,7.5-15.8c0.1-0.2,0.4-0.3,0.9-0.2c0.4,0.1,1,0.2,1.7,0.5
		c-0.3,0.5-0.6,1.2-0.9,2c-0.3,0.8-0.6,1.7-0.9,2.7c0.4-0.7,0.9-1.6,1.4-2.6c0.5-1,0.9-1.7,1-2.1c1.3,0.5,2.6,1.1,3.8,1.8
		c1.3,0.7,1.8,1.2,1.8,1.4c-1.5,2.4-3,5.2-4.6,8.4c-1.6,3.2-2.8,6.2-3.8,9.2c-0.8,2.4-1.2,4.3-1,5.5c0.1,1.2,0.6,1.9,1.3,2
		c0.7,0.1,1.6-0.3,2.5-1.2c1-0.9,1.9-2.3,2.9-4c0.8-1.6,1.7-3.5,2.7-5.7C672.9,613.6,674.1,611,675.3,608.1z M654.3,621.7
		c-0.4,0.8-0.6,1.7-0.5,2.7c0.1,1,0.3,1.9,0.6,2.8c0.3,0.9,0.8,1.7,1.3,2.4c0.5,0.7,1.1,1.1,1.6,1.2c-0.5-0.4-1-1-1.4-1.8
		c-0.4-0.8-0.7-1.6-1-2.5c-0.2-0.9-0.4-1.8-0.5-2.6C654.3,623,654.3,622.3,654.3,621.7z M658.1,619.1c-1,1.9-1.6,3.7-1.7,5.4
		c-0.1,1.7,0.1,3.2,0.7,4.4c0.6,1.3,1.4,2.2,2.6,2.8c1.2,0.6,2.5,0.8,3.9,0.5c1.5-0.3,3-1.1,4.6-2.5c1.6-1.4,3.2-3.4,4.7-6.2
		c-2.2,3.6-4.5,5.9-6.7,7c-2.2,1.1-4.1,1.3-5.6,0.6c-1.5-0.7-2.6-2.1-3.2-4.3C656.8,624.7,657,622.1,658.1,619.1z M661.6,612.7
		c-2.2,4.5-3.3,8.1-3.4,11c-0.1,2.9,0.5,4.7,1.6,5.4c-0.7-1.1-1.1-2.4-1.1-4.1c0-1.6,0.2-3.3,0.5-4.9c0.3-1.6,0.8-3.1,1.3-4.5
		C661.1,614.3,661.4,613.3,661.6,612.7z M668.7,626.2c-1.4,1.6-2.7,2.6-3.8,2.8c-1.1,0.3-2.1,0.2-2.9-0.4c-0.8-0.5-1.4-1.2-1.8-2.2
		c-0.4-0.9-0.6-1.9-0.5-2.7c-0.5,1.6-0.4,2.9,0.2,3.9c0.6,1.1,1.4,1.7,2.4,2.1c1,0.3,2.1,0.3,3.4-0.3
		C666.8,629,667.8,627.9,668.7,626.2z M666.7,606.3c-0.5,0.2-1.1,0.9-1.8,2c-0.6,1.1-1.3,2.4-1.9,3.9c-0.6,1.5-1.2,3-1.6,4.7
		c-0.5,1.6-0.8,3-0.9,4.2c0.3-1.1,0.7-2.4,1.2-3.9c0.5-1.5,1.1-2.9,1.8-4.4c0.6-1.4,1.3-2.7,1.8-3.9
		C665.9,607.7,666.4,606.9,666.7,606.3z M660.5,633.4c1,0,2.1-0.1,3.3-0.3c1.2-0.2,2.4-0.6,3.6-1.4s2.4-1.8,3.6-3.3
		c1.2-1.5,2.3-3.5,3.3-6c-0.3,1.8-0.9,3.5-1.7,5c-0.8,1.5-1.8,2.8-3,3.8c-1.2,1-2.6,1.7-4.1,2.1
		C663.9,633.8,662.3,633.8,660.5,633.4z M662.6,628c-0.8-0.4-1.2-1.3-1.2-2.6s0.2-2.8,0.7-4.5c0.4-1.7,1-3.5,1.8-5.4
		c0.7-1.9,1.5-3.7,2.2-5.3c0.7-1.7,1.4-3.1,2-4.2c0.6-1.2,0.9-1.9,1.1-2.1c-2.4,4.3-4.3,7.9-5.5,10.9c-1.3,3-2.1,5.4-2.4,7.4
		c-0.4,1.9-0.4,3.4-0.1,4.3C661.4,627.2,661.9,627.8,662.6,628z M667.9,600.2c-0.3,0.2-0.7,0.5-1.1,1c-0.4,0.5-0.7,1-1,1.5
		c-0.3,0.5-0.6,1.1-0.8,1.6c-0.2,0.5-0.3,0.9-0.3,1.3c0.1-0.2,0.2-0.6,0.5-1.1c0.3-0.5,0.6-1.1,0.9-1.7c0.3-0.6,0.6-1.1,1-1.6
		C667.4,600.7,667.7,600.4,667.9,600.2z M671.7,617.5c-1,3.1-2,5.4-3.2,6.8s-2.2,2.3-3,2.7c0.8-0.1,1.6-0.5,2.3-1.2
		c0.7-0.7,1.4-1.6,1.9-2.5c0.6-1,1-2,1.4-3.1C671.4,619.2,671.6,618.3,671.7,617.5z M669.4,597.7c-1.6-0.4-2.5-1.3-2.9-2.6
		c-0.4-1.3-0.3-2.7,0.3-4c0.5-1.2,1.6-2,3-2.5c1.5-0.4,3-0.2,4.7,0.9c-0.7-0.3-1.6-0.4-2.4-0.4c1.5,0.4,2.5,1.1,2.9,2.2
		c0.5,1.1,0.5,2.1,0.2,3.2c-0.3,1.1-1,2-2,2.7C672.2,597.8,670.9,598,669.4,597.7z M667.8,591.2c-0.5,1-0.7,1.8-0.6,2.6
		c0.2,0.8,0.6,1.4,1.2,1.9c0.6,0.4,1.4,0.6,2.3,0.6c0.9-0.1,1.8-0.5,2.7-1.4c-0.7,0.6-1.5,1-2.3,1.1s-1.5,0-2.1-0.4
		c-0.6-0.3-1.1-0.9-1.3-1.6C667.4,593.2,667.5,592.3,667.8,591.2z M667.5,595.5c0.7,1.2,1.7,1.7,2.8,1.8c1.2,0,2.2-0.3,3-1
		c0.9-0.7,1.4-1.6,1.6-2.6c0.2-1.1-0.3-2.2-1.4-3.3c0.8,1,1.1,2,0.9,3s-0.7,1.8-1.4,2.4c-0.7,0.6-1.6,0.9-2.7,0.9
		C669.4,596.8,668.4,596.3,667.5,595.5z M667.5,628.7c1.4-0.9,2.8-2.4,4.1-4.6c1.3-2.2,2.2-4.7,2.7-7.5c-0.3,0.7-0.6,1.5-1,2.5
		c-0.4,1-0.9,2.1-1.4,3.2c-0.5,1.1-1.2,2.2-1.9,3.4C669.2,626.8,668.4,627.8,667.5,628.7z M668.2,597.6c1.1,0.5,2.1,0.7,3.2,0.6
		c1-0.1,1.9-0.5,2.6-1.1c0.7-0.6,1.2-1.4,1.6-2.3c0.3-0.9,0.4-1.9,0.1-3.1c0.5,1.2,0.6,2.3,0.3,3.3c-0.3,1.1-0.9,1.9-1.7,2.6
		c-0.8,0.7-1.8,1.1-2.8,1.1C670.3,598.8,669.2,598.4,668.2,597.6z M671.8,595.1c0.9-0.2,1.5-0.6,1.8-1.3c0.3-0.7,0.4-1.3,0.2-2
		c-0.2-0.6-0.5-1.2-1.1-1.7c-0.5-0.5-1.2-0.7-2-0.6c0.5,0,1,0.2,1.5,0.6c0.5,0.4,0.9,0.9,1.1,1.5c0.2,0.6,0.3,1.2,0.1,1.9
		C673.2,594.2,672.7,594.7,671.8,595.1z"/>
	<path class="st3" d="M702.4,608.1c0.1-0.4,0.5-0.6,1-0.7c0.5,0,1,0.1,1.6,0.3c0.5,0.2,1,0.5,1.4,0.8c0.4,0.3,0.5,0.7,0.4,1
		c-0.5,1.5-1.1,2.9-1.6,4.2c-0.5,1.3-1.1,2.5-1.6,3.7c-1.8,4.2-4.1,7.5-6.8,9.9c-2.7,2.4-5.5,3.9-8.3,4.7c-2.8,0.7-5.5,0.7-8.1-0.1
		s-4.6-2.2-6.2-4.2c-1.6-2-2.4-4.7-2.5-7.9c-0.1-3.2,0.8-6.9,2.7-11.1c1.9-3.9,4-7.1,6.3-9.5c2.3-2.4,4.5-4.1,6.8-5.2
		c2.2-1.1,4.4-1.6,6.4-1.7c2,0,3.6,0.3,4.8,0.9c1.7,0.9,2.8,2,3.4,3.4c0.5,1.4,0.6,2.7,0.2,4.1c-0.4,1.4-1.2,2.6-2.4,3.8
		c-1.2,1.1-2.7,1.9-4.6,2.3c0.4-0.3,0.9-0.8,1.6-1.6c0.7-0.8,1.2-1.5,1.4-2.1c-0.5,0.7-1,1.3-1.7,1.8c-0.6,0.5-1.3,0.9-2,1.3
		c-0.7,0.4-1.3,0.6-1.9,0.8c-0.6,0.1-1,0.2-1.3,0.2c2-1.8,3.3-3.5,3.9-5c0.6-1.5,0.8-2.2,0.5-2.2c-0.7,0-1.9,0.8-3.7,2.5
		c-1.8,1.7-3.8,4.6-6.1,8.8c-1.6,2.9-2.6,5.4-2.8,7.5c-0.3,2.1-0.1,3.7,0.5,4.9c0.6,1.2,1.5,1.9,2.7,2.2c1.3,0.3,2.6,0.2,4.2-0.5
		c1.5-0.6,3-1.7,4.6-3.2c1.5-1.5,2.9-3.5,4-5.9c0.5-1.2,1.1-2.4,1.7-3.8C701.1,611.1,701.7,609.6,702.4,608.1z M674.2,621.9
		c-0.3,1.9-0.1,3.5,0.7,4.8c0.8,1.3,1.8,2.3,3.2,3.2c1.3,0.8,2.8,1.4,4.3,1.6c1.6,0.3,3,0.3,4.3,0.2c-1.8,0-3.4-0.2-4.9-0.7
		c-1.5-0.4-2.8-1.1-4-1.9c-1.1-0.8-2-1.9-2.6-3C674.4,624.8,674.2,623.4,674.2,621.9z M687.8,594.5c-1,0.1-2,0.7-3.3,1.7
		c-1.3,1-2.5,2.1-3.7,3.5c-1.2,1.3-2.2,2.6-3.1,4s-1.4,2.4-1.6,3.1c0.3-0.3,0.7-1,1.4-2s1.5-2.1,2.5-3.4c1-1.2,2.2-2.5,3.5-3.7
		C684.9,596.4,686.3,595.3,687.8,594.5z M681.7,629.8c-1-0.3-1.8-0.9-2.4-1.6c-0.6-0.7-1.1-1.6-1.4-2.5c-0.3-0.9-0.5-1.9-0.5-2.9
		c0-1-0.1-2-0.1-2.9c-0.3,1.1-0.4,2.2-0.4,3.3c0,1.1,0.2,2.1,0.6,3c0.3,1,0.8,1.8,1.5,2.4C679.8,629.2,680.7,629.6,681.7,629.8z
		 M678,617.8c0.2-1.7,0.5-3.3,1-4.8c0.5-1.5,1-2.8,1.5-4s1-2.1,1.5-2.9s0.9-1.4,1.2-1.7c-0.7,0.5-1.3,1.2-2,2.3
		c-0.6,1.1-1.2,2.2-1.7,3.5c-0.5,1.3-0.9,2.6-1.2,4C677.9,615.5,677.8,616.7,678,617.8z M678.9,624.2c-0.3-3.3-0.1-6.3,0.7-9
		c0.7-2.7,1.6-5,2.7-7c1.1-2,2.3-3.6,3.4-4.8c1.2-1.2,2-2,2.6-2.4c-1.2,0.4-2.4,1.4-3.7,2.8c-1.3,1.5-2.5,3.3-3.5,5.4
		c-1,2.1-1.8,4.5-2.3,7.1C678.3,618.9,678.4,621.6,678.9,624.2z M683.8,609.2c-1.6,2.8-2.7,5.3-3.4,7.6c-0.6,2.3-0.8,4.2-0.7,5.8
		c0.2,1.6,0.6,2.9,1.4,3.9c0.8,0.9,1.8,1.5,3,1.6c-1.8-0.7-3-2-3.4-3.7c-0.4-1.7-0.5-3.6-0.3-5.5c0.3-1.9,0.8-3.8,1.5-5.6
		C682.7,611.5,683.3,610.1,683.8,609.2z M698.6,621.1c-2.1,2.8-4.2,4.9-6.3,6.1c-2.1,1.3-3.9,2-5.6,2.2c-1.7,0.2-3.1,0-4.3-0.6
		c-1.2-0.6-1.9-1.3-2.1-2.1c0.2,1.3,1,2.2,2.3,2.8c1.3,0.6,2.9,0.7,4.8,0.4c1.9-0.4,3.8-1.3,5.8-2.7
		C695.3,625.8,697.1,623.8,698.6,621.1z M695.1,622.8c-2,1.8-4,3-5.8,3.5c-1.8,0.5-3.4,0.4-4.7-0.4c-1.3-0.7-2.2-2.1-2.6-4
		c-0.5-1.9-0.3-4.3,0.4-7.3c-1.2,3-1.5,5.5-1.1,7.5c0.4,2,1.3,3.5,2.6,4.3c1.4,0.8,3,1,5.1,0.5C691,626.4,693,625,695.1,622.8z
		 M699,594.1c-0.7-0.5-1.7-0.7-3.1-0.7c-1.4,0-2.9,0.3-4.6,1c-1.7,0.7-3.4,1.7-5.1,3.2c-1.8,1.5-3.4,3.4-4.9,5.8
		c1.1-1.4,2.4-2.7,3.8-4.1c1.5-1.4,3-2.5,4.6-3.5c1.6-0.9,3.2-1.6,4.8-2C696.2,593.5,697.7,593.6,699,594.1z M682.1,619.7
		c0.2-2,0.7-3.9,1.6-5.9c0.8-2,1.8-3.8,2.8-5.4c1-1.7,2-3.1,3-4.3c1-1.2,1.7-2.1,2.1-2.5c-3.8,4.1-6.4,7.7-7.7,10.8
		C682.5,615.4,681.9,617.9,682.1,619.7z M683.9,611.1c1.6-3,3.1-5.4,4.6-7.2c1.5-1.8,2.8-3.1,4.1-4c1.2-0.9,2.2-1.4,3-1.6
		c0.8-0.2,1.3-0.2,1.5-0.1c-0.7-0.6-1.7-0.6-2.9-0.1c-1.2,0.6-2.4,1.5-3.7,2.8c-1.3,1.3-2.5,2.8-3.7,4.6
		C685.5,607.4,684.6,609.2,683.9,611.1z M684.5,632.9c0.4,0,1.2-0.1,2.5-0.3c1.3-0.2,2.7-0.7,4.4-1.4c1.7-0.7,3.4-1.9,5.3-3.5
		c1.9-1.6,3.6-3.7,5.1-6.4c-0.5,1.4-1.2,2.7-2.2,4.1c-1,1.4-2.3,2.6-3.8,3.8c-1.5,1.1-3.2,2-5.1,2.7
		C688.8,632.5,686.7,632.9,684.5,632.9z M700.1,595.8c-0.3-0.4-0.8-0.8-1.5-1.1c-0.7-0.3-1.7-0.4-2.9-0.2c-1.2,0.2-2.6,0.8-4.2,1.7
		c-1.6,1-3.4,2.5-5.3,4.6c-0.1,0-0.1,0-0.1,0.1c0,0,0,0.1-0.1,0.1c0.1,0,0.1,0,0.1-0.1c0,0,0-0.1,0.1-0.1c0.5-0.5,1.3-1.3,2.4-2.1
		c1.1-0.9,2.3-1.7,3.7-2.4c1.3-0.7,2.7-1.2,4.1-1.4C697.7,594.7,699,595,700.1,595.8z M688.4,630.4c3-0.4,5.7-1.9,8-4.4
		c2.3-2.5,3.8-5.4,4.6-8.7c-0.4,1.2-1,2.5-1.8,3.9c-0.8,1.4-1.8,2.7-2.9,4c-1.1,1.3-2.4,2.4-3.7,3.4
		C691.3,629.5,689.9,630.1,688.4,630.4z M700.4,600.9c0.6-1.4,0.7-2.5,0.3-3.5c-0.4-0.9-1.1-1.6-2.2-1.9c-1.1-0.3-2.3-0.2-3.8,0.3
		c-1.5,0.5-3,1.5-4.6,3c0.9-0.8,2-1.5,3.4-2c1.4-0.5,2.6-0.7,3.8-0.7c1.2,0.1,2.1,0.5,2.7,1.2C700.7,598.1,700.8,599.3,700.4,600.9z
		 M692.3,606.3c0.6-0.3,1.2-0.7,1.7-1.2c0.5-0.5,1-1.1,1.4-1.7s0.7-1.2,0.9-1.8c0.2-0.6,0.2-1.2-0.1-1.6c0,0.3-0.1,0.7-0.3,1.3
		c-0.2,0.6-0.5,1.2-0.9,1.9c-0.4,0.7-0.8,1.3-1.3,1.9C693.3,605.6,692.8,606.1,692.3,606.3z M696.4,603.6c0.4-0.4,0.8-0.9,1.1-1.4
		c0.3-0.5,0.5-1,0.6-1.5c0.1-0.5,0-0.9-0.3-1.2c-0.2-0.3-0.7-0.5-1.4-0.5c0.5,0.1,0.9,0.5,1.1,1.4
		C697.7,601.1,697.3,602.2,696.4,603.6z"/>
	<path class="st3" d="M699.5,624.5c0.1,0.3,0.3,1,0.7,2c0.4,1,1.1,2,2.1,3.2c1,1.1,2.3,2.1,4,3c1.7,0.9,3.9,1.4,6.5,1.5
		c-1.4,0.3-2.9,0.3-4.5-0.1c-1.6-0.4-3-1-4.3-1.9c-1.3-0.9-2.4-2-3.2-3.3C700,627.6,699.5,626.1,699.5,624.5z M732.5,608.1
		c0.1-0.4,0.5-0.6,1-0.7c0.5,0,1.1,0.1,1.6,0.3c0.5,0.2,1,0.5,1.4,0.8c0.4,0.3,0.5,0.7,0.4,1c-0.5,1.5-1.1,2.9-1.6,4.2
		c-0.5,1.3-1.1,2.6-1.5,3.7c-1.6,3.5-3.4,6.4-5.6,8.7c-2.2,2.3-4.5,4.1-6.9,5.3c-2.4,1.2-4.8,1.9-7.2,2.1c-2.4,0.2-4.6-0.1-6.6-0.9
		c-3-1.2-5.1-3.2-6.3-5.9s-1.7-5.8-1.6-9.1c0.2-3.3,0.9-6.7,2.3-10.1c1.4-3.4,3.2-6.3,5.4-8.8c2.2-2.5,4.8-4.3,7.7-5.4
		c2.9-1.1,6-1,9.2,0.3c2,0.7,3.3,2,4.1,3.7c0.7,1.7,1,3.7,0.7,5.8c-0.3,2.2-1,4.4-2.1,6.7c-1.2,2.3-2.6,4.4-4.4,6.4
		c-1.8,2-3.8,3.6-6.1,5c-2.3,1.4-4.7,2.1-7.3,2.2l0.6,0.2c0.2,0.1,0.4,0.1,0.5,0.2c0.2,1.4,1,2.3,2.4,2.8c1.4,0.5,3.1,0.6,5,0.1
		c1.9-0.5,3.9-1.6,5.9-3.3c2-1.7,3.8-4.1,5.3-7.2C729.9,614,731.1,611.2,732.5,608.1z M703.1,625.7c-0.3,1.2-0.1,2.2,0.5,3.3
		c0.6,1,1.5,1.9,2.7,2.6c1.2,0.7,2.6,1.2,4.3,1.5s3.4,0.3,5.3-0.1c-2.6,0.1-4.7-0.2-6.3-0.8c-1.6-0.6-2.9-1.3-3.8-2.1
		c-0.9-0.8-1.6-1.6-2-2.5C703.4,626.8,703.2,626.1,703.1,625.7z M712.8,601.9c-1.4,1.2-2.6,3-3.8,5.3c-1.2,2.3-2.1,4.8-2.6,7.4
		c-0.6,2.6-0.7,5.1-0.5,7.6c0.2,2.4,1.1,4.4,2.5,5.8c-0.9-1.2-1.4-2.7-1.6-4.4c-0.2-1.7-0.2-3.5,0.1-5.3c0.2-1.8,0.6-3.7,1.2-5.5
		c0.5-1.9,1.1-3.6,1.8-5.1c0.6-1.5,1.3-2.8,1.8-3.9C712.1,602.8,712.6,602.1,712.8,601.9z M715,631c-1.2,0.1-2.2-0.1-3.2-0.4
		c-1-0.3-1.9-0.8-2.7-1.3s-1.5-1.1-2-1.7c-0.5-0.6-0.9-1.2-1-1.6c0,0.9,0.3,1.7,0.9,2.3c0.6,0.7,1.3,1.2,2.2,1.7
		c0.9,0.4,1.9,0.7,2.9,0.9C713,631.1,714,631.2,715,631z M726.9,599.1c-0.6-1.6-1.8-2.8-3.5-3.5c-1.7-0.7-3.6-0.8-5.7-0.5
		c-2.1,0.3-4.2,1.2-6.2,2.5s-3.7,3.1-4.9,5.4c1.3-1.9,2.9-3.4,4.8-4.6c1.9-1.2,3.8-2,5.8-2.4c2-0.4,3.9-0.4,5.6,0.1
		C724.5,596.6,725.9,597.6,726.9,599.1z M716.5,601.7c-0.7-0.3-1.6,0.2-2.7,1.4c-1.1,1.2-2.1,2.8-3,4.7c-1,1.9-1.8,3.9-2.5,6
		c-0.7,2.1-1,3.9-1,5.5c1.3-5.4,2.9-9.6,4.7-12.4C713.8,604,715.3,602.3,716.5,601.7z M711.8,627.4c-1.7-0.6-2.7-1.8-3-3.5
		c-0.3-1.7-0.3-3.6,0.1-5.6c0.4-2,0.9-4,1.7-5.8c0.8-1.9,1.4-3.2,1.9-4.1l0.3-0.6l-0.3,0.6c-1.6,3-2.8,5.6-3.6,7.9
		c-0.7,2.3-1.1,4.2-1.1,5.8c0,1.6,0.4,2.8,1.1,3.8C709.7,626.7,710.6,627.2,711.8,627.4z M708.6,605.6c0.2-0.6,0.7-1.4,1.4-2.4
		c0.7-1,1.6-1.9,2.7-2.9c1.1-0.9,2.4-1.8,3.8-2.4c1.4-0.7,2.9-1,4.6-0.9c-0.9-0.2-1.9-0.2-3.1,0s-2.4,0.7-3.6,1.4
		c-1.2,0.7-2.4,1.7-3.4,2.9S709.1,603.9,708.6,605.6z M709.2,622.7c2.1,0,4.1-0.5,6.1-1.5c2-1,3.8-2.2,5.4-3.7
		c1.6-1.5,3-3.1,4.1-4.8c1.1-1.7,1.9-3.3,2.3-4.8c-1.2,2.8-2.6,5.1-4.3,7c-1.7,1.9-3.5,3.4-5.3,4.5c-1.8,1.1-3.5,1.9-5,2.5
		C711.1,622.3,709.9,622.6,709.2,622.7z M709.8,628.7c0.7,1,1.9,1.6,3.4,1.8c1.5,0.2,3.2,0,4.9-0.6c1.7-0.5,3.4-1.4,4.9-2.6
		c1.6-1.2,2.7-2.7,3.6-4.4c-1.6,2.2-3.4,3.9-5.2,4.9c-1.9,1-3.6,1.7-5.2,1.9c-1.6,0.3-3,0.3-4.2-0.1
		C710.8,629.3,710.1,629,709.8,628.7l-0.1-0.1L709.8,628.7z M720.6,606.3c-0.5,2-1.3,3.7-2.3,5.1c-1,1.4-2.1,2.4-3.2,3.3
		c-1.1,0.8-2.1,1.4-3,1.8c-0.9,0.4-1.5,0.6-1.8,0.7c1.6-0.1,3.1-0.5,4.5-1.4c1.4-0.9,2.5-1.9,3.4-3c0.9-1.1,1.6-2.3,2-3.5
		C720.7,608.1,720.8,607.1,720.6,606.3z M719.4,604.1c-0.4-0.6-1-0.7-1.9-0.2c-0.8,0.5-1.7,1.3-2.6,2.4c-0.9,1.2-1.8,2.6-2.6,4.3
		c-0.8,1.7-1.4,3.5-1.8,5.4c1.4-0.3,2.8-1,4-2.1c1.3-1,2.3-2.2,3.2-3.5c0.9-1.3,1.5-2.5,1.9-3.7C720,605.6,719.9,604.7,719.4,604.1z
		 M728.5,618.5c-1.2,1.7-2.5,3.3-3.8,4.7c-1.3,1.4-2.7,2.6-4.2,3.5c-1.5,0.9-3.1,1.5-4.7,1.7c-1.7,0.3-3.4,0.1-5.3-0.4
		c1.5,0.8,3,1.2,4.7,1c1.6-0.1,3.2-0.6,4.8-1.5c1.6-0.9,3.1-2.1,4.5-3.6C726,622.3,727.3,620.6,728.5,618.5z M728.1,603.4
		c0.5-2.2,0.4-4-0.6-5.6c-0.9-1.6-2.2-2.7-4-3.5c-1.7-0.7-3.7-0.9-6-0.6c-2.3,0.3-4.5,1.3-6.7,3c2.2-1.4,4.3-2.2,6.5-2.5
		c2.1-0.3,4-0.1,5.7,0.5c1.7,0.6,3,1.7,3.9,3.2C727.9,599.4,728.3,601.2,728.1,603.4z M724.1,598.8c0.8,1.8,1.2,3.6,1.2,5.4
		c0,1.9-0.5,3.7-1.3,5.4c-0.8,1.7-2,3.3-3.6,4.8c-1.6,1.5-3.5,2.8-5.7,3.9c2.9-1,5.2-2.5,6.9-4.3c1.7-1.9,2.9-3.8,3.6-5.7
		c0.7-2,0.9-3.8,0.7-5.6C725.7,600.9,725.1,599.6,724.1,598.8z M714.8,604.4c1.7-1.5,3.1-2.1,4.3-1.9c1.2,0.2,1.9,0.9,2.2,2.2
		c0.3,1.3,0.1,2.8-0.6,4.8c-0.7,1.9-2.1,3.9-4.2,5.9c2.8-2.2,4.6-4.4,5.4-6.5c0.7-2.1,0.8-3.7,0.3-5c-0.6-1.3-1.6-2-3-2
		C717.8,601.8,716.3,602.6,714.8,604.4z M714.9,631.8c1.2,0.3,2.6,0.3,4-0.3c1.5-0.5,2.8-1.3,4.1-2.2c1.3-1,2.5-2.2,3.5-3.6
		c1-1.4,1.8-2.9,2.2-4.4c-1.2,2.4-2.5,4.2-4,5.6c-1.4,1.4-2.8,2.4-4.1,3.2c-1.3,0.7-2.5,1.2-3.6,1.4
		C716,631.7,715.3,631.8,714.9,631.8z M723.9,606.3c0.3-2.2,0.2-3.8-0.4-5c-0.6-1.2-1.4-2-2.4-2.3c-1-0.4-2-0.4-3.1,0
		c-1.1,0.4-1.9,1-2.4,2c0.5-0.5,1.2-0.8,2.1-1.1c0.9-0.3,1.9-0.3,2.8,0c0.9,0.3,1.7,0.9,2.4,1.9C723.7,602.8,724,604.3,723.9,606.3z
		"/>
</g>
<rect x="228.3" y="313.2" class="st1" width="117.2" height="96.5"/>
<g class="st2">
	<path class="st3" d="M284.2,308.5c2.6-4.5,5.5-7.8,8.5-10c3-2.2,5.9-3.5,8.7-3.9c2.8-0.4,5.3,0,7.5,1.1c2.2,1.1,3.9,2.8,5.1,4.9
		c1.2,2.2,1.7,4.7,1.5,7.7c-0.2,2.9-1.4,6-3.5,9.3c-3.9,6-8.5,10.4-13.6,13.4c-5.2,3-10.5,4.8-16.1,5.6c-2.8,4.3-5.9,8.5-9.2,12.7
		c-3.4,4.2-7.1,7.9-11.2,11.1c3.3,1.2,6.6,2.2,9.9,3.2c3.3,0.9,6.3,1.6,8.9,2c2.7,0.4,4.9,0.5,6.8,0.3c1.9-0.2,3.1-0.9,3.7-2.1
		c0.1,0.7-0.2,1.7-0.7,2.8c-0.5,1.1-1.5,2.1-2.8,3c-1.4,0.9-3.1,1.5-5.3,1.9c-2.2,0.4-4.8,0.2-7.9-0.7c0.6,0.3,1.5,0.6,2.5,0.8
		c1.1,0.2,2.2,0.3,3.4,0.4c1.2,0.1,2.3,0.1,3.5-0.1s2-0.3,2.8-0.6c-1.8,2.6-4.9,4-9.1,4c-3.3,0-7.5-0.7-12.6-2
		c-5.1-1.3-10.5-3.1-16.3-5.3c-2.9,1.1-5.9,1.8-9.1,2.1c-3.2,0.3-6.5,0.1-9.9-0.6c-3.7-0.7-6.4-1.8-8.3-3.3c-1.9-1.5-3.1-3-3.5-4.8
		c-0.4-1.7-0.2-3.4,0.7-5c0.9-1.6,2.2-3,4.1-4.1s4.1-1.8,6.7-2c2.6-0.2,5.6,0.2,8.7,1.3c1.2,0.5,2.6,1,4.1,1.6
		c1.5,0.6,3,1.1,4.5,1.7c1.5,0.5,2.9,1.1,4.3,1.6c1.4,0.5,2.5,1,3.5,1.3c-0.1-0.1-0.5-0.4-1-0.8c-0.3-0.2-0.5-0.4-0.7-0.5
		c2.9-2.6,5.7-5.6,8.2-9c2.6-3.5,5-7,7.4-10.8c-3.9-0.5-7.7-1.5-11.3-2.7c-3.6-1.3-6.9-2.8-9.9-4.6c-3-1.8-5.6-3.8-7.7-5.9
		c-2.2-2.1-3.8-4.3-4.8-6.5c-0.2-0.5,0-1.4,0.6-2.8c0.6-1.4,1.4-2.8,2.3-4.3c0.9-1.5,1.8-2.8,2.8-4c0.9-1.2,1.7-1.7,2.3-1.7
		c4.1-0.1,8,0.1,11.7,0.4c3.7,0.3,6.9,0.9,9.6,1.7c2.7,0.8,4.8,1.8,6.2,3s2,2.7,1.7,4.4c-0.5-0.5-1.9-0.9-4.2-1.4
		c-2.3-0.4-5.2-0.4-8.7,0.2h0.1c3,0.1,5.4,0.3,7.1,0.6c1.7,0.3,2.8,0.7,3.6,1.2c0.7,0.4,1.1,0.9,1.1,1.4c0,0.5,0,0.8-0.2,1.1
		c-0.3-0.9-2.3-1.6-5.9-1.9c-3.6-0.3-8.5-0.4-14.7-0.2c3.1,3,6.8,5.5,11,7.7c4.2,2.1,8.6,3.5,13.2,4.2c1.8-3.3,3.6-6.4,5.2-9.5
		C281.1,313.9,282.6,311.1,284.2,308.5z M219.5,357.2c-1,1.8-1,3.6-0.1,5.3c1,1.7,2.6,3.1,4.8,4.3c2.2,1.2,4.9,2,8.1,2.4
		c3.2,0.4,6.4,0.3,9.7-0.4c-2.5,0.3-5.2,0.3-8,0c-2.8-0.3-5.4-0.8-7.7-1.7c-2.3-0.9-4.1-2.1-5.5-3.8
		C219.5,361.7,219,359.6,219.5,357.2z M237.1,350.9c-2-0.8-3.8-1.2-5.6-1.3c-1.8,0-3.4,0.1-4.8,0.4c-1.4,0.3-2.6,0.7-3.7,1.3
		c-1,0.6-1.8,1.1-2.2,1.5c1.2-1.4,2.6-2.3,4.2-2.9c1.6-0.6,3.1-0.9,4.7-1c1.6-0.1,3,0.1,4.3,0.5S236.4,350.3,237.1,350.9z
		 M247.9,360.7c-7.2-4-13.1-6.2-17.8-6.5c-4.7-0.3-7.4,1-8.1,4.1c0.4-0.5,1.1-1.2,2-1.8c0.9-0.7,2.3-1.1,4.2-1.2
		c1.9-0.1,4.4,0.2,7.5,0.9C238.8,356.9,242.9,358.4,247.9,360.7z M257.8,360.6c-4.5-2.2-8.5-3.9-11.7-5.2c-3.3-1.3-6.1-2.3-8.4-2.9
		c-2.3-0.6-4.2-1-5.6-1.2c-1.5-0.1-2.6-0.1-3.6,0.1c-0.9,0.2-1.6,0.4-2.1,0.7c-0.5,0.3-0.9,0.6-1.2,0.8c1.7-0.9,3.9-1.2,6.7-0.9
		c2.7,0.4,5.7,1.1,8.7,2.1c3.1,1,6.1,2.2,9.2,3.5S255.5,359.8,257.8,360.6z M225.8,363.5c-0.1-0.5,0.1-1.1,0.6-1.8
		c0.4-0.7,1.2-1.3,2.2-1.8c1-0.5,2.4-0.7,4.1-0.7c1.7,0,3.8,0.6,6.3,1.6c-2.2-1.3-4.3-2-6.1-2.2c-1.9-0.2-3.4,0-4.6,0.4
		c-1.2,0.4-2.1,1.1-2.5,2C225.2,361.8,225.2,362.7,225.8,363.5z M240.2,364.9c-0.6,0.3-1.6,0.6-2.9,0.8c-1.4,0.2-2.7,0.2-4.2,0.2
		c-1.4,0-2.7-0.2-3.8-0.6c-1.1-0.4-1.7-1-1.7-1.8c-0.4,0.9-0.2,1.6,0.7,2.1c0.9,0.5,2,0.8,3.5,1c1.4,0.1,2.9,0.1,4.5-0.2
		C237.9,366.1,239.2,365.7,240.2,364.9z M232.6,364.9c1.2,0.1,2.5,0,3.7-0.2c1.3-0.2,2.5-0.4,3.6-0.8c-2.6-1.2-4.8-1.8-6.6-1.9
		c-1.8-0.1-3.1,0.1-3.9,0.5c-0.8,0.4-0.9,0.9-0.5,1.4C229.4,364.5,230.6,364.8,232.6,364.9z M230.7,367.2c0.5,0.3,1.4,0.6,2.7,0.7
		s2.7,0.1,4.2-0.1c1.5-0.1,2.8-0.3,4-0.6c1.2-0.3,2-0.6,2.2-0.9c-1,0.3-2.2,0.5-3.5,0.7c-1.3,0.2-2.6,0.3-3.8,0.4
		c-1.3,0.1-2.4,0.1-3.5,0.1C232.1,367.5,231.3,367.4,230.7,367.2z M232.4,361c1.3,0.1,4,0.9,8.1,2.5c4.1,1.6,9.6,3.9,16.4,6.9
		c-2.2-1.1-4.6-2.3-7.3-3.6c-2.7-1.3-5.3-2.5-7.8-3.5c-2.5-1-4.6-1.8-6.4-2.2C233.6,360.6,232.6,360.6,232.4,361z M260.3,368.2
		c-3-1.5-6-2.9-9-4.3c-2.9-1.4-5.6-2.6-8.1-3.5c-2.4-0.9-4.6-1.7-6.4-2.2c-1.8-0.5-3-0.7-3.7-0.5c1.2,0.1,4.3,1.1,9.1,3
		C247.1,362.6,253.1,365,260.3,368.2z M236.7,313c-1,2-1,3.8-0.1,5.5c1,1.7,2.6,3.6,4.9,5.7c-1.2-1.3-2.1-2.4-2.8-3.4
		c-0.7-0.9-1.2-1.8-1.6-2.6c-0.3-0.8-0.5-1.6-0.6-2.4C236.6,314.9,236.6,314,236.7,313z M238.6,310.5c-0.4,2.8-0.2,5.3,0.7,7.5
		c0.9,2.2,2.1,4.1,3.6,5.8c1.5,1.7,3.2,3,5,4.2c1.8,1.1,3.4,2,4.8,2.7c-3.6-2-6.4-4.1-8.3-6.2c-1.9-2.1-3.3-4.1-4.2-5.9
		c-0.8-1.9-1.3-3.5-1.5-4.9C238.6,312.2,238.6,311.1,238.6,310.5z M242.6,313.7c-0.2,2,0.6,4.1,2.4,6.3c1.8,2.2,4.2,4.1,7.2,5.9
		c2.9,1.8,6.3,3.2,10,4.3c3.7,1.1,7.4,1.6,11,1.4c-4.7-0.3-8.9-1.2-12.6-2.7c-3.7-1.5-6.9-3.1-9.6-5c-2.6-1.9-4.7-3.8-6.1-5.6
		C243.5,316.3,242.7,314.8,242.6,313.7z M270.9,311.6c-0.5-1-1.4-1.9-2.8-2.6c-1.4-0.7-3.1-1.4-5-1.9c-1.9-0.5-3.9-0.9-6-1.2
		c-2.1-0.3-4.2-0.5-6-0.7c-1.9-0.1-3.5-0.2-4.9-0.3c-1.4,0-2.3,0-2.8,0.1c4.7,0.3,8.7,0.6,11.9,1.1c3.2,0.5,5.8,1,7.8,1.6
		c2,0.6,3.6,1.3,4.8,1.9C269,310.4,270,311,270.9,311.6z M283.5,369.2c-1.1,0.3-2.7,0.2-4.8-0.2c-2.1-0.4-4.4-0.9-7-1.7
		c-2.6-0.7-5.3-1.6-8.1-2.6c-2.8-1-5.6-2-8.1-3c-2.6-1-4.9-1.9-7-2.8c-2.1-0.8-3.6-1.5-4.6-2c6.8,3.3,12.6,5.8,17.3,7.6
		c4.7,1.8,8.5,3.2,11.5,4c3,0.8,5.4,1.3,7,1.3C281.3,369.9,282.6,369.7,283.5,369.2z M284.1,329.4c-4.3,0.7-8.2,0.8-11.7,0.4
		c-3.6-0.4-6.7-1.1-9.6-2.1c-2.8-1-5.3-2.3-7.4-3.7c-2.1-1.5-3.9-2.9-5.3-4.3c-1.4-1.4-2.5-2.7-3.3-3.8c-0.8-1.1-1.2-1.9-1.3-2.4
		c0.3,2.2,1.5,4.5,3.8,6.9c2.3,2.4,5.2,4.4,8.7,6.1c3.6,1.7,7.6,2.9,12.1,3.7C274.7,330.9,279.4,330.7,284.1,329.4z M290.6,332.2
		c-3.5,1-6.9,1.5-10.3,1.6c-3.4,0.1-6.7,0-9.8-0.5c-3.2-0.5-6.1-1.1-8.8-2c-2.7-0.8-5.2-1.8-7.4-2.7c-2.2-1-4-1.9-5.4-2.9
		c-1.4-0.9-2.4-1.7-2.8-2.3c1.1,1.5,2.6,2.9,4.7,4.2c2,1.3,4.4,2.4,7,3.4c2.6,0.9,5.5,1.7,8.5,2.4c3,0.6,6,1,8.9,1.2
		c2.9,0.1,5.8,0,8.4-0.3C286.3,333.8,288.6,333.1,290.6,332.2z M247,307.4c0.7-0.1,1.9,0,3.8,0.2s3.8,0.5,5.9,0.9
		c2.1,0.4,4.2,0.8,6.2,1.2c2,0.4,3.5,0.8,4.5,1.2c-0.7-0.4-2-0.9-4.1-1.5c-2-0.6-4.2-1.2-6.4-1.6c-2.2-0.5-4.3-0.8-6.3-0.9
		C248.7,306.6,247.5,306.8,247,307.4z M284.1,372.7c-1.3,0.6-3,0.9-5.2,0.8c-2.2-0.1-4.5-0.4-7.1-1c-2.6-0.5-5.2-1.2-7.9-2.1
		c-2.7-0.8-5.2-1.7-7.4-2.5c-2.3-0.8-4.2-1.6-5.8-2.3c-1.6-0.7-2.7-1.2-3.2-1.4c5.6,3,10.5,5.2,14.7,6.7c4.2,1.5,7.8,2.5,10.8,2.9
		c3,0.5,5.4,0.6,7.2,0.3S283.4,373.3,284.1,372.7z M247.7,312.1c0.4-0.6,1.3-1,2.7-1.3c1.4-0.2,3-0.4,4.8-0.4c1.8,0,3.7,0.1,5.6,0.3
		c1.9,0.2,3.6,0.4,5,0.6c-0.5-0.1-1.3-0.3-2.3-0.6c-1.1-0.2-2.3-0.5-3.7-0.7c-1.4-0.2-2.7-0.4-4.1-0.6c-1.4-0.1-2.7-0.2-3.9-0.1
		c-1.2,0.1-2.2,0.4-2.9,0.8C248.1,310.6,247.7,311.2,247.7,312.1z M271.2,309c-0.8-1.2-2.2-2.1-4.3-2.8c-2-0.7-4.2-1.3-6.5-1.6
		c-2.3-0.4-4.5-0.6-6.5-0.8c-2-0.1-3.3-0.2-4-0.2c2.7-0.1,5.3-0.1,7.8,0.1c2.5,0.2,4.7,0.5,6.7,0.9c1.9,0.4,3.5,1,4.7,1.8
		C270.3,307.1,271,308,271.2,309z M264.2,314.1c-0.5-0.3-1.5-0.5-2.7-0.7c-1.3-0.2-2.6-0.3-4.1-0.4s-2.8-0.1-4.1,0.1
		c-1.3,0.1-2.1,0.3-2.5,0.7c0.5,0,1.3,0,2.4-0.1c1.1,0,2.3,0,3.7,0c1.3,0,2.6,0.1,4,0.2C262.1,314,263.2,314,264.2,314.1z
		 M271.3,326.7c-2-0.3-4.2-0.8-6.4-1.7c-2.2-0.9-4.2-1.8-6.1-2.8c-1.9-1-3.5-2-4.8-2.9c-1.4-0.9-2.2-1.6-2.5-2.1
		c0.7,1,1.8,2.1,3.3,3.2c1.5,1.1,3.2,2.2,5.1,3.1c1.9,0.9,3.9,1.7,5.9,2.3C267.8,326.4,269.7,326.7,271.3,326.7z M252,362.5
		c0.1,0.3,0.9,0.9,2.4,1.6c1.5,0.7,3.3,1.5,5.4,2.4c2.1,0.8,4.2,1.6,6.4,2.4c2.2,0.7,4,1.3,5.5,1.5c-1.2-0.3-2.7-0.9-4.6-1.6
		c-1.9-0.7-3.9-1.5-5.9-2.4c-2-0.8-3.9-1.6-5.6-2.3C253.8,363.3,252.7,362.8,252,362.5z M271.1,337.4c-0.7,1.2-1.6,2.6-2.7,4.2
		c-1.2,1.7-2.4,3.4-3.8,5.2c-1.4,1.8-2.7,3.6-4.2,5.4c-1.4,1.8-2.7,3.5-4,4.9c1.3-1.2,2.8-2.7,4.4-4.6c1.7-1.9,3.2-3.8,4.7-5.7
		c1.5-1.9,2.7-3.8,3.8-5.5C270.4,339.5,271,338.2,271.1,337.4z M257.3,332.8c1.6,0.8,3.4,1.5,5.6,2c2.2,0.5,4.5,0.9,7,1.1
		c2.5,0.2,5,0.3,7.6,0.3c2.6,0,5-0.3,7.3-0.7c2.3-0.4,4.4-1,6.3-1.8c1.9-0.7,3.4-1.7,4.5-2.9c-2.4,1.8-5.3,3-8.8,3.7
		c-3.5,0.7-7.1,1.1-10.8,1.1c-3.7,0-7.2-0.3-10.5-0.8C262,334.2,259.3,333.5,257.3,332.8z M257.7,358.8c0.9-0.5,2.2-1.5,3.8-3.1
		c1.6-1.6,3.2-3.4,4.9-5.5c1.7-2.1,3.3-4.2,4.8-6.4c1.5-2.2,2.7-4,3.4-5.6c-0.8,1-2.1,2.6-3.7,4.7c-1.7,2.1-3.4,4.3-5.1,6.5
		c-1.8,2.2-3.4,4.2-4.9,6C259.2,357.2,258.2,358.3,257.7,358.8z M268,340c-0.3,0.3-0.9,1-1.7,2.1c-0.8,1.1-1.7,2.3-2.7,3.6
		c-1,1.4-2,2.8-3,4.2c-1,1.5-1.9,2.7-2.5,3.8c0.7-0.7,1.6-1.8,2.6-3.2c1.1-1.4,2.2-2.7,3.2-4.1c1-1.4,2-2.7,2.7-3.9
		C267.4,341.3,267.9,340.5,268,340z M261.3,359.4c1.8-1.2,3.8-2.8,5.8-4.9c2.1-2,4-4.1,5.7-6.4c1.8-2.2,3.3-4.3,4.7-6.1
		c1.4-1.9,2.2-3.3,2.6-4.3c-1.4,1.8-2.9,3.8-4.5,5.8c-1.7,2-3.3,4-5,5.9c-1.7,1.9-3.4,3.8-5,5.5
		C264.1,356.7,262.6,358.2,261.3,359.4z M277.4,340c-0.5,0.1-1.3,0.8-2.4,2.1c-1.1,1.3-2.4,2.8-3.8,4.5c-1.4,1.7-2.8,3.5-4.3,5.3
		c-1.5,1.8-2.8,3.4-4.1,4.6c1.1-0.9,2.3-2,3.7-3.5c1.4-1.5,2.7-3,4-4.6c1.3-1.6,2.6-3.2,3.8-4.7C275.6,342.3,276.6,341,277.4,340z
		 M265.1,373.7c0.2,0.1,1,0.3,2.5,0.7c1.5,0.4,3.2,0.8,5.2,1.1c2,0.3,4,0.4,6.1,0.4c2.1-0.1,3.9-0.6,5.4-1.5
		c-0.7,0.9-1.9,1.6-3.4,1.9c-1.5,0.3-3.1,0.5-4.9,0.4c-1.8-0.1-3.7-0.4-5.6-0.9C268.5,375.1,266.7,374.5,265.1,373.7z M289.9,366.1
		c-0.8,0.5-1.9,0.8-3.2,0.9s-2.8,0.1-4.4-0.1c-1.6-0.2-3.2-0.4-4.9-0.7c-1.7-0.3-3.2-0.6-4.7-1c-1.5-0.4-2.7-0.7-3.9-1
		s-1.9-0.5-2.3-0.7c6.5,2.2,11.7,3.5,15.7,4.1C286.3,368.1,288.8,367.6,289.9,366.1z M274.1,332.8c2.5,0.4,5.5,0.4,8.9,0
		c3.4-0.4,6.8-1.4,10.3-2.9c3.4-1.6,6.6-3.8,9.5-6.8c2.9-2.9,5.2-6.8,6.8-11.5c-0.3,0.7-0.8,1.7-1.5,3c-0.7,1.4-1.8,2.8-3.1,4.5
		c-1.3,1.6-2.9,3.3-4.8,5c-1.9,1.7-4.1,3.2-6.7,4.6c-2.5,1.4-5.4,2.4-8.6,3.3C281.6,332.7,278.1,333,274.1,332.8z M290.4,302.3
		c-1.4,1-2.8,2.6-4.2,4.8c-1.5,2.2-2.8,4.5-4.1,7c-1.3,2.4-2.4,4.7-3.4,6.8c-0.9,2.1-1.6,3.6-1.9,4.4c3.3-6.2,6.1-11.2,8.5-15.1
		C287.8,306.3,289.5,303.7,290.4,302.3z M305.6,307.4c-0.6,3.8-2.1,7.1-4.4,9.8s-4.9,5-7.8,6.7c-2.9,1.7-5.7,3-8.5,3.9
		c-2.8,0.8-4.9,1.3-6.4,1.3c4.1,0,8-0.8,11.5-2.3c3.5-1.5,6.5-3.4,8.9-5.6s4.3-4.6,5.5-7.1C305.6,311.6,306.1,309.3,305.6,307.4z
		 M280.8,324.5c2.1-4.9,4.1-9,6.1-12.2c2-3.2,3.9-5.8,5.6-7.7c1.8-1.9,3.4-3.3,4.9-4.1c1.5-0.8,2.8-1.3,3.9-1.6
		c1.1-0.2,2-0.3,2.8-0.2c0.7,0.1,1.3,0.2,1.5,0.2c-2.6-1.1-5.2-1-7.7,0.3c-2.5,1.3-4.8,3.2-6.9,5.8c-2.1,2.6-4.1,5.7-5.8,9.2
		C283.6,317.7,282.1,321.1,280.8,324.5z M282.7,326.1c0.3-0.7,0.7-1.7,1.3-3c0.6-1.3,1.2-2.7,1.9-4.2c0.7-1.5,1.3-2.9,1.9-4.2
		c0.6-1.3,1-2.2,1.3-2.8c-0.3,0.3-0.9,1-1.6,2.3c-0.7,1.3-1.4,2.7-2.1,4.2c-0.7,1.6-1.3,3.1-1.9,4.6
		C282.9,324.4,282.7,325.5,282.7,326.1z M286,323.3c1.5-3.3,3.2-6.4,5.1-9.6c1.9-3.1,4.3-6.1,7.3-8.8c-0.7,0.2-1.5,0.7-2.5,1.5
		c-1,0.8-2,1.9-3.2,3.4c-1.1,1.5-2.3,3.3-3.5,5.5C288.1,317.6,287,320.2,286,323.3z M288.4,323.4c0.3-0.8,1-2.2,2-4.1
		c1-1.9,2.2-3.9,3.5-5.9c1.3-2,2.7-3.8,4.1-5.4c1.4-1.6,2.7-2.5,4-2.8c-1-0.3-2.2,0.1-3.4,1.2c-1.3,1.1-2.5,2.5-3.8,4.3
		c-1.3,1.8-2.5,3.9-3.6,6.1C290.1,319.2,289.1,321.3,288.4,323.4z M301.3,315.3c1.6-2.4,2.5-4.3,2.7-5.8c0.2-1.5-0.1-2.4-0.8-2.7
		c-0.7-0.3-1.8,0.1-3.3,1.1c-1.5,1-3,2.9-4.6,5.6c-0.8,1.4-1.8,3.1-3,5.3c-1.2,2.2-2.4,4.4-3.6,6.6c2.2-0.9,4.4-2.3,6.7-3.9
		C297.7,319.7,299.7,317.7,301.3,315.3z M313.8,312.7c1.1-3,1.2-5.8,0.5-8.6c-0.8-2.7-2.2-4.9-4.3-6.4c-2.1-1.5-4.7-2.2-7.7-2
		c-3,0.2-6.3,1.6-9.8,4.4c3.2-2.2,6.2-3.5,9-3.7c2.8-0.2,5.3,0.4,7.3,1.7c2,1.3,3.5,3.3,4.5,5.8
		C314.2,306.4,314.4,309.3,313.8,312.7z M305.8,315.9c2.2-3.5,3.2-6.5,2.9-9c-0.3-2.5-1.2-4.2-2.7-5.2c-1.6-1-3.5-1.1-5.9-0.4
		c-2.4,0.8-4.5,2.7-6.5,5.6c2.2-2.4,4.4-4,6.6-4.7c2.1-0.7,3.9-0.6,5.2,0.3c1.4,0.9,2.2,2.5,2.4,4.7
		C308,309.6,307.3,312.5,305.8,315.9z M316.2,305.4c-0.5-3.5-1.6-6.1-3.3-7.8c-1.7-1.7-3.4-2.8-5.2-3.3c-1.8-0.5-3.5-0.7-5.1-0.5
		c-1.6,0.2-2.5,0.4-2.9,0.6c1-0.9,2.5-1.4,4.3-1.5c1.9-0.1,3.7,0.2,5.5,1c1.8,0.8,3.4,2.2,4.7,4
		C315.5,299.8,316.2,302.3,316.2,305.4z M300.2,327.3c1.6-0.9,3.2-2.2,4.8-3.9c1.6-1.7,3-3.5,4.1-5.5c1.1-2,1.9-3.9,2.3-5.8
		c0.4-1.9,0.2-3.5-0.6-4.7c0,1.2-0.1,2.4-0.3,3.8c-0.2,1.4-0.7,2.9-1.4,4.6c-0.7,1.7-1.8,3.5-3.2,5.4
		C304.4,323.1,302.5,325.1,300.2,327.3z"/>
	<path class="st3" d="M298.3,356.9c0.1,0.3,0.3,1,0.7,2c0.4,1,1.1,2,2.1,3.2c1,1.1,2.3,2.1,4,3c1.7,0.9,3.9,1.4,6.5,1.5
		c-1.4,0.3-2.9,0.3-4.5-0.1c-1.6-0.4-3-1-4.3-1.9c-1.3-0.9-2.4-2-3.2-3.3C298.8,360,298.3,358.5,298.3,356.9z M331.3,340.4
		c0.1-0.4,0.5-0.6,1-0.7c0.5,0,1.1,0.1,1.6,0.3c0.5,0.2,1,0.5,1.4,0.8c0.4,0.3,0.5,0.7,0.4,1c-0.5,1.5-1.1,2.9-1.6,4.2
		c-0.5,1.3-1.1,2.6-1.5,3.7c-1.6,3.5-3.4,6.4-5.6,8.7c-2.2,2.3-4.5,4.1-6.9,5.3c-2.4,1.2-4.8,1.9-7.2,2.1c-2.4,0.2-4.6-0.1-6.6-0.9
		c-3-1.2-5.1-3.2-6.3-5.9c-1.2-2.7-1.7-5.8-1.6-9.1c0.2-3.3,0.9-6.7,2.3-10.1c1.4-3.4,3.2-6.3,5.4-8.8c2.2-2.5,4.8-4.3,7.7-5.4
		c2.9-1.1,6-1,9.2,0.3c2,0.7,3.3,2,4.1,3.7c0.7,1.7,1,3.7,0.7,5.8c-0.3,2.2-1,4.4-2.1,6.7c-1.2,2.3-2.6,4.4-4.4,6.4
		c-1.8,2-3.8,3.6-6.1,5c-2.3,1.4-4.7,2.1-7.3,2.2l0.6,0.2c0.2,0.1,0.4,0.1,0.5,0.2c0.2,1.4,1,2.3,2.4,2.8c1.4,0.5,3.1,0.6,5,0.1
		c1.9-0.5,3.9-1.6,5.9-3.3c2-1.7,3.8-4.1,5.3-7.2C328.7,346.3,329.9,343.6,331.3,340.4z M301.9,358.1c-0.3,1.2-0.1,2.2,0.5,3.3
		s1.5,1.9,2.7,2.6c1.2,0.7,2.6,1.2,4.3,1.5c1.7,0.3,3.4,0.3,5.3-0.1c-2.6,0.1-4.7-0.2-6.3-0.8c-1.6-0.6-2.9-1.3-3.8-2.1
		c-0.9-0.8-1.6-1.6-2-2.5C302.2,359.1,302,358.5,301.9,358.1z M311.6,334.2c-1.4,1.2-2.6,3-3.8,5.3c-1.2,2.3-2.1,4.8-2.6,7.4
		c-0.6,2.6-0.7,5.1-0.5,7.6c0.2,2.4,1.1,4.4,2.5,5.8c-0.9-1.2-1.4-2.7-1.6-4.4c-0.2-1.7-0.2-3.5,0.1-5.3c0.2-1.8,0.6-3.7,1.2-5.5
		c0.5-1.9,1.1-3.6,1.8-5.1c0.6-1.5,1.3-2.8,1.8-3.9C310.9,335.1,311.4,334.5,311.6,334.2z M313.8,363.4c-1.2,0.1-2.2-0.1-3.2-0.4
		c-1-0.3-1.9-0.8-2.7-1.3c-0.8-0.5-1.5-1.1-2-1.7c-0.5-0.6-0.9-1.2-1-1.6c0,0.9,0.3,1.7,0.9,2.3c0.6,0.7,1.3,1.2,2.2,1.7
		c0.9,0.4,1.9,0.7,2.9,0.9C311.8,363.5,312.8,363.5,313.8,363.4z M325.7,331.5c-0.6-1.6-1.8-2.8-3.5-3.5c-1.7-0.7-3.6-0.8-5.7-0.5
		c-2.1,0.3-4.2,1.2-6.2,2.5s-3.7,3.1-4.9,5.4c1.3-1.9,2.9-3.4,4.8-4.6c1.9-1.2,3.8-2,5.8-2.4c2-0.4,3.9-0.4,5.6,0.1
		C323.3,329,324.7,330,325.7,331.5z M315.3,334c-0.7-0.3-1.6,0.2-2.7,1.4c-1.1,1.2-2.1,2.8-3,4.7c-1,1.9-1.8,3.9-2.5,6
		c-0.7,2.1-1,3.9-1,5.5c1.3-5.4,2.9-9.6,4.7-12.4C312.6,336.3,314.2,334.6,315.3,334z M310.6,359.7c-1.7-0.6-2.7-1.8-3-3.5
		c-0.3-1.7-0.3-3.6,0.1-5.6c0.4-2,0.9-4,1.7-5.8c0.8-1.9,1.4-3.2,1.9-4.1l0.3-0.6l-0.3,0.6c-1.6,3-2.8,5.6-3.6,7.9
		c-0.7,2.3-1.1,4.2-1.1,5.8c0,1.6,0.4,2.8,1.1,3.8C308.5,359.1,309.4,359.6,310.6,359.7z M307.4,338c0.2-0.6,0.7-1.4,1.4-2.4
		c0.7-1,1.6-1.9,2.7-2.9c1.1-0.9,2.4-1.8,3.8-2.4c1.4-0.7,2.9-1,4.6-0.9c-0.9-0.2-1.9-0.2-3.1,0c-1.2,0.2-2.4,0.7-3.6,1.4
		c-1.2,0.7-2.4,1.7-3.4,2.9C308.7,334.8,307.9,336.3,307.4,338z M308,355c2.1,0,4.1-0.5,6.1-1.5c2-1,3.8-2.2,5.4-3.7
		c1.6-1.5,3-3.1,4.1-4.8c1.1-1.7,1.9-3.3,2.3-4.8c-1.2,2.8-2.6,5.1-4.3,7c-1.7,1.9-3.5,3.4-5.3,4.5c-1.8,1.1-3.5,1.9-5,2.5
		C309.9,354.7,308.7,355,308,355z M308.6,361c0.7,1,1.9,1.6,3.4,1.8c1.5,0.2,3.2,0,4.9-0.6c1.7-0.5,3.4-1.4,4.9-2.6
		c1.6-1.2,2.7-2.7,3.6-4.4c-1.6,2.2-3.4,3.9-5.2,4.9c-1.9,1-3.6,1.7-5.2,1.9c-1.6,0.3-3,0.3-4.2-0.1
		C309.6,361.7,308.9,361.4,308.6,361l-0.1-0.1L308.6,361z M319.4,338.7c-0.5,2-1.3,3.7-2.3,5.1c-1,1.4-2.1,2.4-3.2,3.3
		c-1.1,0.8-2.1,1.4-3,1.8c-0.9,0.4-1.5,0.6-1.8,0.7c1.6-0.1,3.1-0.5,4.5-1.4c1.4-0.9,2.5-1.9,3.4-3c0.9-1.1,1.6-2.3,2-3.5
		C319.5,340.5,319.6,339.5,319.4,338.7z M318.3,336.4c-0.4-0.6-1-0.7-1.9-0.2c-0.8,0.5-1.7,1.3-2.6,2.4c-0.9,1.2-1.8,2.6-2.6,4.3
		c-0.8,1.7-1.4,3.5-1.8,5.4c1.4-0.3,2.8-1,4-2.1c1.3-1,2.3-2.2,3.2-3.5c0.9-1.3,1.5-2.5,1.9-3.7C318.8,338,318.7,337.1,318.3,336.4z
		 M327.3,350.9c-1.2,1.7-2.5,3.3-3.8,4.7c-1.3,1.4-2.7,2.6-4.2,3.5c-1.5,0.9-3.1,1.5-4.7,1.7c-1.7,0.3-3.4,0.1-5.3-0.4
		c1.5,0.8,3,1.2,4.7,1c1.6-0.1,3.2-0.6,4.8-1.5c1.6-0.9,3.1-2.1,4.5-3.6C324.8,354.7,326.1,352.9,327.3,350.9z M326.9,335.7
		c0.5-2.2,0.4-4-0.6-5.6c-0.9-1.6-2.2-2.7-4-3.5c-1.7-0.7-3.7-0.9-6-0.6c-2.3,0.3-4.5,1.3-6.7,3c2.2-1.4,4.3-2.2,6.5-2.5
		c2.1-0.3,4-0.1,5.7,0.5c1.7,0.6,3,1.7,3.9,3.2C326.7,331.7,327.1,333.6,326.9,335.7z M322.9,331.2c0.8,1.8,1.2,3.6,1.2,5.4
		c0,1.9-0.5,3.7-1.3,5.4c-0.8,1.7-2,3.3-3.6,4.8c-1.6,1.5-3.5,2.8-5.7,3.9c2.9-1,5.2-2.5,6.9-4.3c1.7-1.9,2.9-3.8,3.6-5.7
		c0.7-2,0.9-3.8,0.7-5.6C324.5,333.3,323.9,332,322.9,331.2z M313.6,336.8c1.7-1.5,3.1-2.1,4.3-1.9c1.2,0.2,1.9,0.9,2.2,2.2
		c0.3,1.3,0.1,2.8-0.6,4.8c-0.7,1.9-2.1,3.9-4.2,5.9c2.8-2.2,4.6-4.4,5.4-6.5c0.7-2.1,0.8-3.7,0.3-5c-0.6-1.3-1.6-2-3-2
		C316.6,334.1,315.1,335,313.6,336.8z M313.7,364.2c1.2,0.3,2.6,0.3,4-0.3c1.5-0.5,2.8-1.3,4.1-2.2c1.3-1,2.5-2.2,3.5-3.6
		c1-1.4,1.8-2.9,2.2-4.4c-1.2,2.4-2.5,4.2-4,5.6c-1.4,1.4-2.8,2.4-4.1,3.2c-1.3,0.7-2.5,1.2-3.6,1.4
		C314.8,364.1,314.1,364.2,313.7,364.2z M322.7,338.7c0.3-2.2,0.2-3.8-0.4-5c-0.6-1.2-1.4-2-2.4-2.3c-1-0.4-2-0.4-3.1,0
		c-1.1,0.4-1.9,1-2.4,2c0.5-0.5,1.2-0.8,2.1-1.1c0.9-0.3,1.9-0.3,2.8,0c0.9,0.3,1.7,0.9,2.4,1.9
		C322.5,335.1,322.8,336.7,322.7,338.7z"/>
</g>
<g id="XMLID_1_">
	<g>
		<path class="st3" d="M472.9,302.9c1.8,30.3-14,57.5-38.7,71.7c-10.6-5.7-22.3-9.5-34.8-11.2c30.7-2,54-28.4,52.2-59.2
			c-1.9-30.8-28.4-54.3-59.2-52.5c-20.9,1.3-38.5,13.9-47,31.5l-19.8-8c11.5-25,36.1-43,65.5-44.8
			C433.7,228,470.3,260.4,472.9,302.9z"/>
		<path class="st3" d="M434.2,374.6c32.6,17.4,54.7,51.7,54.7,91.2c0,57.1-46.3,103.3-103.3,103.3c-46.9,0-86.5-31.2-99.1-74l35,9.2
			c13.1,21.7,36.9,36.3,64.1,36.3c41.3,0,74.8-33.5,74.8-74.8c0-36.6-26.3-67.1-61.1-73.6l-6.3-29.5c2.2,0.2,4.3,0.4,6.5,0.7
			C411.9,365.1,423.6,368.9,434.2,374.6z"/>
		<path class="st3" d="M426.6,502.7c6,5.5,0.6,10.4,0.6,10.4c-3.6,4.3-8-1.5-8-1.5l-33.6-31.1l8.2-8.2L426.6,502.7z"/>
		<path class="st3" d="M420.8,450.3l-3.1,3.1c-8.4,9.7-13.8,8.9-13.8,8.9l-10.1,10.1l-6.9-6.4l10.4-10.4c0,0-0.8-5.4,8.9-13.8
			l3.1-3.1c-0.2,0.3-5.1,10.6,5.8,5.8C410.1,455.5,420.8,450.3,420.8,450.3z"/>
		<polygon class="st3" points="393.8,472.4 385.6,480.6 378.7,474.2 386.9,466 		"/>
		<path class="st3" d="M386.9,466l-8.2,8.2L345,443c-11-10.2-4.5-20-4.5-20L386.9,466z"/>
		<path class="st3" d="M385.6,480.6l-31.1,31.1c-4.5,4.5-7.9,1.2-7.9,1.2s-3.3-3.3,1.2-7.9l30.8-30.8L385.6,480.6z"/>
	</g>
	<g>
		<path class="st4" d="M399.4,363.4c30.7-2,54-28.4,52.2-59.2c-1.9-30.8-28.4-54.3-59.2-52.5c-20.9,1.3-38.5,13.9-47,31.5l-19.8-8
			c11.5-25,36.1-43,65.5-44.8c42.6-2.6,79.2,29.9,81.7,72.4c1.8,30.3-14,57.5-38.7,71.7"/>
		<path class="st4" d="M386.9,466l-46.4-43c0,0-6.5,9.8,4.5,20l33.7,31.2l6.9,6.4l33.6,31.1c0,0,4.4,5.8,8,1.5c0,0,5.4-4.9-0.6-10.4
			l-32.8-30.4L386.9,466z"/>
		<path class="st4" d="M409.2,438.7l-3.1,3.1c-9.8,8.4-8.9,13.8-8.9,13.8L386.9,466l-8.2,8.2L347.8,505c-4.5,4.5-1.2,7.9-1.2,7.9
			s3.3,3.3,7.9-1.2l31.1-31.1l8.2-8.2l10.1-10.1c0,0,5.4,0.8,13.8-8.9l3.1-3.1l19.7-19.5"/>
		<path class="st4" d="M434.6,424.9L415,444.5c-10.9,4.8-6-5.5-5.8-5.8l19.5-19.7"/>
		<path class="st4" d="M420.8,450.3c0,0-10.7,5.3-5.8-5.8"/>
		<path class="st4" d="M399.3,392.2c34.8,6.4,61.1,36.9,61.1,73.6c0,41.3-33.5,74.8-74.8,74.8c-27.2,0-51-14.5-64.1-36.3
			c-6.8-11.3-10.7-24.4-10.7-38.6c0-41.3,33.5-74.8,74.8-74.8C390.3,391,394.9,391.4,399.3,392.2z"/>
		<polyline class="st4" points="392.7,361.4 393,362.7 399.3,392.2 		"/>
		<path class="st4" d="M285.3,494.8l1.2,0.3c12.6,42.8,52.2,74,99.1,74c57.1,0,103.3-46.3,103.3-103.3c0-39.5-22.2-73.8-54.7-91.2
			c-10.6-5.7-22.3-9.5-34.8-11.2c-2.1-0.3-4.3-0.5-6.5-0.7"/>
		<line class="st4" x1="321.5" y1="504.4" x2="286.5" y2="495.1"/>
	</g>
</g>
<polygon class="st4" points="816.3,685.9 309.4,685.9 28.4,175.3 535.3,175.3 "/>
</svg>
