<?xml version="1.0" encoding="utf-8"?>
<!-- Generator: Adobe Illustrator 22.0.1, SVG Export Plug-In . SVG Version: 6.00 Build 0)  -->
<svg version="1.1" id="Capa_1" xmlns="http://www.w3.org/2000/svg" xmlns:xlink="http://www.w3.org/1999/xlink" x="0px" y="0px"
	 viewBox="0 0 850.4 425.2" style="enable-background:new 0 0 850.4 425.2;" xml:space="preserve">
<style type="text/css">
	.st0{display:none;fill:#D09275;}
	.st1{enable-background:new    ;}
	.st2{fill:#FFFFFF;}
	.st3{fill:none;}
</style>
<rect x="-1" y="-189" class="st0" width="850.4" height="850.4"/>
<g class="st1">
	<path class="st2" d="M221.5,198.7c2.6-4.5,5.5-7.8,8.5-10c3-2.2,5.9-3.5,8.7-3.9c2.8-0.4,5.3,0,7.5,1.1c2.2,1.1,3.9,2.8,5.1,4.9
		c1.2,2.2,1.7,4.7,1.5,7.7c-0.2,2.9-1.4,6-3.5,9.3c-3.9,6-8.5,10.4-13.6,13.4c-5.2,3-10.5,4.8-16.1,5.6c-2.8,4.3-5.9,8.5-9.2,12.7
		c-3.4,4.2-7.1,7.9-11.2,11.1c3.3,1.2,6.6,2.2,9.9,3.2c3.3,0.9,6.3,1.6,8.9,2c2.7,0.4,4.9,0.5,6.8,0.3c1.9-0.2,3.1-0.9,3.7-2.1
		c0.1,0.7-0.2,1.7-0.7,2.8c-0.5,1.1-1.5,2.1-2.8,3c-1.4,0.9-3.1,1.5-5.3,1.9c-2.2,0.4-4.8,0.2-7.9-0.7c0.6,0.3,1.5,0.6,2.5,0.8
		c1.1,0.2,2.2,0.3,3.4,0.4c1.2,0.1,2.3,0.1,3.5-0.1s2-0.3,2.8-0.6c-1.8,2.6-4.9,4-9.1,4c-3.3,0-7.5-0.7-12.6-2
		c-5.1-1.3-10.5-3.1-16.3-5.3c-2.9,1.1-5.9,1.8-9.1,2.1c-3.2,0.3-6.5,0.1-9.9-0.6c-3.7-0.7-6.4-1.8-8.3-3.3c-1.9-1.5-3.1-3-3.5-4.8
		c-0.4-1.7-0.2-3.4,0.7-5c0.9-1.6,2.2-3,4.1-4.1s4.1-1.8,6.7-2c2.6-0.2,5.6,0.2,8.7,1.3c1.2,0.5,2.6,1,4.1,1.6
		c1.5,0.6,3,1.1,4.5,1.7c1.5,0.5,2.9,1.1,4.3,1.6c1.4,0.5,2.5,1,3.5,1.3c-0.1-0.1-0.5-0.4-1-0.8c-0.3-0.2-0.5-0.4-0.7-0.5
		c2.9-2.6,5.7-5.6,8.2-9c2.6-3.5,5-7,7.4-10.8c-3.9-0.5-7.7-1.5-11.3-2.7c-3.6-1.3-6.9-2.8-9.9-4.6c-3-1.8-5.6-3.8-7.7-5.9
		c-2.2-2.1-3.8-4.3-4.8-6.5c-0.2-0.5,0-1.4,0.6-2.8c0.6-1.4,1.4-2.8,2.3-4.3c0.9-1.5,1.8-2.8,2.8-4c0.9-1.2,1.7-1.7,2.3-1.7
		c4.1-0.1,8,0.1,11.7,0.4c3.7,0.3,6.9,0.9,9.6,1.7c2.7,0.8,4.8,1.8,6.2,3s2,2.7,1.7,4.4c-0.5-0.5-1.9-0.9-4.2-1.4
		c-2.3-0.4-5.2-0.4-8.7,0.2h0.1c3,0.1,5.4,0.3,7.1,0.6c1.7,0.3,2.8,0.7,3.6,1.2c0.7,0.4,1.1,0.9,1.1,1.4c0,0.5,0,0.8-0.2,1.1
		c-0.3-0.9-2.3-1.6-5.9-1.9c-3.6-0.3-8.5-0.4-14.7-0.2c3.1,3,6.8,5.5,11,7.7c4.2,2.1,8.6,3.5,13.2,4.2c1.8-3.3,3.6-6.4,5.2-9.5
		C218.3,204.1,219.9,201.3,221.5,198.7z M156.7,247.4c-1,1.8-1,3.6-0.1,5.3c1,1.7,2.6,3.1,4.8,4.3c2.2,1.2,4.9,2,8.1,2.4
		c3.2,0.4,6.4,0.3,9.7-0.4c-2.5,0.3-5.2,0.3-8,0c-2.8-0.3-5.4-0.8-7.7-1.7c-2.3-0.9-4.1-2.1-5.5-3.8
		C156.8,251.9,156.3,249.8,156.7,247.4z M174.4,241.1c-2-0.8-3.8-1.2-5.6-1.3c-1.8,0-3.4,0.1-4.8,0.4c-1.4,0.3-2.6,0.7-3.7,1.3
		c-1,0.6-1.8,1.1-2.2,1.5c1.2-1.4,2.6-2.3,4.2-2.9c1.6-0.6,3.1-0.9,4.7-1c1.6-0.1,3,0.1,4.3,0.5S173.7,240.5,174.4,241.1z
		 M185.2,250.9c-7.2-4-13.1-6.2-17.8-6.5c-4.7-0.3-7.4,1-8.1,4.1c0.4-0.5,1.1-1.2,2-1.8c0.9-0.7,2.3-1.1,4.2-1.2
		c1.9-0.1,4.4,0.2,7.5,0.9C176.1,247.1,180.2,248.6,185.2,250.9z M195,250.8c-4.5-2.2-8.5-3.9-11.7-5.2c-3.3-1.3-6.1-2.3-8.4-2.9
		c-2.3-0.6-4.2-1-5.6-1.2c-1.5-0.1-2.6-0.1-3.6,0.1c-0.9,0.2-1.6,0.4-2.1,0.7c-0.5,0.3-0.9,0.6-1.2,0.8c1.7-0.9,3.9-1.2,6.7-0.9
		c2.7,0.4,5.7,1.1,8.7,2.1c3.1,1,6.1,2.2,9.2,3.5S192.7,250,195,250.8z M163,253.7c-0.1-0.5,0.1-1.1,0.6-1.8
		c0.4-0.7,1.2-1.3,2.2-1.8c1-0.5,2.4-0.7,4.1-0.7c1.7,0,3.8,0.6,6.3,1.6c-2.2-1.3-4.3-2-6.1-2.2c-1.9-0.2-3.4,0-4.6,0.4
		c-1.2,0.4-2.1,1.1-2.5,2C162.5,252,162.5,252.9,163,253.7z M177.5,255.1c-0.6,0.3-1.6,0.6-2.9,0.8c-1.4,0.2-2.7,0.2-4.2,0.2
		c-1.4,0-2.7-0.2-3.8-0.6c-1.1-0.4-1.7-1-1.7-1.8c-0.4,0.9-0.2,1.6,0.7,2.1c0.9,0.5,2,0.8,3.5,1c1.4,0.1,2.9,0.1,4.5-0.2
		C175.1,256.3,176.4,255.9,177.5,255.1z M169.8,255.1c1.2,0.1,2.5,0,3.7-0.2c1.3-0.2,2.5-0.4,3.6-0.8c-2.6-1.2-4.8-1.8-6.6-1.9
		c-1.8-0.1-3.1,0.1-3.9,0.5c-0.8,0.4-0.9,0.9-0.5,1.4C166.7,254.7,167.9,255,169.8,255.1z M168,257.4c0.5,0.3,1.4,0.6,2.7,0.7
		s2.7,0.1,4.2-0.1c1.5-0.1,2.8-0.3,4-0.6c1.2-0.3,2-0.6,2.2-0.9c-1,0.3-2.2,0.5-3.5,0.7c-1.3,0.2-2.6,0.3-3.8,0.4
		c-1.3,0.1-2.4,0.1-3.5,0.1C169.3,257.7,168.6,257.6,168,257.4z M169.6,251.2c1.3,0.1,4,0.9,8.1,2.5c4.1,1.6,9.6,3.9,16.4,6.9
		c-2.2-1.1-4.6-2.3-7.3-3.6c-2.7-1.3-5.3-2.5-7.8-3.5c-2.5-1-4.6-1.8-6.4-2.2C170.8,250.8,169.8,250.8,169.6,251.2z M197.6,258.4
		c-3-1.5-6-2.9-9-4.3c-2.9-1.4-5.6-2.6-8.1-3.5c-2.4-0.9-4.6-1.7-6.4-2.2c-1.8-0.5-3-0.7-3.7-0.5c1.2,0.1,4.3,1.1,9.1,3
		C184.4,252.8,190.4,255.2,197.6,258.4z M174,203.2c-1,2-1,3.8-0.1,5.5c1,1.7,2.6,3.6,4.9,5.7c-1.2-1.3-2.1-2.4-2.8-3.4
		c-0.7-0.9-1.2-1.8-1.6-2.6c-0.3-0.8-0.5-1.6-0.6-2.4C173.8,205.1,173.9,204.2,174,203.2z M175.8,200.7c-0.4,2.8-0.2,5.3,0.7,7.5
		c0.9,2.2,2.1,4.1,3.6,5.8c1.5,1.7,3.2,3,5,4.2c1.8,1.1,3.4,2,4.8,2.7c-3.6-2-6.4-4.1-8.3-6.2c-1.9-2.1-3.3-4.1-4.2-5.9
		c-0.8-1.9-1.3-3.5-1.5-4.9C175.9,202.4,175.8,201.3,175.8,200.7z M179.9,203.9c-0.2,2,0.6,4.1,2.4,6.3c1.8,2.2,4.2,4.1,7.2,5.9
		c2.9,1.8,6.3,3.2,10,4.3c3.7,1.1,7.4,1.6,11,1.4c-4.7-0.3-8.9-1.2-12.6-2.7c-3.7-1.5-6.9-3.1-9.6-5c-2.6-1.9-4.7-3.8-6.1-5.6
		C180.7,206.5,180,205,179.9,203.9z M208.2,201.8c-0.5-1-1.4-1.9-2.8-2.6c-1.4-0.7-3.1-1.4-5-1.9c-1.9-0.5-3.9-0.9-6-1.2
		c-2.1-0.3-4.2-0.5-6-0.7c-1.9-0.1-3.5-0.2-4.9-0.3c-1.4,0-2.3,0-2.8,0.1c4.7,0.3,8.7,0.6,11.9,1.1c3.2,0.5,5.8,1,7.8,1.6
		c2,0.6,3.6,1.3,4.8,1.9C206.2,200.6,207.3,201.2,208.2,201.8z M220.8,259.4c-1.1,0.3-2.7,0.2-4.8-0.2c-2.1-0.4-4.4-0.9-7-1.7
		c-2.6-0.7-5.3-1.6-8.1-2.6c-2.8-1-5.6-2-8.1-3c-2.6-1-4.9-1.9-7-2.8c-2.1-0.8-3.6-1.5-4.6-2c6.8,3.3,12.6,5.8,17.3,7.6
		c4.7,1.8,8.5,3.2,11.5,4c3,0.8,5.4,1.3,7,1.3C218.6,260.1,219.9,259.9,220.8,259.4z M221.4,219.6c-4.3,0.7-8.2,0.8-11.7,0.4
		c-3.6-0.4-6.7-1.1-9.6-2.1c-2.8-1-5.3-2.3-7.4-3.7c-2.1-1.5-3.9-2.9-5.3-4.3c-1.4-1.4-2.5-2.7-3.3-3.8c-0.8-1.1-1.2-1.9-1.3-2.4
		c0.3,2.2,1.5,4.5,3.8,6.9c2.3,2.4,5.2,4.4,8.7,6.1c3.6,1.7,7.6,2.9,12.1,3.7C212,221.1,216.6,220.9,221.4,219.6z M227.9,222.4
		c-3.5,1-6.9,1.5-10.3,1.6c-3.4,0.1-6.7,0-9.8-0.5c-3.2-0.5-6.1-1.1-8.8-2c-2.7-0.8-5.2-1.8-7.4-2.7c-2.2-1-4-1.9-5.4-2.9
		c-1.4-0.9-2.4-1.7-2.8-2.3c1.1,1.5,2.6,2.9,4.7,4.2c2,1.3,4.4,2.4,7,3.4c2.6,0.9,5.5,1.7,8.5,2.4c3,0.6,6,1,8.9,1.2
		c2.9,0.1,5.8,0,8.4-0.3C223.6,224,225.9,223.3,227.9,222.4z M184.3,197.6c0.7-0.1,1.9,0,3.8,0.2s3.8,0.5,5.9,0.9
		c2.1,0.4,4.2,0.8,6.2,1.2c2,0.4,3.5,0.8,4.5,1.2c-0.7-0.4-2-0.9-4.1-1.5c-2-0.6-4.2-1.2-6.4-1.6c-2.2-0.5-4.3-0.8-6.3-0.9
		C186,196.8,184.7,197,184.3,197.6z M221.4,262.9c-1.3,0.6-3,0.9-5.2,0.8c-2.2-0.1-4.5-0.4-7.1-1c-2.6-0.5-5.2-1.2-7.9-2.1
		c-2.7-0.8-5.2-1.7-7.4-2.5c-2.3-0.8-4.2-1.6-5.8-2.3c-1.6-0.7-2.7-1.2-3.2-1.4c5.6,3,10.5,5.2,14.7,6.7c4.2,1.5,7.8,2.5,10.8,2.9
		c3,0.5,5.4,0.6,7.2,0.3S220.6,263.5,221.4,262.9z M185,202.3c0.4-0.6,1.3-1,2.7-1.3c1.4-0.2,3-0.4,4.8-0.4c1.8,0,3.7,0.1,5.6,0.3
		c1.9,0.2,3.6,0.4,5,0.6c-0.5-0.1-1.3-0.3-2.3-0.6c-1.1-0.2-2.3-0.5-3.7-0.7c-1.4-0.2-2.7-0.4-4.1-0.6c-1.4-0.1-2.7-0.2-3.9-0.1
		c-1.2,0.1-2.2,0.4-2.9,0.8C185.4,200.8,185,201.4,185,202.3z M208.5,199.2c-0.8-1.2-2.2-2.1-4.3-2.8c-2-0.7-4.2-1.3-6.5-1.6
		c-2.3-0.4-4.5-0.6-6.5-0.8c-2-0.1-3.3-0.2-4-0.2c2.7-0.1,5.3-0.1,7.8,0.1c2.5,0.2,4.7,0.5,6.7,0.9c1.9,0.4,3.5,1,4.7,1.8
		C207.6,197.3,208.3,198.2,208.5,199.2z M201.5,204.3c-0.5-0.3-1.5-0.5-2.7-0.7c-1.3-0.2-2.6-0.3-4.1-0.4s-2.8-0.1-4.1,0.1
		c-1.3,0.1-2.1,0.3-2.5,0.7c0.5,0,1.3,0,2.4-0.1c1.1,0,2.3,0,3.7,0c1.3,0,2.6,0.1,4,0.2C199.4,204.2,200.5,204.2,201.5,204.3z
		 M208.6,216.9c-2-0.3-4.2-0.8-6.4-1.7c-2.2-0.9-4.2-1.8-6.1-2.8c-1.9-1-3.5-2-4.8-2.9c-1.4-0.9-2.2-1.6-2.5-2.1
		c0.7,1,1.8,2.1,3.3,3.2c1.5,1.1,3.2,2.2,5.1,3.1c1.9,0.9,3.9,1.7,5.9,2.3C205.1,216.6,206.9,216.9,208.6,216.9z M189.3,252.7
		c0.1,0.3,0.9,0.9,2.4,1.6c1.5,0.7,3.3,1.5,5.4,2.4c2.1,0.8,4.2,1.6,6.4,2.4c2.2,0.7,4,1.3,5.5,1.5c-1.2-0.3-2.7-0.9-4.6-1.6
		c-1.9-0.7-3.9-1.5-5.9-2.4c-2-0.8-3.9-1.6-5.6-2.3C191.1,253.5,189.9,253,189.3,252.7z M208.4,227.6c-0.7,1.2-1.6,2.6-2.7,4.2
		c-1.2,1.7-2.4,3.4-3.8,5.2c-1.4,1.8-2.7,3.6-4.2,5.4c-1.4,1.8-2.7,3.5-4,4.9c1.3-1.2,2.8-2.7,4.4-4.6c1.7-1.9,3.2-3.8,4.7-5.7
		c1.5-1.9,2.7-3.8,3.8-5.5C207.6,229.7,208.2,228.4,208.4,227.6z M194.5,223c1.6,0.8,3.4,1.5,5.6,2c2.2,0.5,4.5,0.9,7,1.1
		c2.5,0.2,5,0.3,7.6,0.3c2.6,0,5-0.3,7.3-0.7c2.3-0.4,4.4-1,6.3-1.8c1.9-0.7,3.4-1.7,4.5-2.9c-2.4,1.8-5.3,3-8.8,3.7
		c-3.5,0.7-7.1,1.1-10.8,1.1c-3.7,0-7.2-0.3-10.5-0.8C199.2,224.4,196.6,223.7,194.5,223z M194.9,249c0.9-0.5,2.2-1.5,3.8-3.1
		c1.6-1.6,3.2-3.4,4.9-5.5c1.7-2.1,3.3-4.2,4.8-6.4c1.5-2.2,2.7-4,3.4-5.6c-0.8,1-2.1,2.6-3.7,4.7c-1.7,2.1-3.4,4.3-5.1,6.5
		c-1.8,2.2-3.4,4.2-4.9,6C196.5,247.4,195.5,248.5,194.9,249z M205.3,230.2c-0.3,0.3-0.9,1-1.7,2.1c-0.8,1.1-1.7,2.3-2.7,3.6
		c-1,1.4-2,2.8-3,4.2c-1,1.5-1.9,2.7-2.5,3.8c0.7-0.7,1.6-1.8,2.6-3.2c1.1-1.4,2.2-2.7,3.2-4.1c1-1.4,2-2.7,2.7-3.9
		C204.7,231.5,205.2,230.7,205.3,230.2z M198.6,249.6c1.8-1.2,3.8-2.8,5.8-4.9c2.1-2,4-4.1,5.7-6.4c1.8-2.2,3.3-4.3,4.7-6.1
		c1.4-1.9,2.2-3.3,2.6-4.3c-1.4,1.8-2.9,3.8-4.5,5.8c-1.7,2-3.3,4-5,5.9c-1.7,1.9-3.4,3.8-5,5.5
		C201.3,246.9,199.9,248.4,198.6,249.6z M214.7,230.2c-0.5,0.1-1.3,0.8-2.4,2.1c-1.1,1.3-2.4,2.8-3.8,4.5c-1.4,1.7-2.8,3.5-4.3,5.3
		c-1.5,1.8-2.8,3.4-4.1,4.6c1.1-0.9,2.3-2,3.7-3.5c1.4-1.5,2.7-3,4-4.6c1.3-1.6,2.6-3.2,3.8-4.7
		C212.8,232.5,213.9,231.2,214.7,230.2z M202.4,263.8c0.2,0.1,1,0.3,2.5,0.7c1.5,0.4,3.2,0.8,5.2,1.1c2,0.3,4,0.4,6.1,0.4
		c2.1-0.1,3.9-0.6,5.4-1.5c-0.7,0.9-1.9,1.6-3.4,1.9c-1.5,0.3-3.1,0.5-4.9,0.4c-1.8-0.1-3.7-0.4-5.6-0.9
		C205.8,265.3,204,264.7,202.4,263.8z M227.2,256.3c-0.8,0.5-1.9,0.8-3.2,0.9s-2.8,0.1-4.4-0.1c-1.6-0.2-3.2-0.4-4.9-0.7
		c-1.7-0.3-3.2-0.6-4.7-1c-1.5-0.4-2.7-0.7-3.9-1s-1.9-0.5-2.3-0.7c6.5,2.2,11.7,3.5,15.7,4.1C223.6,258.3,226.1,257.8,227.2,256.3z
		 M211.4,223c2.5,0.4,5.5,0.4,8.9,0c3.4-0.4,6.8-1.4,10.3-2.9c3.4-1.6,6.6-3.8,9.5-6.8c2.9-2.9,5.2-6.8,6.8-11.5
		c-0.3,0.7-0.8,1.7-1.5,3c-0.7,1.4-1.8,2.8-3.1,4.5c-1.3,1.6-2.9,3.3-4.8,5c-1.9,1.7-4.1,3.2-6.7,4.6c-2.5,1.4-5.4,2.4-8.6,3.3
		C218.9,222.9,215.3,223.2,211.4,223z M227.7,192.5c-1.4,1-2.8,2.6-4.2,4.8c-1.5,2.2-2.8,4.5-4.1,7c-1.3,2.4-2.4,4.7-3.4,6.8
		c-0.9,2.1-1.6,3.6-1.9,4.4c3.3-6.2,6.1-11.2,8.5-15.1C225,196.5,226.7,193.9,227.7,192.5z M242.9,197.6c-0.6,3.8-2.1,7.1-4.4,9.8
		s-4.9,5-7.8,6.7c-2.9,1.7-5.7,3-8.5,3.9c-2.8,0.8-4.9,1.3-6.4,1.3c4.1,0,8-0.8,11.5-2.3c3.5-1.5,6.5-3.4,8.9-5.6s4.3-4.6,5.5-7.1
		C242.9,201.8,243.3,199.5,242.9,197.6z M218.1,214.7c2.1-4.9,4.1-9,6.1-12.2c2-3.2,3.9-5.8,5.6-7.7c1.8-1.9,3.4-3.3,4.9-4.1
		c1.5-0.8,2.8-1.3,3.9-1.6c1.1-0.2,2-0.3,2.8-0.2c0.7,0.1,1.3,0.2,1.5,0.2c-2.6-1.1-5.2-1-7.7,0.3c-2.5,1.3-4.8,3.2-6.9,5.8
		c-2.1,2.6-4.1,5.7-5.8,9.2C220.8,207.9,219.3,211.3,218.1,214.7z M219.9,216.3c0.3-0.7,0.7-1.7,1.3-3c0.6-1.3,1.2-2.7,1.9-4.2
		c0.7-1.5,1.3-2.9,1.9-4.2c0.6-1.3,1-2.2,1.3-2.8c-0.3,0.3-0.9,1-1.6,2.3c-0.7,1.3-1.4,2.7-2.1,4.2c-0.7,1.6-1.3,3.1-1.9,4.6
		C220.2,214.6,219.9,215.7,219.9,216.3z M223.3,213.5c1.5-3.3,3.2-6.4,5.1-9.6c1.9-3.1,4.3-6.1,7.3-8.8c-0.7,0.2-1.5,0.7-2.5,1.5
		c-1,0.8-2,1.9-3.2,3.4c-1.1,1.5-2.3,3.3-3.5,5.5C225.4,207.8,224.3,210.4,223.3,213.5z M225.6,213.6c0.3-0.8,1-2.2,2-4.1
		c1-1.9,2.2-3.9,3.5-5.9c1.3-2,2.7-3.8,4.1-5.4c1.4-1.6,2.7-2.5,4-2.8c-1-0.3-2.2,0.1-3.4,1.2c-1.3,1.1-2.5,2.5-3.8,4.3
		c-1.3,1.8-2.5,3.9-3.6,6.1C227.3,209.4,226.4,211.5,225.6,213.6z M238.6,205.5c1.6-2.4,2.5-4.3,2.7-5.8c0.2-1.5-0.1-2.4-0.8-2.7
		c-0.7-0.3-1.8,0.1-3.3,1.1c-1.5,1-3,2.9-4.6,5.6c-0.8,1.4-1.8,3.1-3,5.3c-1.2,2.2-2.4,4.4-3.6,6.6c2.2-0.9,4.4-2.3,6.7-3.9
		C235,209.9,236.9,207.9,238.6,205.5z M251.1,202.9c1.1-3,1.2-5.8,0.5-8.6c-0.8-2.7-2.2-4.9-4.3-6.4c-2.1-1.5-4.7-2.2-7.7-2
		c-3,0.2-6.3,1.6-9.8,4.4c3.2-2.2,6.2-3.5,9-3.7c2.8-0.2,5.3,0.4,7.3,1.7c2,1.3,3.5,3.3,4.5,5.8
		C251.5,196.6,251.7,199.5,251.1,202.9z M243,206.1c2.2-3.5,3.2-6.5,2.9-9c-0.3-2.5-1.2-4.2-2.7-5.2c-1.6-1-3.5-1.1-5.9-0.4
		c-2.4,0.8-4.5,2.7-6.5,5.6c2.2-2.4,4.4-4,6.6-4.7c2.1-0.7,3.9-0.6,5.2,0.3c1.4,0.9,2.2,2.5,2.4,4.7
		C245.2,199.8,244.6,202.7,243,206.1z M253.5,195.6c-0.5-3.5-1.6-6.1-3.3-7.8c-1.7-1.7-3.4-2.8-5.2-3.3c-1.8-0.5-3.5-0.7-5.1-0.5
		c-1.6,0.2-2.5,0.4-2.9,0.6c1-0.9,2.5-1.4,4.3-1.5c1.9-0.1,3.7,0.2,5.5,1c1.8,0.8,3.4,2.2,4.7,4C252.8,190,253.5,192.5,253.5,195.6z
		 M237.4,217.5c1.6-0.9,3.2-2.2,4.8-3.9c1.6-1.7,3-3.5,4.1-5.5c1.1-2,1.9-3.9,2.3-5.8c0.4-1.9,0.2-3.5-0.6-4.7
		c0,1.2-0.1,2.4-0.3,3.8c-0.2,1.4-0.7,2.9-1.4,4.6c-0.7,1.7-1.8,3.5-3.2,5.4C241.7,213.3,239.8,215.3,237.4,217.5z"/>
	<path class="st2" d="M235.6,247.1c0.1,0.3,0.3,1,0.7,2c0.4,1,1.1,2,2.1,3.2c1,1.1,2.3,2.1,4,3c1.7,0.9,3.9,1.4,6.5,1.5
		c-1.4,0.3-2.9,0.3-4.5-0.1c-1.6-0.4-3-1-4.3-1.9c-1.3-0.9-2.4-2-3.2-3.3C236,250.2,235.6,248.7,235.6,247.1z M268.5,230.6
		c0.1-0.4,0.5-0.6,1-0.7c0.5,0,1.1,0.1,1.6,0.3c0.5,0.2,1,0.5,1.4,0.8c0.4,0.3,0.5,0.7,0.4,1c-0.5,1.5-1.1,2.9-1.6,4.2
		c-0.5,1.3-1.1,2.6-1.5,3.7c-1.6,3.5-3.4,6.4-5.6,8.7c-2.2,2.3-4.5,4.1-6.9,5.3c-2.4,1.2-4.8,1.9-7.2,2.1c-2.4,0.2-4.6-0.1-6.6-0.9
		c-3-1.2-5.1-3.2-6.3-5.9c-1.2-2.7-1.7-5.8-1.6-9.1c0.2-3.3,0.9-6.7,2.3-10.1c1.4-3.4,3.2-6.3,5.4-8.8c2.2-2.5,4.8-4.3,7.7-5.4
		c2.9-1.1,6-1,9.2,0.3c2,0.7,3.3,2,4.1,3.7c0.7,1.7,1,3.7,0.7,5.8c-0.3,2.2-1,4.4-2.1,6.7c-1.2,2.3-2.6,4.4-4.4,6.4
		c-1.8,2-3.8,3.6-6.1,5c-2.3,1.4-4.7,2.1-7.3,2.2l0.6,0.2c0.2,0.1,0.4,0.1,0.5,0.2c0.2,1.4,1,2.3,2.4,2.8c1.4,0.5,3.1,0.6,5,0.1
		c1.9-0.5,3.9-1.6,5.9-3.3c2-1.7,3.8-4.1,5.3-7.2C266,236.5,267.2,233.8,268.5,230.6z M239.2,248.3c-0.3,1.2-0.1,2.2,0.5,3.3
		s1.5,1.9,2.7,2.6c1.2,0.7,2.6,1.2,4.3,1.5c1.7,0.3,3.4,0.3,5.3-0.1c-2.6,0.1-4.7-0.2-6.3-0.8c-1.6-0.6-2.9-1.3-3.8-2.1
		c-0.9-0.8-1.6-1.6-2-2.5C239.5,249.3,239.2,248.7,239.2,248.3z M248.9,224.4c-1.4,1.2-2.6,3-3.8,5.3c-1.2,2.3-2.1,4.8-2.6,7.4
		c-0.6,2.6-0.7,5.1-0.5,7.6c0.2,2.4,1.1,4.4,2.5,5.8c-0.9-1.2-1.4-2.7-1.6-4.4c-0.2-1.7-0.2-3.5,0.1-5.3c0.2-1.8,0.6-3.7,1.2-5.5
		c0.5-1.9,1.1-3.6,1.8-5.1c0.6-1.5,1.3-2.8,1.8-3.9C248.2,225.3,248.6,224.7,248.9,224.4z M251.1,253.6c-1.2,0.1-2.2-0.1-3.2-0.4
		c-1-0.3-1.9-0.8-2.7-1.3c-0.8-0.5-1.5-1.1-2-1.7c-0.5-0.6-0.9-1.2-1-1.6c0,0.9,0.3,1.7,0.9,2.3c0.6,0.7,1.3,1.2,2.2,1.7
		c0.9,0.4,1.9,0.7,2.9,0.9C249.1,253.7,250.1,253.7,251.1,253.6z M262.9,221.7c-0.6-1.6-1.8-2.8-3.5-3.5c-1.7-0.7-3.6-0.8-5.7-0.5
		c-2.1,0.3-4.2,1.2-6.2,2.5s-3.7,3.1-4.9,5.4c1.3-1.9,2.9-3.4,4.8-4.6c1.9-1.2,3.8-2,5.8-2.4c2-0.4,3.9-0.4,5.6,0.1
		C260.6,219.2,261.9,220.2,262.9,221.7z M252.6,224.2c-0.7-0.3-1.6,0.2-2.7,1.4c-1.1,1.2-2.1,2.8-3,4.7c-1,1.9-1.8,3.9-2.5,6
		c-0.7,2.1-1,3.9-1,5.5c1.3-5.4,2.9-9.6,4.7-12.4C249.9,226.5,251.4,224.8,252.6,224.2z M247.9,249.9c-1.7-0.6-2.7-1.8-3-3.5
		c-0.3-1.7-0.3-3.6,0.1-5.6c0.4-2,0.9-4,1.7-5.8c0.8-1.9,1.4-3.2,1.9-4.1l0.3-0.6l-0.3,0.6c-1.6,3-2.8,5.6-3.6,7.9
		c-0.7,2.3-1.1,4.2-1.1,5.8c0,1.6,0.4,2.8,1.1,3.8C245.7,249.3,246.7,249.8,247.9,249.9z M244.6,228.2c0.2-0.6,0.7-1.4,1.4-2.4
		c0.7-1,1.6-1.9,2.7-2.9c1.1-0.9,2.4-1.8,3.8-2.4c1.4-0.7,2.9-1,4.6-0.9c-0.9-0.2-1.9-0.2-3.1,0c-1.2,0.2-2.4,0.7-3.6,1.4
		c-1.2,0.7-2.4,1.7-3.4,2.9C246,225,245.2,226.5,244.6,228.2z M245.3,245.2c2.1,0,4.1-0.5,6.1-1.5c2-1,3.8-2.2,5.4-3.7
		c1.6-1.5,3-3.1,4.1-4.8c1.1-1.7,1.9-3.3,2.3-4.8c-1.2,2.8-2.6,5.1-4.3,7c-1.7,1.9-3.5,3.4-5.3,4.5c-1.8,1.1-3.5,1.9-5,2.5
		C247.1,244.9,246,245.2,245.3,245.2z M245.9,251.2c0.7,1,1.9,1.6,3.4,1.8c1.5,0.2,3.2,0,4.9-0.6c1.7-0.5,3.4-1.4,4.9-2.6
		c1.6-1.2,2.7-2.7,3.6-4.4c-1.6,2.2-3.4,3.9-5.2,4.9c-1.9,1-3.6,1.7-5.2,1.9c-1.6,0.3-3,0.3-4.2-0.1
		C246.9,251.9,246.1,251.6,245.9,251.2l-0.1-0.1L245.9,251.2z M256.6,228.9c-0.5,2-1.3,3.7-2.3,5.1c-1,1.4-2.1,2.4-3.2,3.3
		c-1.1,0.8-2.1,1.4-3,1.8c-0.9,0.4-1.5,0.6-1.8,0.7c1.6-0.1,3.1-0.5,4.5-1.4c1.4-0.9,2.5-1.9,3.4-3c0.9-1.1,1.6-2.3,2-3.5
		C256.7,230.7,256.8,229.7,256.6,228.9z M255.5,226.6c-0.4-0.6-1-0.7-1.9-0.2c-0.8,0.5-1.7,1.3-2.6,2.4c-0.9,1.2-1.8,2.6-2.6,4.3
		c-0.8,1.7-1.4,3.5-1.8,5.4c1.4-0.3,2.8-1,4-2.1c1.3-1,2.3-2.2,3.2-3.5c0.9-1.3,1.5-2.5,1.9-3.7C256,228.2,256,227.3,255.5,226.6z
		 M264.6,241.1c-1.2,1.7-2.5,3.3-3.8,4.7c-1.3,1.4-2.7,2.6-4.2,3.5c-1.5,0.9-3.1,1.5-4.7,1.7c-1.7,0.3-3.4,0.1-5.3-0.4
		c1.5,0.8,3,1.2,4.7,1c1.6-0.1,3.2-0.6,4.8-1.5c1.6-0.9,3.1-2.1,4.5-3.6C262,244.9,263.4,243.1,264.6,241.1z M264.2,225.9
		c0.5-2.2,0.4-4-0.6-5.6c-0.9-1.6-2.2-2.7-4-3.5c-1.7-0.7-3.7-0.9-6-0.6c-2.3,0.3-4.5,1.3-6.7,3c2.2-1.4,4.3-2.2,6.5-2.5
		c2.1-0.3,4-0.1,5.7,0.5c1.7,0.6,3,1.7,3.9,3.2C264,221.9,264.4,223.8,264.2,225.9z M260.2,221.4c0.8,1.8,1.2,3.6,1.2,5.4
		c0,1.9-0.5,3.7-1.3,5.4c-0.8,1.7-2,3.3-3.6,4.8c-1.6,1.5-3.5,2.8-5.7,3.9c2.9-1,5.2-2.5,6.9-4.3c1.7-1.9,2.9-3.8,3.6-5.7
		c0.7-2,0.9-3.8,0.7-5.6C261.7,223.5,261.1,222.2,260.2,221.4z M250.8,227c1.7-1.5,3.1-2.1,4.3-1.9c1.2,0.2,1.9,0.9,2.2,2.2
		c0.3,1.3,0.1,2.8-0.6,4.8c-0.7,1.9-2.1,3.9-4.2,5.9c2.8-2.2,4.6-4.4,5.4-6.5c0.7-2.1,0.8-3.7,0.3-5c-0.6-1.3-1.6-2-3-2
		C253.9,224.3,252.4,225.2,250.8,227z M250.9,254.4c1.2,0.3,2.6,0.3,4-0.3c1.5-0.5,2.8-1.3,4.1-2.2c1.3-1,2.5-2.2,3.5-3.6
		c1-1.4,1.8-2.9,2.2-4.4c-1.2,2.4-2.5,4.2-4,5.6c-1.4,1.4-2.8,2.4-4.1,3.2c-1.3,0.7-2.5,1.2-3.6,1.4
		C252.1,254.3,251.4,254.4,250.9,254.4z M260,228.9c0.3-2.2,0.2-3.8-0.4-5c-0.6-1.2-1.4-2-2.4-2.3c-1-0.4-2-0.4-3.1,0
		c-1.1,0.4-1.9,1-2.4,2c0.5-0.5,1.2-0.8,2.1-1.1c0.9-0.3,1.9-0.3,2.8,0c0.9,0.3,1.7,0.9,2.4,1.9C259.7,225.3,260.1,226.9,260,228.9z
		"/>
</g>
<g class="st1">
	<path class="st2" d="M377.5,190.9c0,0.2,0.2,0.7,0.5,1.4c0.3,0.7,0.8,1.4,1.4,2.2c0.7,0.8,1.6,1.5,2.8,2.1c1.2,0.6,2.7,1,4.5,1
		c-1,0.2-2,0.2-3.1,0c-1.1-0.3-2.1-0.7-3-1.3c-0.9-0.6-1.6-1.4-2.2-2.3C377.8,193,377.5,192,377.5,190.9z M400.2,179.6
		c0.1-0.3,0.3-0.4,0.7-0.5c0.4,0,0.7,0,1.1,0.2c0.4,0.1,0.7,0.3,0.9,0.6c0.3,0.2,0.3,0.5,0.2,0.7c-0.4,1-0.7,2-1.1,2.9
		c-0.4,0.9-0.7,1.8-1,2.6c-1.1,2.4-2.4,4.4-3.9,6c-1.5,1.6-3.1,2.8-4.7,3.6c-1.7,0.8-3.3,1.3-4.9,1.5c-1.6,0.1-3.1-0.1-4.5-0.6
		c-2.1-0.8-3.5-2.2-4.3-4.1c-0.8-1.9-1.2-4-1.1-6.3c0.1-2.3,0.7-4.6,1.6-6.9c1-2.3,2.2-4.4,3.7-6.1c1.5-1.7,3.3-3,5.3-3.7
		c2-0.7,4.1-0.7,6.4,0.2c1.4,0.5,2.3,1.4,2.8,2.6c0.5,1.2,0.7,2.5,0.5,4c-0.2,1.5-0.7,3-1.5,4.6c-0.8,1.6-1.8,3.1-3,4.4
		c-1.2,1.4-2.6,2.5-4.2,3.4c-1.6,0.9-3.3,1.4-5,1.5l0.4,0.1c0.1,0,0.3,0.1,0.4,0.1c0.1,0.9,0.7,1.6,1.7,2c1,0.4,2.1,0.4,3.4,0
		c1.3-0.4,2.7-1.1,4.1-2.3c1.4-1.2,2.6-2.8,3.6-5C398.4,183.6,399.3,181.8,400.2,179.6z M380,191.7c-0.2,0.8-0.1,1.5,0.3,2.2
		c0.4,0.7,1,1.3,1.9,1.8c0.8,0.5,1.8,0.8,2.9,1c1.1,0.2,2.4,0.2,3.7,0c-1.8,0-3.2-0.1-4.3-0.6c-1.1-0.4-2-0.9-2.6-1.5
		c-0.6-0.6-1.1-1.1-1.4-1.7C380.2,192.4,380,192,380,191.7z M386.7,175.3c-0.9,0.8-1.8,2.1-2.6,3.7c-0.8,1.6-1.4,3.3-1.8,5.1
		c-0.4,1.8-0.5,3.5-0.4,5.2c0.2,1.7,0.7,3,1.7,4c-0.6-0.8-1-1.8-1.1-3c-0.1-1.2-0.1-2.4,0-3.6c0.2-1.3,0.4-2.5,0.8-3.8
		c0.4-1.3,0.8-2.5,1.2-3.5c0.4-1,0.9-1.9,1.3-2.7C386.2,175.9,386.5,175.5,386.7,175.3z M388.2,195.4c-0.8,0-1.5,0-2.2-0.3
		c-0.7-0.2-1.3-0.5-1.9-0.9c-0.6-0.4-1-0.7-1.4-1.2c-0.4-0.4-0.6-0.8-0.7-1.1c0,0.6,0.2,1.1,0.6,1.6c0.4,0.5,0.9,0.9,1.5,1.2
		c0.6,0.3,1.3,0.5,2,0.6C386.8,195.5,387.5,195.5,388.2,195.4z M396.4,173.4c-0.4-1.1-1.2-1.9-2.4-2.4c-1.2-0.5-2.5-0.6-4-0.3
		c-1.4,0.2-2.9,0.8-4.3,1.7s-2.5,2.2-3.4,3.7c0.9-1.3,2-2.4,3.3-3.2c1.3-0.8,2.6-1.4,4-1.6c1.4-0.3,2.7-0.3,3.9,0.1
		C394.7,171.7,395.7,172.4,396.4,173.4z M389.2,175.1c-0.5-0.2-1.1,0.1-1.9,1c-0.7,0.8-1.4,1.9-2.1,3.2c-0.7,1.3-1.2,2.7-1.7,4.1
		c-0.5,1.4-0.7,2.7-0.7,3.8c0.9-3.7,2-6.6,3.3-8.5C387.4,176.8,388.4,175.6,389.2,175.1z M386,192.9c-1.2-0.4-1.9-1.2-2.1-2.4
		c-0.2-1.2-0.2-2.5,0.1-3.8c0.3-1.4,0.7-2.7,1.2-4c0.5-1.3,1-2.2,1.3-2.8l0.2-0.4l-0.2,0.4c-1.1,2.1-1.9,3.9-2.5,5.4
		c-0.5,1.6-0.8,2.9-0.7,4c0,1.1,0.3,2,0.7,2.6C384.5,192.4,385.2,192.8,386,192.9z M383.8,177.9c0.1-0.4,0.5-1,0.9-1.6
		c0.5-0.7,1.1-1.3,1.9-2c0.8-0.7,1.6-1.2,2.6-1.7c1-0.5,2-0.7,3.1-0.6c-0.6-0.1-1.3-0.1-2.1,0c-0.8,0.1-1.6,0.5-2.5,0.9
		c-0.8,0.5-1.6,1.2-2.3,2C384.7,175.7,384.1,176.7,383.8,177.9z M384.2,189.6c1.4,0,2.9-0.3,4.2-1c1.4-0.7,2.6-1.5,3.7-2.6
		c1.1-1,2.1-2.1,2.8-3.3c0.8-1.2,1.3-2.3,1.6-3.3c-0.8,1.9-1.8,3.5-3,4.8s-2.4,2.3-3.6,3.1c-1.2,0.8-2.4,1.3-3.4,1.7
		C385.5,189.4,384.7,189.6,384.2,189.6z M384.6,193.8c0.5,0.7,1.3,1.1,2.3,1.2c1,0.1,2.2,0,3.4-0.4c1.2-0.4,2.3-1,3.4-1.8
		c1.1-0.8,1.9-1.8,2.5-3c-1.1,1.5-2.3,2.7-3.6,3.4c-1.3,0.7-2.5,1.1-3.6,1.3c-1.1,0.2-2.1,0.2-2.9,0
		C385.3,194.2,384.8,194,384.6,193.8L384.6,193.8L384.6,193.8z M392,178.4c-0.4,1.4-0.9,2.6-1.6,3.5c-0.7,0.9-1.4,1.7-2.2,2.2
		c-0.7,0.6-1.4,1-2.1,1.3c-0.6,0.3-1,0.4-1.2,0.5c1.1,0,2.1-0.4,3.1-1c0.9-0.6,1.7-1.3,2.3-2.1c0.6-0.8,1.1-1.6,1.4-2.4
		C392.1,179.6,392.2,178.9,392,178.4z M391.3,176.8c-0.3-0.4-0.7-0.5-1.3-0.1c-0.6,0.3-1.2,0.9-1.8,1.7c-0.6,0.8-1.2,1.8-1.8,3
		c-0.6,1.2-1,2.4-1.3,3.7c1-0.2,1.9-0.7,2.8-1.4c0.9-0.7,1.6-1.5,2.2-2.4c0.6-0.9,1-1.7,1.3-2.6
		C391.6,177.9,391.6,177.2,391.3,176.8z M397.5,186.8c-0.8,1.2-1.7,2.2-2.6,3.2c-0.9,1-1.8,1.8-2.9,2.4c-1,0.6-2.1,1-3.3,1.2
		c-1.1,0.2-2.4,0.1-3.7-0.3c1,0.6,2.1,0.8,3.2,0.7c1.1-0.1,2.2-0.4,3.3-1c1.1-0.6,2.1-1.4,3.1-2.5S396.6,188.2,397.5,186.8z
		 M397.2,176.3c0.4-1.5,0.2-2.8-0.4-3.9c-0.6-1.1-1.5-1.9-2.7-2.4s-2.6-0.6-4.1-0.4c-1.6,0.2-3.1,0.9-4.6,2.1c1.5-0.9,3-1.5,4.4-1.7
		c1.5-0.2,2.8-0.1,3.9,0.3c1.1,0.4,2,1.2,2.7,2.2C397.1,173.6,397.3,174.8,397.2,176.3z M394.5,173.2c0.6,1.2,0.8,2.5,0.8,3.7
		c0,1.3-0.3,2.5-0.9,3.7c-0.6,1.2-1.4,2.3-2.5,3.3c-1.1,1-2.4,1.9-3.9,2.7c2-0.7,3.6-1.7,4.8-3c1.2-1.3,2-2.6,2.5-4
		c0.5-1.4,0.6-2.6,0.5-3.8C395.5,174.6,395.1,173.7,394.5,173.2z M388,177c1.2-1,2.2-1.5,3-1.3c0.8,0.1,1.3,0.6,1.5,1.5
		s0.1,2-0.4,3.3c-0.5,1.3-1.4,2.7-2.9,4.1c2-1.5,3.2-3,3.7-4.4c0.5-1.4,0.6-2.6,0.2-3.5c-0.4-0.9-1.1-1.4-2.1-1.4
		C390.1,175.2,389.1,175.8,388,177z M388.1,195.9c0.8,0.2,1.8,0.2,2.8-0.2c1-0.4,1.9-0.9,2.8-1.5c0.9-0.7,1.7-1.5,2.4-2.5
		c0.7-1,1.2-2,1.5-3c-0.8,1.6-1.8,2.9-2.7,3.8c-1,0.9-1.9,1.7-2.8,2.2c-0.9,0.5-1.7,0.8-2.4,1C388.9,195.9,388.4,195.9,388.1,195.9z
		 M394.3,178.4c0.2-1.5,0.1-2.6-0.3-3.5c-0.4-0.8-1-1.4-1.6-1.6c-0.7-0.3-1.4-0.3-2.1,0c-0.7,0.3-1.3,0.7-1.7,1.4
		c0.3-0.3,0.8-0.6,1.5-0.8c0.7-0.2,1.3-0.2,1.9,0s1.2,0.6,1.7,1.3C394.2,175.9,394.4,177,394.3,178.4z M394.1,163.9
		c0.1,0.3,0.3,0.6,0.7,0.9c0.4,0.3,0.8,0.7,1.4,1c0.6,0.3,1.2,0.6,2,0.9c0.7,0.3,1.5,0.5,2.4,0.6c-0.7,0.6-1.4,1-2.2,1.2
		c-0.8,0.2-1.6,0.2-2.4,0.2s-1.5-0.3-2.1-0.6c-0.6-0.3-1.1-0.6-1.4-1c-0.1-0.4-0.1-0.7,0-1c0.1-0.3,0.2-0.6,0.4-0.9
		c0,0.1,0.1,0.3,0.3,0.6c0.2,0.3,0.4,0.5,0.5,0.6c-0.3-0.5-0.4-0.9-0.4-1.2c0-0.3,0.1-0.6,0.2-0.9c0.1-0.2,0.3-0.4,0.5-0.5
		C394,163.7,394.1,163.7,394.1,163.9z M392.8,165.9c0,0.4,0.2,0.7,0.6,1c0.4,0.3,0.8,0.5,1.4,0.7c0.6,0.2,1.2,0.4,1.8,0.4
		c0.7,0.1,1.3,0.1,1.8,0c-0.1,0-0.4,0-0.9-0.1c-0.4,0-0.9-0.1-1.5-0.3c-0.6-0.1-1.1-0.3-1.7-0.6
		C393.7,166.7,393.2,166.4,392.8,165.9z M393.7,164.4c-0.1,0.5,0,0.9,0.3,1.3c0.3,0.4,0.8,0.7,1.3,1c0.5,0.3,1.1,0.5,1.8,0.7
		c0.6,0.2,1.2,0.2,1.7,0.2c-1.2-0.2-2.2-0.5-2.8-0.9c-0.7-0.4-1.2-0.7-1.5-1c-0.3-0.3-0.5-0.6-0.6-0.8
		C393.7,164.6,393.7,164.5,393.7,164.4z M399.6,167.3c-1.3-0.2-2.4-0.6-3.3-1.1c-0.9-0.5-1.5-0.9-1.8-1.2c0,0.2,0.3,0.5,0.6,0.8
		c0.4,0.3,0.8,0.5,1.4,0.8c0.5,0.2,1.1,0.4,1.6,0.6C398.7,167.2,399.2,167.3,399.6,167.3z M394.6,166.5c0,0.1,0,0.3,0.2,0.4
		c0.2,0.1,0.4,0.2,0.6,0.3c0.3,0.1,0.5,0.2,0.8,0.2c0.3,0,0.5,0,0.6,0c-0.4-0.1-0.8-0.2-1.2-0.4
		C395.1,166.8,394.8,166.7,394.6,166.5z"/>
	<path class="st2" d="M429.9,179.6c0.1-0.3,0.3-0.4,0.7-0.5c0.3,0,0.7,0,1.1,0.2c0.4,0.1,0.7,0.3,0.9,0.6c0.3,0.2,0.3,0.5,0.2,0.7
		c-0.8,2-1.5,3.7-2.2,5.2c-0.7,1.5-1.3,2.9-2,4.1c-0.4,0.8-0.8,1.5-1.2,2.2c-0.4,0.7-0.8,1.3-1.2,1.8c-1.4,2-2.8,3.3-4.3,3.7
		c-1.5,0.5-2.9,0.5-4.2,0.1c-1.1-0.3-2-0.9-2.7-1.6c-0.7-0.7-1.2-1.8-1.3-3.3c-0.1-1.4,0.2-3.3,0.8-5.6c0.7-2.3,1.9-5.1,3.8-8.6
		c-0.8,1.2-1.7,2.3-2.5,3.5c-0.8,1.2-1.6,2.5-2.4,3.9c-0.8,1.4-1.6,2.9-2.5,4.5c-0.8,1.6-1.7,3.5-2.6,5.6c-0.3,0-0.7,0-1.2-0.1
		c-0.5-0.1-1-0.3-1.5-0.5c-0.5-0.2-0.9-0.4-1.3-0.6c-0.4-0.2-0.7-0.4-0.8-0.5c0.5-1.8,1.3-4.1,2.4-6.9c1.1-2.8,2.4-5.7,3.7-8.7
		c-0.8,1.2-1.7,2.5-2.5,3.9c-0.8,1.4-1.6,2.8-2.5,4.2c-0.8,1.4-1.6,2.9-2.4,4.4c-0.8,1.5-1.5,2.9-2.2,4.2c0,0.1-0.4,0.1-1.2,0
		c-0.7-0.1-1.5-0.4-2.3-0.7c-0.8-0.3-1.5-0.7-2.1-1.2c-0.6-0.4-0.8-0.9-0.6-1.4c0.1-0.4,0.4-1.1,0.9-2.1c0.5-1,1-2.3,1.6-3.7
		c0.6-1.4,1.3-2.9,2-4.4s1.4-3,2-4.3s1.1-2.5,1.6-3.5c0.4-1,0.7-1.6,0.9-1.9c0.3-0.5,0.7-1,1.2-1.4c0.5-0.4,1-0.8,1.6-1.1
		c0.6-0.3,1.2-0.5,1.9-0.6c0.7-0.1,1.3-0.1,1.9,0c-0.3,0.2-0.6,0.7-0.9,1.3c-0.3,0.6-0.6,1.2-0.7,1.6c0.6-0.8,1.2-1.4,1.7-1.8
		c0.5-0.4,1-0.7,1.4-0.8c0.4-0.1,0.7-0.2,0.9-0.2c0.3,0,0.4,0.1,0.5,0.1c-0.4,0.4-0.9,1-1.5,1.9c-0.6,0.9-1.3,1.9-2,3
		c-0.7,1.2-1.5,2.4-2.2,3.8c-0.7,1.4-1.4,2.7-2,4.1c1.1-1.7,2.1-3.3,3.2-4.8c1-1.5,2-2.8,2.9-4c0.9-1.2,1.8-2.1,2.6-2.9
		c0.8-0.8,1.5-1.3,2-1.6c0.5-0.3,1.1-0.5,1.9-0.5c0.7-0.1,1.4-0.1,2.1,0c0.7,0.1,1.2,0.3,1.5,0.5c0.4,0.3,0.4,0.5,0,0.9
		c-0.9,1.1-1.9,2.3-2.9,3.6c-1,1.4-2,2.8-2.9,4.3c-0.9,1.5-1.8,3-2.6,4.5c-0.8,1.5-1.5,3-2.1,4.4c0.7-1.3,1.5-2.6,2.4-4
		c0.9-1.4,1.8-2.8,2.8-4.2c1-1.4,2.1-2.8,3.2-4.1s2.2-2.5,3.4-3.6c0.6-0.4,1.4-0.7,2.5-0.9c1.1-0.2,2-0.2,2.9-0.1
		c0.9,0.1,1.6,0.4,2.1,0.7c0.5,0.4,0.6,0.9,0.1,1.5c-2.9,4.4-5.2,8.3-6.8,11.7c-1.6,3.4-2.5,6.1-2.8,7.9c-0.1,0.8-0.1,1.4,0.2,1.8
		c0.3,0.4,0.6,0.5,1.2,0.3c0.5-0.2,1.2-0.9,2-1.9c0.8-1,1.7-2.5,2.7-4.6c0.5-1.1,1.1-2.3,1.6-3.5
		C428.5,182.6,429.2,181.2,429.9,179.6z M405.5,182.1c-0.5,0.3-1.1,1-1.8,2.2c-0.7,1.2-1.5,2.5-2.2,3.9c-0.7,1.4-1.4,2.7-2,4
		c-0.6,1.3-1,2.2-1.1,2.8c0.4-0.7,0.9-1.7,1.5-2.9c0.7-1.2,1.3-2.5,2-3.7c0.7-1.3,1.4-2.5,2-3.6
		C404.6,183.6,405.2,182.7,405.5,182.1z M399.7,194.5c0.1-0.2,0.4-0.7,0.8-1.4c0.4-0.7,0.9-1.5,1.4-2.3c0.5-0.8,1-1.7,1.4-2.5
		c0.4-0.8,0.8-1.4,0.9-1.7c-0.2,0.2-0.5,0.6-0.9,1.2c-0.4,0.6-0.8,1.3-1.3,2c-0.4,0.8-0.9,1.6-1.3,2.4
		C400.3,193.1,399.9,193.9,399.7,194.5z M411.6,169.9c-0.3,0.1-0.9,0.8-1.9,2c-0.9,1.2-1.9,2.6-2.9,4.2c-1,1.6-1.9,3.3-2.8,5
		c-0.9,1.7-1.4,3.1-1.7,4.3c0.2-0.6,0.6-1.4,1.1-2.3c0.5-1,1-2,1.6-3c0.6-1,1.2-2.1,1.9-3.2c0.7-1.1,1.3-2.1,1.9-3
		c0.6-0.9,1.2-1.7,1.6-2.4C411,170.6,411.4,170.1,411.6,169.9z M408.4,169.9c-0.2,0-0.5,0.3-1,1c-0.5,0.7-1,1.5-1.6,2.5
		c-0.6,1-1.1,1.9-1.5,2.9c-0.4,1-0.7,1.7-0.7,2.2c0.1-0.3,0.4-0.8,0.9-1.7c0.4-0.8,0.9-1.7,1.4-2.7c0.5-0.9,1-1.8,1.5-2.6
		C407.9,170.7,408.2,170.1,408.4,169.9z M407.3,170.4c-0.1,0.1-0.4,0.3-0.7,0.7c-0.3,0.4-0.7,0.8-1,1.4c-0.4,0.5-0.7,1.1-0.9,1.8
		c-0.3,0.7-0.5,1.3-0.6,2c0.1-0.3,0.3-0.8,0.6-1.3c0.3-0.6,0.6-1.1,0.9-1.7c0.3-0.6,0.7-1.1,1-1.6
		C406.8,171,407.1,170.6,407.3,170.4z M404.6,185.9c0.3-0.6,0.8-1.4,1.5-2.7c0.7-1.2,1.5-2.5,2.3-3.8c0.8-1.3,1.7-2.5,2.4-3.7
		c0.8-1.1,1.4-1.9,1.9-2.4c-0.7,0.6-1.4,1.4-2.2,2.4c-0.8,1-1.6,2.2-2.4,3.4c-0.8,1.2-1.5,2.4-2.2,3.6
		C405.4,184,404.9,185,404.6,185.9z M419.2,170.5c-0.8-0.2-1.7,0.1-2.7,0.9c-1,0.8-1.9,2-2.9,3.4c-1,1.4-1.9,3-2.8,4.8
		c-0.9,1.8-1.7,3.5-2.4,5.2c-0.7,1.7-1.3,3.1-1.8,4.4c-0.5,1.3-0.8,2.1-0.9,2.5c2.9-6.6,5.4-11.6,7.5-15.1
		C415.1,173,417.2,171,419.2,170.5z M420.7,169.7c-0.1-0.1-0.3-0.2-0.7-0.4c-0.4-0.2-0.8-0.2-1.4-0.2c-0.6,0-1.3,0.2-2.1,0.5
		c-0.8,0.3-1.8,1-2.8,1.9c-1.1,0.9-2.3,2.2-3.5,3.8c-1.3,1.6-2.7,3.8-4.2,6.4c1.7-2.7,3.2-4.8,4.6-6.5c1.4-1.7,2.7-3,3.9-3.9
		s2.3-1.5,3.3-1.7C418.7,169.3,419.7,169.4,420.7,169.7z M406.4,194.9c1.4-3.8,2.8-7.1,4.1-9.8c1.3-2.7,2.5-4.9,3.6-6.7
		c1.1-1.8,2-3.1,2.8-4.1c0.7-0.9,1.2-1.5,1.5-1.8c-1.2,0.8-2.3,2.1-3.5,3.9c-1.2,1.8-2.3,3.7-3.3,5.9c-1.1,2.2-2,4.4-2.9,6.6
		C407.7,191.2,407,193.2,406.4,194.9z M408.3,195.5c0.2-0.5,0.5-1.2,0.9-2.1c0.4-0.9,1-2,1.6-3.2c0.6-1.2,1.3-2.4,2-3.7
		c0.7-1.3,1.4-2.5,2.2-3.6c-0.5,0.6-1.1,1.4-1.7,2.4c-0.6,1-1.3,2.1-1.9,3.2c-0.6,1.2-1.2,2.4-1.8,3.6
		C409,193.3,408.6,194.4,408.3,195.5z M408.8,192.2c1-2.2,2.2-4.4,3.4-6.5c1.3-2.1,2.6-4.1,3.9-6c1.3-1.9,2.6-3.6,3.9-5.1
		c1.3-1.5,2.5-2.8,3.6-3.9c-1.1,0.7-2.4,1.8-3.8,3.5c-1.5,1.7-3,3.6-4.4,5.7c-1.4,2.1-2.8,4.3-4,6.5
		C410.1,188.8,409.3,190.6,408.8,192.2z M413.4,193.1c0,0.2,0.1,0.5,0.2,0.9c0.1,0.4,0.2,0.9,0.5,1.3c0.3,0.5,0.7,0.9,1.3,1.4
		c0.6,0.5,1.4,0.9,2.4,1.2c-0.6,0-1.1-0.2-1.8-0.5c-0.6-0.3-1.1-0.7-1.6-1.2c-0.5-0.5-0.8-1-1-1.6
		C413.1,194.2,413.1,193.6,413.4,193.1z M414.9,195.2c-0.4-1.4-0.5-2.9-0.2-4.5c0.3-1.7,0.7-3.4,1.4-5.2c0.7-1.8,1.5-3.6,2.5-5.5
		c1-1.9,1.9-3.7,2.8-5.5c-0.6,0.8-1.3,2.2-2.3,4c-1,1.8-1.9,3.7-2.8,5.8c-0.9,2.1-1.5,4.1-1.9,6.1
		C414,192.3,414.2,193.9,414.9,195.2z M422.5,175.4c-0.7,0.5-1.4,1.4-2.2,2.8c-0.8,1.3-1.5,2.8-2.2,4.5c-0.7,1.7-1.2,3.3-1.5,5.1
		c-0.4,1.7-0.5,3.2-0.4,4.5c0-1.1,0.2-2.5,0.6-4c0.4-1.6,0.9-3.2,1.6-4.8c0.6-1.6,1.3-3.2,2-4.6
		C421.3,177.4,421.9,176.3,422.5,175.4z M424.7,174.9c-2.2,3.3-3.9,6.2-5,8.8c-1.1,2.6-1.8,4.7-2.1,6.5c-0.3,1.8-0.2,3.1,0.3,4
		c0.5,0.9,1.2,1.4,2.3,1.4c-1-0.2-1.7-0.8-2-1.8c-0.3-0.9-0.3-2.1-0.1-3.4c0.2-1.3,0.6-2.8,1.2-4.3c0.6-1.5,1.2-3,1.9-4.5
		c0.7-1.4,1.3-2.8,2-4C423.8,176.4,424.3,175.5,424.7,174.9c0.1-0.1,0.2-0.3,0.2-0.4c0.1-0.1,0.2-0.2,0.2-0.4c0,0.1-0.1,0.2-0.2,0.3
		C424.9,174.6,424.8,174.8,424.7,174.9z M417.9,195.4c0.4,0.7,1,1,1.8,1c0.8,0,1.6-0.3,2.5-0.8c0.9-0.5,1.7-1.2,2.5-2.2
		c0.8-1,1.4-2.1,1.9-3.5c-0.9,1.9-1.9,3.2-2.8,4.1c-1,0.9-1.8,1.5-2.6,1.8c-0.8,0.3-1.5,0.3-2,0.2
		C418.4,195.8,418,195.6,417.9,195.4z M419,196.8c0.7,0.6,1.5,0.6,2.5,0.2c1-0.4,2-1.1,2.9-2.1c1-1,1.9-2.2,2.8-3.6
		c0.9-1.4,1.5-2.9,2-4.4c-1.2,2.7-2.4,4.7-3.5,6.1c-1.1,1.4-2.2,2.4-3.1,3c-0.9,0.6-1.7,0.9-2.3,0.9
		C419.6,196.9,419.2,196.9,419,196.8z M421.1,194.9c-0.9-0.3-1.4-0.9-1.4-1.9c-0.1-1,0.1-2.1,0.4-3.3c0.4-1.2,0.8-2.3,1.3-3.5
		c0.5-1.1,0.9-1.9,1.1-2.4c-0.8,1.3-1.5,2.5-2.1,3.8c-0.6,1.3-0.9,2.5-1.1,3.6c-0.2,1.1-0.1,2,0.1,2.7
		C419.7,194.5,420.3,194.9,421.1,194.9z M427.8,173.1c-0.6,0-1.3,0.6-2.1,1.7c-0.9,1.1-1.7,2.4-2.6,4c-0.8,1.6-1.6,3.3-2.3,5.1
		c-0.7,1.8-1.2,3.5-1.4,5c0.4-1.5,0.9-3.1,1.7-4.8c0.7-1.7,1.6-3.2,2.4-4.7c0.9-1.5,1.7-2.8,2.5-3.9
		C426.8,174.4,427.4,173.6,427.8,173.1z M426,188.9c-0.7,1.5-1.5,2.7-2.2,3.5c-0.7,0.9-1.2,1.4-1.5,1.6c0.3,0,0.7-0.1,1.1-0.5
		c0.4-0.4,0.8-0.9,1.1-1.4c0.3-0.6,0.7-1.1,0.9-1.7C425.7,189.8,425.9,189.3,426,188.9z"/>
	<path class="st2" d="M428,190.9c0,0.2,0.2,0.7,0.5,1.4c0.3,0.7,0.8,1.4,1.4,2.2c0.7,0.8,1.6,1.5,2.8,2.1c1.2,0.6,2.7,1,4.5,1
		c-1,0.2-2,0.2-3.1,0c-1.1-0.3-2.1-0.7-3-1.3c-0.9-0.6-1.6-1.4-2.2-2.3C428.3,193,428,192,428,190.9z M450.7,179.6
		c0.1-0.3,0.3-0.4,0.7-0.5c0.4,0,0.7,0,1.1,0.2c0.4,0.1,0.7,0.3,0.9,0.6s0.3,0.5,0.2,0.7c-0.4,1-0.7,2-1.1,2.9
		c-0.4,0.9-0.7,1.8-1,2.6c-1.1,2.4-2.4,4.4-3.8,6c-1.5,1.6-3.1,2.8-4.7,3.6s-3.3,1.3-4.9,1.5c-1.6,0.1-3.2-0.1-4.5-0.6
		c-2.1-0.8-3.5-2.2-4.3-4.1c-0.8-1.9-1.2-4-1.1-6.3c0.1-2.3,0.7-4.6,1.6-6.9c1-2.3,2.2-4.4,3.7-6.1c1.5-1.7,3.3-3,5.3-3.7
		c2-0.7,4.1-0.7,6.4,0.2c1.4,0.5,2.3,1.4,2.8,2.6c0.5,1.2,0.7,2.5,0.5,4c-0.2,1.5-0.7,3-1.5,4.6c-0.8,1.6-1.8,3.1-3,4.4
		c-1.2,1.4-2.6,2.5-4.2,3.4c-1.6,0.9-3.3,1.4-5,1.5l0.4,0.1c0.1,0,0.3,0.1,0.3,0.1c0.1,0.9,0.7,1.6,1.7,2c1,0.4,2.1,0.4,3.4,0
		c1.3-0.4,2.7-1.1,4.1-2.3c1.4-1.2,2.6-2.8,3.6-5C448.9,183.6,449.7,181.8,450.7,179.6z M430.5,191.7c-0.2,0.8-0.1,1.5,0.3,2.2
		s1,1.3,1.9,1.8s1.8,0.8,2.9,1c1.1,0.2,2.4,0.2,3.7,0c-1.8,0-3.2-0.1-4.3-0.6s-2-0.9-2.6-1.5c-0.6-0.6-1.1-1.1-1.4-1.7
		C430.7,192.4,430.5,192,430.5,191.7z M437.2,175.3c-0.9,0.8-1.8,2.1-2.6,3.7c-0.8,1.6-1.4,3.3-1.8,5.1c-0.4,1.8-0.5,3.5-0.3,5.2
		c0.2,1.7,0.7,3,1.7,4c-0.6-0.8-1-1.8-1.1-3c-0.1-1.2-0.1-2.4,0-3.6c0.2-1.3,0.4-2.5,0.8-3.8c0.4-1.3,0.8-2.5,1.2-3.5
		c0.4-1,0.9-1.9,1.3-2.7C436.7,175.9,437,175.5,437.2,175.3z M438.6,195.4c-0.8,0-1.5,0-2.2-0.3c-0.7-0.2-1.3-0.5-1.9-0.9
		c-0.6-0.4-1-0.7-1.4-1.2c-0.4-0.4-0.6-0.8-0.7-1.1c0,0.6,0.2,1.1,0.6,1.6c0.4,0.5,0.9,0.9,1.5,1.2c0.6,0.3,1.3,0.5,2,0.6
		C437.3,195.5,438,195.5,438.6,195.4z M446.8,173.4c-0.4-1.1-1.2-1.9-2.4-2.4c-1.2-0.5-2.5-0.6-4-0.3c-1.4,0.2-2.9,0.8-4.3,1.7
		c-1.4,0.9-2.5,2.2-3.4,3.7c0.9-1.3,2-2.4,3.3-3.2c1.3-0.8,2.6-1.4,4-1.6c1.4-0.3,2.7-0.3,3.9,0.1
		C445.2,171.7,446.1,172.4,446.8,173.4z M439.7,175.1c-0.5-0.2-1.1,0.1-1.9,1c-0.7,0.8-1.4,1.9-2.1,3.2c-0.7,1.3-1.2,2.7-1.7,4.1
		c-0.5,1.4-0.7,2.7-0.7,3.8c0.9-3.7,2-6.6,3.3-8.5C437.9,176.8,438.9,175.6,439.7,175.1z M436.5,192.9c-1.2-0.4-1.9-1.2-2.1-2.4
		c-0.2-1.2-0.2-2.5,0.1-3.8c0.3-1.4,0.7-2.7,1.2-4c0.5-1.3,1-2.2,1.3-2.8l0.2-0.4l-0.2,0.4c-1.1,2.1-1.9,3.9-2.5,5.4
		c-0.5,1.6-0.8,2.9-0.7,4c0,1.1,0.3,2,0.7,2.6C435,192.4,435.6,192.8,436.5,192.9z M434.2,177.9c0.1-0.4,0.5-1,0.9-1.6
		c0.5-0.7,1.1-1.3,1.9-2c0.8-0.7,1.6-1.2,2.6-1.7c1-0.5,2-0.7,3.2-0.6c-0.6-0.1-1.3-0.1-2.1,0c-0.8,0.1-1.6,0.5-2.5,0.9
		c-0.8,0.5-1.6,1.2-2.3,2C435.2,175.7,434.6,176.7,434.2,177.9z M434.6,189.6c1.4,0,2.9-0.3,4.2-1c1.4-0.7,2.6-1.5,3.7-2.6
		c1.1-1,2.1-2.1,2.8-3.3c0.8-1.2,1.3-2.3,1.6-3.3c-0.8,1.9-1.8,3.5-3,4.8c-1.2,1.3-2.4,2.3-3.6,3.1c-1.2,0.8-2.4,1.3-3.4,1.7
		C435.9,189.4,435.2,189.6,434.6,189.6z M435.1,193.8c0.5,0.7,1.3,1.1,2.3,1.2c1,0.1,2.2,0,3.4-0.4c1.2-0.4,2.3-1,3.4-1.8
		c1.1-0.8,1.9-1.8,2.5-3c-1.1,1.5-2.3,2.7-3.6,3.4c-1.3,0.7-2.5,1.1-3.6,1.3s-2.1,0.2-2.9,0C435.8,194.2,435.3,194,435.1,193.8
		L435.1,193.8L435.1,193.8z M442.5,178.4c-0.4,1.4-0.9,2.6-1.6,3.5c-0.7,0.9-1.4,1.7-2.2,2.2c-0.7,0.6-1.4,1-2.1,1.3
		c-0.6,0.3-1,0.4-1.2,0.5c1.1,0,2.1-0.4,3.1-1c0.9-0.6,1.7-1.3,2.3-2.1s1.1-1.6,1.4-2.4C442.5,179.6,442.6,178.9,442.5,178.4z
		 M441.7,176.8c-0.3-0.4-0.7-0.5-1.3-0.1c-0.6,0.3-1.2,0.9-1.8,1.7c-0.6,0.8-1.2,1.8-1.8,3c-0.6,1.2-1,2.4-1.3,3.7
		c1-0.2,1.9-0.7,2.8-1.4c0.9-0.7,1.6-1.5,2.2-2.4c0.6-0.9,1-1.7,1.3-2.6C442.1,177.9,442,177.2,441.7,176.8z M448,186.8
		c-0.8,1.2-1.7,2.2-2.6,3.2c-0.9,1-1.8,1.8-2.9,2.4c-1,0.6-2.1,1-3.3,1.2s-2.4,0.1-3.7-0.3c1,0.6,2.1,0.8,3.2,0.7
		c1.1-0.1,2.2-0.4,3.3-1s2.1-1.4,3.1-2.5C446.2,189.4,447.1,188.2,448,186.8z M447.7,176.3c0.4-1.5,0.2-2.8-0.4-3.9
		c-0.6-1.1-1.5-1.9-2.7-2.4c-1.2-0.5-2.6-0.6-4.1-0.4c-1.6,0.2-3.1,0.9-4.6,2.1c1.5-0.9,3-1.5,4.4-1.7c1.5-0.2,2.8-0.1,3.9,0.3
		c1.1,0.4,2,1.2,2.7,2.2C447.6,173.6,447.8,174.8,447.7,176.3z M444.9,173.2c0.6,1.2,0.8,2.5,0.8,3.7c0,1.3-0.3,2.5-0.9,3.7
		c-0.6,1.2-1.4,2.3-2.5,3.3c-1.1,1-2.4,1.9-3.9,2.7c2-0.7,3.6-1.7,4.8-3c1.2-1.3,2-2.6,2.5-4c0.5-1.4,0.6-2.6,0.5-3.8
		C446,174.6,445.6,173.7,444.9,173.2z M438.5,177c1.2-1,2.2-1.5,3-1.3c0.8,0.1,1.3,0.6,1.5,1.5s0.1,2-0.4,3.3
		c-0.5,1.3-1.4,2.7-2.9,4.1c2-1.5,3.2-3,3.7-4.4c0.5-1.4,0.6-2.6,0.2-3.5c-0.4-0.9-1.1-1.4-2.1-1.4
		C440.6,175.2,439.6,175.8,438.5,177z M438.6,195.9c0.8,0.2,1.8,0.2,2.8-0.2c1-0.4,1.9-0.9,2.8-1.5c0.9-0.7,1.7-1.5,2.4-2.5
		c0.7-1,1.2-2,1.5-3c-0.8,1.6-1.8,2.9-2.7,3.8c-1,0.9-1.9,1.7-2.8,2.2c-0.9,0.5-1.7,0.8-2.4,1C439.4,195.9,438.8,195.9,438.6,195.9z
		 M444.8,178.4c0.2-1.5,0.1-2.6-0.3-3.5c-0.4-0.8-1-1.4-1.6-1.6c-0.7-0.3-1.4-0.3-2.1,0c-0.7,0.3-1.3,0.7-1.7,1.4
		c0.3-0.3,0.8-0.6,1.5-0.8s1.3-0.2,1.9,0s1.2,0.6,1.7,1.3S444.8,177,444.8,178.4z"/>
</g>
<g class="st1">
	<path class="st2" d="M542.7,206c0.7,0.1,1.2,0.4,1.6,1.1c0.4,0.7,0.6,1.6,0.7,2.6c0.1,1.1,0,2.3-0.3,3.6c-0.2,1.3-0.7,2.6-1.3,3.9
		c-0.7,0.5-1.9,0.9-3.4,1.4c-1.5,0.4-2.9,0.8-4.4,1.2c-1.2-3.3-2.6-6.3-4.3-9c-1.7-2.8-4.2-5.1-7.4-7c0.9,0.7,1.8,1.6,2.8,2.7
		c1,1.1,1.9,2.3,2.8,3.7c0.9,1.4,1.6,2.9,2.3,4.6c0.6,1.7,1.1,3.6,1.4,5.6c-2.3,0.4-4.3,0.5-5.9,0.3c-2.4-3.5-4.6-6.2-6.6-8.2
		c-1.9-2-3.6-3.5-5-4.5c-1.4-1-2.5-1.6-3.4-1.7c-0.9-0.2-1.5-0.2-1.7,0.1c-0.9,0.7-0.8,1.6,0.6,2.8c1.3,1.2,3.5,3.1,6.6,5.6
		c5.5,4.7,9.4,9.8,11.6,15.3c2.2,5.5,3,10.8,2.2,15.9c-0.7,4.8-2.1,9-4.4,12.6c-2.2,3.6-4.9,6.5-8.1,8.9c-3.2,2.4-6.6,4.1-10.5,5.3
		c-3.8,1.2-7.7,1.8-11.5,1.8s-7.6-0.5-11.2-1.6c-3.6-1.1-6.8-2.8-9.7-4.9c-2.8-2.2-5.1-4.9-6.8-8.1c-1.7-3.3-2.5-7-2.5-11.4
		c0-3.9,0.8-7.7,2.4-11.4c1.6-3.8,3.8-7.1,6.7-10.1c2.8-3,6.3-5.4,10.2-7.3c4-1.9,8.3-2.9,13-3c0.8,0.9,1.6,2,2.2,3.3
		c0.7,1.3,1.3,2.5,1.8,3.8c0.5,1.3,0.9,2.6,1.2,3.8c0.3,1.3,0.4,2.4,0.3,3.4c-0.4,1.4-1.1,2.5-2,3.6s-1.9,1.9-3.1,2.5
		c-1.2,0.7-2.4,1.2-3.7,1.5c-1.3,0.3-2.6,0.5-3.9,0.5c0.5-0.2,1.3-0.6,2.3-1.1c1-0.5,1.7-1,2.1-1.5c-1,0.5-1.9,0.8-2.9,1.1
		c-1,0.3-2,0.5-2.9,0.6c-1,0.1-1.8,0.1-2.5,0c-0.7-0.1-1.3-0.3-1.5-0.6c0.7,0,1.5-0.1,2.4-0.4c0.9-0.3,1.9-0.6,2.8-1.1
		c0.9-0.4,1.8-0.9,2.6-1.5c0.8-0.5,1.5-1.1,2-1.6c-2.6-0.2-5.1,0.2-7.4,1.1c-2.3,0.9-4.3,2.3-6,3.9c-1.7,1.7-3,3.6-4.1,5.7
		c-1,2.2-1.6,4.4-1.6,6.6c-0.2,3.7,0.6,6.9,2.4,9.4c1.8,2.5,4.1,4.4,7,5.7c2.9,1.3,6,1.8,9.5,1.8c3.4-0.1,6.7-0.9,9.9-2.4
		c3.2-1.5,5.9-3.8,8.2-6.8c2.3-3,3.8-6.9,4.4-11.5c0.5-3.9-0.1-7.9-1.9-12c-1.8-4.1-4.6-8.1-8.5-12c-2-2-3.9-4.1-5.7-6.3
		c-1.8-2.1-3-4.3-3.8-6.5c-0.8-2.2-0.9-4.3-0.4-6.5c0.5-2.2,2.1-4.3,4.7-6.3c2.2-1.7,5.1-2.5,8.6-2.4c3.5,0.1,7.1,1,10.8,2.6
		c3.7,1.6,7.2,3.9,10.4,6.8c3.3,2.9,5.7,6.3,7.4,10.2c0.1-0.7,0.1-1.6-0.1-2.4c-0.1-0.9-0.3-1.7-0.5-2.5c-0.2-0.8-0.4-1.4-0.7-2
		c-0.3-0.5-0.5-0.9-0.7-1c0.8-0.5,1.6-0.2,2.5,0.7c0.8,0.9,1.3,2.2,1.5,3.9c0.1-0.2,0.2-0.5,0.3-1c0.1-0.4,0.1-0.9,0.1-1.4
		s0-1-0.1-1.4C542.8,206.4,542.8,206.1,542.7,206z M492,218.8c-3.1,0.8-6.1,2.2-9,4c-2.9,1.9-5.4,4.1-7.6,6.8c-2.2,2.7-4,5.7-5.3,9
		c-1.3,3.4-2,7-2,10.8c0.1-1,0.5-2.8,1.2-5.5c0.7-2.6,2-5.5,3.8-8.6c1.8-3.1,4.2-6.2,7.3-9.2C483.3,223,487.2,220.6,492,218.8z
		 M470.4,249.4c-0.1,4.8,1,8.9,3.1,12.2c2.1,3.4,4.9,6,8.3,7.8c3.4,1.9,7.1,3,11.3,3.4c4.1,0.4,8.2,0,12.3-1.1s7.8-3,11.2-5.6
		c3.4-2.6,6.1-5.9,8.1-10c-2.2,3.7-5.1,6.8-8.6,9.2c-3.5,2.4-7.3,4.1-11.2,5.2c-3.9,1-7.9,1.4-11.9,1.1c-4-0.3-7.6-1.4-10.9-3.1
		c-3.3-1.7-5.9-4.2-8.1-7.4C471.9,257.9,470.7,254,470.4,249.4z M493.6,216.3c-3.5,0.5-6.6,1.6-9.3,3.1c-2.7,1.5-5,3.2-6.9,4.9
		s-3.4,3.4-4.6,5s-2,2.8-2.4,3.7c1.7-3.5,3.6-6.3,5.7-8.6c2.1-2.3,4.2-4,6.4-5.3c2.1-1.3,4.2-2.1,6.1-2.5
		C490.6,216.1,492.2,216.1,493.6,216.3z M472.2,254.5c-0.8-4.7-0.5-9.3,0.9-13.8c1.4-4.5,4.4-9.1,8.8-13.8c-2.8,2.2-5.1,4.5-6.7,7
		c-1.6,2.5-2.8,5-3.5,7.5c-0.7,2.5-0.9,4.8-0.8,7.1C471.2,250.9,471.6,252.9,472.2,254.5z M496,270c-3.9-0.1-7.1-0.6-9.8-1.7
		c-2.6-1.1-4.8-2.3-6.5-3.7c-1.7-1.4-2.9-2.8-3.8-4.3s-1.4-2.6-1.6-3.5c0.3,2.3,1.1,4.3,2.5,6.1c1.4,1.8,3.2,3.2,5.2,4.3
		c2.1,1.1,4.3,1.9,6.8,2.4C491.4,270.2,493.7,270.3,496,270z M500.6,231.4c0.4-1.2,0.3-2.2-0.4-3c-0.6-0.8-1.6-1.4-3-1.8
		c-1.4-0.3-3-0.4-4.8-0.2c-1.9,0.2-3.8,0.8-5.9,1.8c-2.1,1-4.1,2.4-6.1,4.3c-2,1.9-3.8,4.3-5.4,7.2c1.6-2.6,3.4-4.7,5.3-6.4
		c1.9-1.7,3.8-2.9,5.7-3.8c1.9-0.8,3.7-1.4,5.5-1.6c1.8-0.2,3.4-0.2,4.7,0.1c1.4,0.2,2.4,0.6,3.3,1.2
		C500.3,230,500.7,230.6,500.6,231.4z M476.1,251.2c0.2-3.4,0.8-6.2,1.9-8.5c1-2.3,2.3-4.2,3.8-5.7c1.5-1.5,3.1-2.6,4.8-3.4
		c1.7-0.8,3.4-1.3,4.9-1.7c1.6-0.3,2.9-0.5,4.1-0.5c1.2,0,1.9,0,2.2,0c-2.4-0.7-4.9-0.8-7.6-0.1c-2.7,0.7-5.1,1.9-7.3,3.7
		c-2.2,1.8-4,4-5.3,6.8C476.3,244.5,475.8,247.7,476.1,251.2z M483.6,273c3.5,1.4,7.1,2.2,10.8,2.3s7.4-0.3,11-1.1
		c3.6-0.8,7-2,10.1-3.6c3.2-1.6,5.8-3.3,8-5.2c-1.6,2.2-3.5,4-5.7,5.5c-2.2,1.5-4.6,2.7-7.2,3.5c-2.6,0.8-5.2,1.4-7.9,1.7
		c-2.7,0.3-5.2,0.3-7.7,0.2c-2.4-0.2-4.7-0.5-6.7-1.1C486.5,274.7,484.9,273.9,483.6,273z M508.6,264.7c-1.2,0.8-2.7,1.5-4.4,2.1
		c-1.7,0.6-3.6,1-5.6,1.3c-2,0.2-4.2,0.2-6.5,0c-2.3-0.2-4.7-0.8-7.1-1.7c1,0.7,2.5,1.3,4.3,1.8c1.9,0.5,3.9,0.8,6.1,0.9
		c2.2,0.1,4.5-0.2,6.8-0.9C504.5,267.7,506.7,266.5,508.6,264.7z M501.4,225.3c-0.1-0.7-0.6-1.4-1.4-1.8c-0.8-0.5-1.8-0.8-3.1-0.9
		c-1.3-0.1-2.6,0-4.2,0.4c-1.5,0.4-3.1,1-4.7,2c-0.1,0.1-0.2,0.1-0.3,0.2c0,0-0.1,0.1-0.3,0.2c0.1-0.1,0.2-0.1,0.3-0.2
		c0,0,0.1-0.1,0.3-0.2c0.7-0.3,1.6-0.7,2.8-1c1.2-0.3,2.5-0.5,3.8-0.6c1.3-0.1,2.6,0,3.9,0.3C499.8,224,500.7,224.5,501.4,225.3z
		 M517,194.5c-3.5-1-6.4-1.2-8.9-0.7c-2.5,0.6-4.5,1.5-6.1,2.7c-1.6,1.3-2.8,2.6-3.7,4s-1.3,2.4-1.3,3c-0.1-2,0.4-3.9,1.6-5.6
		c1.2-1.7,2.8-3,4.7-4c1.9-1,4.1-1.5,6.5-1.5C512.2,192.5,514.6,193.2,517,194.5z M501.8,212.5c0.4,1.2,1.2,2.3,2.3,3.6
		s2.4,2.5,3.7,3.9c1.4,1.4,2.7,2.9,4.1,4.6c1.4,1.7,2.6,3.5,3.5,5.6c-0.3-1.5-1-3.1-2.2-4.9c-1.2-1.8-2.6-3.5-4-5.1
		c-1.5-1.7-2.9-3.2-4.3-4.5C503.5,214.3,502.5,213.2,501.8,212.5z M507.7,198c-1.8-0.1-3.1,0.4-4.1,1.4c-1,1-1.4,2.3-1.3,3.9
		c0.1,1.6,0.7,3.4,1.9,5.5c1.2,2.1,3.1,4.2,5.6,6.3c-2.8-3.3-4.7-5.9-5.5-7.9c-0.8-2-1.1-3.7-0.8-4.9c0.3-1.3,0.9-2.2,1.8-2.7
		C506.5,198.8,507.2,198.4,507.7,198z M503.7,269c0.4-0.1,1.2-0.2,2.2-0.5c1.1-0.2,2.3-0.6,3.7-1.2c1.4-0.6,2.9-1.3,4.5-2.2
		c1.6-0.9,3.1-2.1,4.5-3.5c1.4-1.4,2.7-3,3.8-5c1.1-1.9,1.9-4.2,2.5-6.8c-1.3,3.5-2.8,6.3-4.5,8.4c-1.7,2.2-3.5,3.9-5.4,5.3
		c-1.9,1.4-3.8,2.5-5.7,3.3C507.4,267.7,505.5,268.4,503.7,269z M525,210.3c-2.2-4-4.5-6.8-7-8.5c-2.5-1.7-4.7-2.5-6.7-2.5
		c-2,0-3.5,0.6-4.5,1.9c-1.1,1.3-1.2,2.9-0.4,4.8c0-0.9,0.3-2,1-3.2c0.7-1.2,1.8-1.8,3.3-2s3.5,0.3,5.8,1.6
		C518.9,203.7,521.7,206.3,525,210.3z M507.8,196.2c1.4-0.2,3.4-0.1,5.8,0.3c2.4,0.4,5.1,1.3,8,2.6c2.9,1.4,5.9,3.4,9,6
		c3.1,2.6,6.1,6,8.9,10.2c-0.8-2-2-3.9-3.5-5.8c-1.5-1.9-3.2-3.7-5-5.3c-1.8-1.6-3.8-3.1-5.9-4.4c-2.1-1.3-4.2-2.3-6.3-3
		c-2.1-0.7-4.1-1.2-6-1.3C511,195.3,509.3,195.5,507.8,196.2z M527.6,219.7c-1.2-2.6-2.7-5.2-4.6-7.8c-1.9-2.5-3.9-4.6-5.8-6.2
		c-2-1.6-3.8-2.5-5.4-2.7s-2.7,0.7-3.3,2.7c0.2-0.3,0.7-0.6,1.5-0.9c0.8-0.3,2-0.2,3.5,0.4c1.5,0.6,3.4,2,5.7,4.1
		S524.4,214.9,527.6,219.7z M525.7,246c0.5-2,0.7-4.4,0.5-7c-0.2-2.6-0.9-5.4-2.1-8.3c-1.2-2.9-3-6-5.5-9.1
		c-2.4-3.2-5.6-6.3-9.6-9.3c0.9,1,2.4,2.5,4.3,4.5c1.9,2,3.9,4.4,5.8,7.3c1.9,2.9,3.6,6.1,4.9,9.8C525.4,237.6,526,241.6,525.7,246z
		 M511,219.7c0.7,0.8,1.6,2,2.8,3.6c1.2,1.6,2.4,3.5,3.6,5.6c1.2,2.1,2.2,4.5,3,7.2c0.8,2.7,1.3,5.5,1.3,8.3c0,2.9-0.5,5.9-1.6,8.9
		c-1.1,3.1-3.1,6.1-5.8,9.2c3.6-2.9,6-6.2,7.4-10c1.3-3.7,1.7-7.5,1.2-11.4s-1.8-7.7-3.9-11.4C516.8,226.1,514.2,222.7,511,219.7z
		 M526.9,254.3c0.9-1.6,1.6-3.8,2.2-6.7c0.6-2.8,0.7-5.9,0.3-9.1c-0.4-3.3-1.4-6.6-2.9-9.9c-1.6-3.3-4.1-6.3-7.5-8.9
		c0.3,0.4,0.9,1,1.7,1.9c0.8,0.8,1.7,1.9,2.5,3.3c0.9,1.4,1.7,3,2.6,4.8c0.8,1.9,1.5,4,2,6.5c0.5,2.4,0.7,5.2,0.6,8.2
		C528.4,247.4,527.9,250.7,526.9,254.3z M536.2,218.1c0.2-0.6,0.1-1.5-0.2-2.6c-0.3-1.1-0.8-2.3-1.5-3.4c-0.7-1.2-1.5-2.3-2.4-3.3
		c-0.9-1-1.9-1.8-2.9-2.3c0.4,0.3,0.9,0.9,1.6,1.7c0.7,0.8,1.4,1.7,2.1,2.8c0.7,1.1,1.4,2.3,2,3.5
		C535.6,215.7,536,216.9,536.2,218.1z"/>
	<path class="st2" d="M537.9,256.5c0.1,0.3,0.3,1,0.7,2c0.4,1,1.1,2,2.1,3.2s2.3,2.1,4,3c1.7,0.9,3.9,1.4,6.5,1.5
		c-1.4,0.3-2.9,0.3-4.5-0.1c-1.6-0.4-3-1-4.3-1.9c-1.3-0.9-2.4-2-3.2-3.3C538.3,259.6,537.9,258.1,537.9,256.5z M570.8,240
		c0.1-0.4,0.5-0.6,1-0.7c0.5,0,1.1,0.1,1.6,0.3c0.5,0.2,1,0.5,1.4,0.8c0.4,0.3,0.5,0.7,0.4,1c-0.5,1.5-1.1,2.9-1.6,4.2
		c-0.5,1.3-1.1,2.6-1.5,3.7c-1.6,3.5-3.4,6.4-5.6,8.7c-2.2,2.3-4.5,4.1-6.9,5.3c-2.4,1.2-4.8,1.9-7.2,2.1c-2.4,0.2-4.6-0.1-6.6-0.9
		c-3-1.2-5.1-3.2-6.3-5.9s-1.7-5.8-1.6-9.1c0.2-3.3,0.9-6.7,2.3-10.1c1.4-3.4,3.2-6.3,5.4-8.8c2.2-2.5,4.8-4.3,7.7-5.4
		c2.9-1.1,6-1,9.2,0.3c2,0.7,3.3,2,4.1,3.7c0.7,1.7,1,3.7,0.7,5.8c-0.3,2.2-1,4.4-2.1,6.7c-1.2,2.3-2.6,4.4-4.4,6.4
		c-1.8,2-3.8,3.6-6.1,5c-2.3,1.4-4.7,2.1-7.3,2.2l0.6,0.2c0.2,0.1,0.4,0.1,0.5,0.2c0.2,1.4,1,2.3,2.4,2.8c1.4,0.5,3.1,0.6,5,0.1
		c1.9-0.5,3.9-1.6,5.9-3.3c2-1.7,3.8-4.1,5.3-7.2C568.3,245.9,569.5,243.2,570.8,240z M541.5,257.7c-0.3,1.2-0.1,2.2,0.5,3.3
		c0.6,1,1.5,1.9,2.7,2.6c1.2,0.7,2.6,1.2,4.3,1.5c1.7,0.3,3.4,0.3,5.3-0.1c-2.6,0.1-4.7-0.2-6.3-0.8c-1.6-0.6-2.9-1.3-3.8-2.1
		c-0.9-0.8-1.6-1.6-2-2.5C541.8,258.7,541.5,258.1,541.5,257.7z M551.2,233.8c-1.4,1.2-2.6,3-3.8,5.3s-2.1,4.8-2.6,7.4
		c-0.6,2.6-0.7,5.1-0.5,7.6c0.2,2.4,1.1,4.4,2.5,5.8c-0.9-1.2-1.4-2.7-1.6-4.4c-0.2-1.7-0.2-3.5,0.1-5.3c0.2-1.8,0.6-3.7,1.2-5.5
		c0.5-1.9,1.1-3.6,1.8-5.1c0.6-1.5,1.3-2.8,1.8-3.9C550.5,234.7,551,234.1,551.2,233.8z M553.4,263c-1.2,0.1-2.2-0.1-3.2-0.4
		c-1-0.3-1.9-0.8-2.7-1.3c-0.8-0.5-1.5-1.1-2-1.7c-0.5-0.6-0.9-1.2-1-1.6c0,0.9,0.3,1.7,0.9,2.3c0.6,0.7,1.3,1.2,2.2,1.7
		c0.9,0.4,1.9,0.7,2.9,0.9C551.4,263.1,552.4,263.1,553.4,263z M565.2,231.1c-0.6-1.6-1.8-2.8-3.5-3.5c-1.7-0.7-3.6-0.8-5.7-0.5
		c-2.1,0.3-4.2,1.2-6.2,2.5c-2,1.3-3.7,3.1-4.9,5.4c1.3-1.9,2.9-3.4,4.8-4.6c1.9-1.2,3.8-2,5.8-2.4c2-0.4,3.9-0.4,5.6,0.1
		C562.9,228.6,564.2,229.6,565.2,231.1z M554.9,233.6c-0.7-0.3-1.6,0.2-2.7,1.4c-1.1,1.2-2.1,2.8-3,4.7c-1,1.9-1.8,3.9-2.5,6
		c-0.7,2.1-1,3.9-1,5.5c1.3-5.4,2.9-9.6,4.7-12.4C552.2,235.9,553.7,234.2,554.9,233.6z M550.2,259.3c-1.7-0.6-2.7-1.8-3-3.5
		c-0.3-1.7-0.3-3.6,0.1-5.6c0.4-2,0.9-4,1.7-5.8c0.8-1.9,1.4-3.2,1.9-4.1l0.3-0.6l-0.3,0.6c-1.6,3-2.8,5.6-3.6,7.9
		c-0.7,2.3-1.1,4.2-1.1,5.8c0,1.6,0.4,2.8,1.1,3.8C548,258.7,549,259.2,550.2,259.3z M547,237.6c0.2-0.6,0.7-1.4,1.4-2.4
		c0.7-1,1.6-1.9,2.7-2.9c1.1-0.9,2.4-1.8,3.8-2.4c1.4-0.7,2.9-1,4.6-0.9c-0.9-0.2-1.9-0.2-3.1,0c-1.2,0.2-2.4,0.7-3.6,1.4
		c-1.2,0.7-2.4,1.7-3.4,2.9C548.3,234.4,547.5,235.9,547,237.6z M547.6,254.7c2.1,0,4.1-0.5,6.1-1.5c2-1,3.8-2.2,5.4-3.7
		c1.6-1.5,3-3.1,4.1-4.8c1.1-1.7,1.9-3.3,2.3-4.8c-1.2,2.8-2.6,5.1-4.3,7c-1.7,1.9-3.5,3.4-5.3,4.5c-1.8,1.1-3.5,1.9-5,2.5
		C549.4,254.3,548.3,254.6,547.6,254.7z M548.2,260.6c0.7,1,1.9,1.6,3.4,1.8c1.5,0.2,3.2,0,4.9-0.6c1.7-0.5,3.4-1.4,4.9-2.6
		c1.6-1.2,2.7-2.7,3.6-4.4c-1.6,2.2-3.4,3.9-5.2,4.9c-1.9,1-3.6,1.7-5.2,1.9c-1.6,0.3-3,0.3-4.2-0.1
		C549.2,261.3,548.4,261,548.2,260.6l-0.1-0.1L548.2,260.6z M558.9,238.3c-0.5,2-1.3,3.7-2.3,5.1c-1,1.4-2.1,2.4-3.2,3.3
		c-1.1,0.8-2.1,1.4-3,1.8c-0.9,0.4-1.5,0.6-1.8,0.7c1.6-0.1,3.1-0.5,4.5-1.4c1.4-0.9,2.5-1.9,3.4-3c0.9-1.1,1.6-2.3,2-3.5
		C559,240.1,559.2,239.1,558.9,238.3z M557.8,236c-0.4-0.6-1-0.7-1.9-0.2c-0.8,0.5-1.7,1.3-2.6,2.4c-0.9,1.2-1.8,2.6-2.6,4.3
		c-0.8,1.7-1.4,3.5-1.8,5.4c1.4-0.3,2.8-1,4-2.1c1.3-1,2.3-2.2,3.2-3.5c0.9-1.3,1.5-2.5,1.9-3.7C558.4,237.6,558.3,236.7,557.8,236z
		 M566.9,250.5c-1.2,1.7-2.5,3.3-3.8,4.7c-1.3,1.4-2.7,2.6-4.2,3.5c-1.5,0.9-3.1,1.5-4.7,1.7c-1.7,0.3-3.4,0.1-5.3-0.4
		c1.5,0.8,3,1.2,4.7,1c1.6-0.1,3.2-0.6,4.8-1.5c1.6-0.9,3.1-2.1,4.5-3.6C564.3,254.3,565.7,252.5,566.9,250.5z M566.5,235.3
		c0.5-2.2,0.4-4-0.6-5.6c-0.9-1.6-2.2-2.7-4-3.5c-1.7-0.7-3.7-0.9-6-0.6c-2.3,0.3-4.5,1.3-6.7,3c2.2-1.4,4.3-2.2,6.5-2.5
		c2.1-0.3,4-0.1,5.7,0.5c1.7,0.6,3,1.7,3.9,3.2C566.3,231.3,566.7,233.2,566.5,235.3z M562.5,230.8c0.8,1.8,1.2,3.6,1.2,5.4
		c0,1.9-0.5,3.7-1.3,5.4c-0.8,1.7-2,3.3-3.6,4.8c-1.6,1.5-3.5,2.8-5.7,3.9c2.9-1,5.2-2.5,6.9-4.3c1.7-1.9,2.9-3.8,3.6-5.7
		c0.7-2,0.9-3.8,0.7-5.6C564,232.9,563.5,231.6,562.5,230.8z M553.2,236.4c1.7-1.5,3.1-2.1,4.3-1.9c1.2,0.2,1.9,0.9,2.2,2.2
		c0.3,1.3,0.1,2.8-0.6,4.8c-0.7,1.9-2.1,3.9-4.2,5.9c2.8-2.2,4.6-4.4,5.4-6.5c0.7-2.1,0.8-3.7,0.3-5c-0.6-1.3-1.6-2-3-2
		C556.2,233.7,554.7,234.6,553.2,236.4z M553.3,263.8c1.2,0.3,2.6,0.3,4-0.3c1.5-0.5,2.8-1.3,4.1-2.2c1.3-1,2.5-2.2,3.5-3.6
		c1-1.4,1.8-2.9,2.2-4.4c-1.2,2.4-2.5,4.2-4,5.6c-1.4,1.4-2.8,2.4-4.1,3.2c-1.3,0.7-2.5,1.2-3.6,1.4
		C554.4,263.7,553.7,263.8,553.3,263.8z M562.3,238.3c0.3-2.2,0.2-3.8-0.4-5c-0.6-1.2-1.4-2-2.4-2.3c-1-0.4-2-0.4-3.1,0
		c-1.1,0.4-1.9,1-2.4,2c0.5-0.5,1.2-0.8,2.1-1.1c0.9-0.3,1.9-0.3,2.8,0c0.9,0.3,1.7,0.9,2.4,1.9C562,234.7,562.4,236.3,562.3,238.3z
		"/>
	<path class="st2" d="M598.8,240c0.1-0.4,0.5-0.6,1-0.7c0.5,0,1,0.1,1.6,0.3c0.5,0.2,1,0.5,1.4,0.8c0.4,0.3,0.5,0.7,0.4,1
		c-2.7,7-5.1,12.4-7.2,16.1c-1.2,2-2.5,3.8-3.9,5.2c-1.4,1.4-2.8,2.5-4.2,3.2c-1.4,0.7-2.8,1.1-4.2,1.2c-1.4,0.1-2.7-0.2-3.8-0.8
		c-1.2-0.6-2.2-1.6-2.9-3c-0.7-1.4-1-3.2-1-5.5c0.1-2.3,0.6-5,1.6-8.3c1-3.3,2.6-7,4.7-11.3c-1.3-0.1-2.3-0.5-3.2-1
		c-0.8-0.5-1.3-0.9-1.4-1c-0.2,0.6-0.5,1.3-0.8,1.9c-0.3,0.7-0.6,1.3-0.8,2c-0.2,0.6-0.5,1.2-0.7,1.7c-0.2,0.5-0.3,0.9-0.4,1.1
		c-0.1,0.1-0.5,0.2-1,0.2s-1-0.1-1.5-0.2c-0.5-0.1-1-0.3-1.4-0.5c-0.4-0.2-0.6-0.4-0.6-0.7c1.3-3,2.1-5.4,2.5-6.9
		c0.4-1.6,0.5-2.6,0.4-3.2c-0.5-1.5-0.6-2.9-0.4-4.4c0.2-1.4,0.7-2.7,1.3-3.8c0.6-1.1,1.4-1.9,2.2-2.4c0.8-0.5,1.6-0.7,2.4-0.4
		c0.9,0.3,1.8,1,2.4,2c0.7,1,0.8,2,0.3,3.2c-0.1-0.5-0.2-1-0.4-1.4c-0.2-0.4-0.4-0.7-0.7-1.1c0.3,1,0.6,2,0.9,3s0.8,1.9,1.5,2.6
		c0.7,0.7,1.6,1.2,2.8,1.6c1.2,0.3,2.9,0.3,5,0c1.9-0.3,3.3,0.1,4.2,1c0.9,0.9,1.1,1.8,0.6,2.7c-1.6,2.4-3.1,4.9-4.6,7.7
		c-1.5,2.7-2.8,5.3-4,7.8c-1.5,3.4-2.3,6-2.4,7.7c-0.1,1.8,0.2,2.8,0.9,3.2c0.7,0.3,1.7,0,2.9-1.1s2.4-2.8,3.7-5.1
		c0.9-1.6,1.9-3.6,3-6C596.2,246.1,597.4,243.3,598.8,240z M573.8,227.3c0,0.6,0.2,1.5,0.5,2.5c0.3,1.1,0.8,2.1,1.4,3.2
		c0.6,1,1.5,1.9,2.6,2.7c1.1,0.8,2.4,1.3,3.9,1.4c-2.6-0.8-4.5-2.2-5.8-4.1C575,231.1,574.2,229.2,573.8,227.3z M575.3,224.6
		c-0.4,2.5-0.1,4.7,0.8,6.6c0.9,1.9,2.3,3.3,4.1,4.3c1.8,1,3.9,1.5,6.3,1.6c2.4,0.1,4.8-0.5,7.3-1.6c-2.6,0.9-5,1.3-7,1.3
		c-2,0-3.7-0.3-5.1-0.9c-1.4-0.6-2.5-1.4-3.4-2.4c-0.9-1-1.6-2-2-3.2c-0.5-1.1-0.8-2.2-0.9-3.2C575.3,226,575.2,225.2,575.3,224.6
		c0-0.1,0-0.3,0.1-0.4c0-0.1,0.1-0.2,0.1-0.4c0,0.1,0,0.3-0.1,0.4C575.3,224.3,575.3,224.4,575.3,224.6z M576.6,257.4
		c-0.3,3.1,0.3,5.4,1.6,7c1.4,1.5,3.1,2.2,5.1,2.1c2.1-0.1,4.3-1.1,6.6-2.8c2.3-1.8,4.4-4.3,6-7.7c-2.4,3.9-4.9,6.5-7.3,8
		c-2.4,1.5-4.5,2.1-6.4,1.9c-1.9-0.2-3.3-1.1-4.4-2.7C576.9,261.5,576.4,259.6,576.6,257.4z M578,221.7c-0.7,1.4-1,2.8-0.9,4.2
		c0.1,1.4,0.4,2.6,1,3.8c0.6,1.1,1.4,2.1,2.4,2.8c1,0.7,2.1,1.2,3.4,1.4c-1.8-0.7-3.2-1.6-4.1-2.9c-0.9-1.3-1.5-2.5-1.8-3.8
		c-0.3-1.3-0.4-2.5-0.3-3.5C577.7,222.7,577.8,222,578,221.7z M586.9,238.5c-0.7,0.1-1.6,0.7-2.5,1.9c-0.9,1.2-1.8,2.7-2.6,4.5
		c-0.8,1.8-1.6,3.7-2.1,5.6c-0.6,2-0.9,3.7-1,5.2c0.2-1.5,0.6-3.1,1.2-4.8c0.6-1.7,1.3-3.4,2.1-5c0.8-1.6,1.6-3,2.5-4.4
		C585.4,240.3,586.2,239.2,586.9,238.5z M579.5,222.2c-0.3,2.4-0.1,4.4,0.7,5.9c0.8,1.5,1.9,2.6,3.2,3.3c1.3,0.7,2.7,1.1,4.2,1
		c1.5,0,2.8-0.4,4-1c-2.7,0.6-4.9,0.6-6.5,0c-1.6-0.6-2.8-1.5-3.7-2.6c-0.8-1.2-1.4-2.4-1.6-3.7
		C579.6,223.9,579.5,222.9,579.5,222.2z M582.8,263.3c-1.5-0.6-2.3-1.7-2.5-3.4c-0.2-1.7-0.1-3.5,0.4-5.4c0.4-1.9,1-3.8,1.8-5.5
		c0.8-1.8,1.4-3,1.8-3.9c-3.1,5.1-4.7,9.2-4.8,12.5C579.3,260.8,580.5,262.7,582.8,263.3z M592.6,231.6c-1.4,0.8-2.7,1.3-4.1,1.4
		c-1.4,0.1-2.6,0-3.8-0.3c-1.1-0.3-2.1-0.7-2.9-1.2c-0.8-0.5-1.4-0.9-1.6-1.3c0-0.1,0-0.2-0.1-0.2c0.1,0,0.1,0.1,0.1,0.2
		c0.8,1.3,1.9,2.2,3.2,2.7c1.3,0.5,2.6,0.8,3.9,0.8s2.5-0.2,3.5-0.6C591.8,232.7,592.4,232.2,592.6,231.6z M589.7,239.6
		c0.1-0.1,0.2-0.2,0.3-0.3c0-0.1,0.1-0.1,0.3-0.2L589.7,239.6c-2,2.3-3.7,4.8-5.1,7.4c-1.4,2.6-2.4,5-2.9,7.3
		c-0.6,2.2-0.7,4.1-0.3,5.7c0.4,1.6,1.4,2.4,3,2.6c-1.8-0.9-2.7-2.4-2.7-4.5c0-2.1,0.5-4.4,1.4-6.8c0.9-2.4,2-4.7,3.4-6.9
		C587.9,242.2,588.9,240.6,589.7,239.6z M581.5,264.9c2.1,0.6,4.1,0.4,5.9-0.8c1.8-1.1,3.5-2.6,4.9-4.3c1.4-1.8,2.6-3.6,3.7-5.4
		c1-1.9,1.7-3.3,2.1-4.2c-2.2,3.9-4.1,6.9-5.8,8.9c-1.7,2-3.3,3.4-4.6,4.3c-1.4,0.8-2.5,1.3-3.6,1.4
		C583,264.8,582.2,264.8,581.5,264.9z M582.5,234.6c1,0.5,2.2,0.9,3.5,1s2.6,0,3.8-0.2c1.2-0.2,2.3-0.6,3.2-1.1
		c0.9-0.5,1.4-1.1,1.6-1.8c-1.2,0.9-2.4,1.5-3.7,1.9c-1.3,0.4-2.6,0.6-3.8,0.7c-1.2,0.1-2.2,0.1-3-0.1
		C583.3,234.9,582.7,234.8,582.5,234.6z M584.7,261.3c-0.8-0.7-1.1-1.8-1-3.4c0.2-1.6,0.6-3.3,1.3-5.1c0.7-1.8,1.4-3.6,2.2-5.2
		c0.8-1.7,1.4-2.9,1.8-3.7c-1.8,2.9-3.1,5.4-4,7.6c-0.9,2.1-1.4,3.9-1.7,5.3c-0.2,1.4-0.2,2.5,0.1,3.2
		C583.7,260.6,584.1,261.1,584.7,261.3z M595.1,250c-1.3,3.2-2.5,5.6-3.7,7.2c-1.2,1.6-2.3,2.8-3.2,3.5c-1,0.7-1.8,1-2.4,1
		c-0.7,0-1.1,0-1.3-0.1c0.8,0.5,1.7,0.6,2.7,0.2c1-0.4,2-1.2,3-2.2s2-2.5,2.8-4.1C594,253.8,594.7,251.9,595.1,250z"/>
	<path class="st2" d="M596.1,246c-0.1,0.5-0.3,1.6-0.4,3c-0.1,1.5-0.1,3.1,0.2,4.9c0.2,1.8,0.8,3.5,1.6,5.3c0.8,1.8,2.2,3.2,4,4.4
		c-1.9-0.7-3.4-1.9-4.4-3.5c-1-1.6-1.7-3.3-2.1-5c-0.3-1.8-0.4-3.5-0.2-5.1C595,248.3,595.5,247,596.1,246z M634.8,240
		c0.1-0.4,0.5-0.6,1-0.7c0.5,0,1,0.1,1.5,0.3c0.5,0.2,0.9,0.5,1.3,0.8c0.4,0.3,0.5,0.7,0.4,1c-0.3,0.9-0.7,1.9-1.1,2.8
		c-0.4,0.9-0.7,1.8-1.1,2.6c-0.8,2-1.8,3.6-3.1,4.9c-1.3,1.3-2.6,2.4-4,3.2c-1.4,0.8-2.9,1.4-4.4,1.7c-1.5,0.3-2.9,0.5-4.2,0.4
		c-1.3,1.8-2.7,3.2-4.1,4.2c-1.5,1.1-2.9,1.8-4.4,2.4c-1.5,0.5-2.9,0.8-4.3,0.9c-1.4,0.1-2.7,0-4-0.3c-2-0.5-3.7-1.6-5.2-3.5
		c-1.5-1.8-2.4-4.4-2.7-7.6c-0.3-3.3,0.2-7.2,1.4-11.7s3.6-9.8,7.2-15.8c0.1-0.1,0.2-0.1,0.4-0.2c0.3-0.1,0.7,0,1.1,0.3
		c-0.3-0.4-0.6-0.7-1-0.8s-0.8-0.3-1.1-0.4c0.6-0.2,1.4-0.2,2.4-0.1c1,0.2,2.1,0.5,3.2,0.9c1.1,0.4,2.2,1,3.2,1.7
		c1,0.7,1.7,1.4,2.1,2.2c-2.7,3.7-4.8,7.2-6.4,10.7c-1.6,3.5-2.6,6.6-3.3,9.3c-0.6,2.7-0.8,5-0.5,6.8c0.3,1.8,1,2.8,2.1,3.1
		c1.2,0.3,2.4-0.1,3.6-1.1c1.3-1,2.5-2.4,3.7-4.1c-1.4-1.4-2.2-3.1-2.6-5.3c-0.4-2.2-0.1-4.8,1-7.9c1.1-3.1,2.4-5.6,4-7.4
		c1.6-1.8,3.2-3,4.8-3.6c1.6-0.6,3.1-0.6,4.5-0.1c1.4,0.6,2.4,1.7,3,3.4c0.7,1.7,0.8,3.8,0.5,6.5c-0.3,2.6-1.4,5.8-3.3,9.4
		c-0.3,0.5-0.5,1-0.7,1.4c-0.2,0.4-0.4,0.8-0.7,1.3c1.4-0.4,2.8-1.1,4-2c1.3-0.9,2.4-2.4,3.3-4.4c0.3-0.8,0.7-1.6,1.1-2.5
		C634,241.9,634.4,241,634.8,240z M600.6,250.1c-0.5,0.9-0.7,2-0.8,3.2c0,1.2,0.1,2.3,0.5,3.5c0.3,1.1,0.8,2.1,1.5,3
		c0.6,0.9,1.4,1.5,2.3,1.7c-1-0.5-1.7-1.3-2.2-2.3c-0.5-1-0.9-2-1.1-3.2c-0.2-1.1-0.4-2.2-0.4-3.3
		C600.4,251.6,600.5,250.8,600.6,250.1z M606.6,227c-0.7,0.3-1.5,1-2.2,2s-1.3,2.1-1.9,3.3c-0.5,1.2-1,2.3-1.3,3.3
		c-0.3,1.1-0.5,1.8-0.5,2.2c0.3-0.7,0.6-1.7,1.1-2.8c0.5-1.1,1-2.2,1.6-3.3c0.6-1,1.1-2,1.7-2.9C605.7,228,606.2,227.3,606.6,227z
		 M601.5,254.7c0-0.9,0.1-2,0.4-3.4c0.2-1.4,0.5-2.8,0.8-4.2c0.3-1.5,0.7-2.9,1.1-4.3c0.4-1.4,0.8-2.5,1.2-3.4
		c-0.5,0.7-1.1,1.8-1.5,3.3c-0.5,1.4-0.9,2.9-1.2,4.4c-0.3,1.5-0.6,3-0.7,4.4C601.4,252.8,601.4,253.9,601.5,254.7z M613.8,257.2
		c-1.8,2-3.5,3.2-5,3.6c-1.5,0.4-2.7,0.3-3.8-0.4c-1-0.7-1.7-1.8-2.2-3.5c-0.4-1.6-0.5-3.6-0.2-5.8c-0.8,3.1-0.9,5.5-0.2,7.2
		c0.7,1.7,1.7,2.8,3.1,3.2c1.4,0.4,2.8,0.3,4.4-0.5C611.6,260.3,612.9,259,613.8,257.2z M603.4,262.7c1,0.7,2.2,1.1,3.6,1.1
		c1.4,0,2.8-0.4,4.2-1c1.4-0.6,2.8-1.5,4-2.5c1.3-1,2.3-2.2,3-3.5c-2,2.2-3.8,3.8-5.4,4.8c-1.7,1-3.2,1.5-4.5,1.7
		c-1.3,0.2-2.4,0.2-3.3,0C604.2,263,603.6,262.8,603.4,262.7z M608.1,260.2c-2-0.3-3.2-1.4-3.6-3.3c-0.4-1.8-0.4-3.9-0.1-6.1
		c0.4-2.2,0.9-4.4,1.7-6.4c0.7-2,1.3-3.4,1.6-4.1c-1.2,1.8-2.2,3.9-3,6.3c-0.8,2.3-1.3,4.5-1.4,6.6c-0.1,2.1,0.2,3.8,0.9,5.1
		S606.3,260.4,608.1,260.2z M610.7,227c-0.4,0.2-0.9,0.8-1.5,1.7c-0.6,0.9-1.2,1.9-1.8,3c-0.6,1.1-1.1,2.2-1.5,3.4
		c-0.4,1.1-0.6,2-0.6,2.7c0.3-1,0.6-2.1,1.1-3.2c0.5-1.1,1-2.2,1.6-3.2c0.6-1,1.1-1.9,1.6-2.7C610,227.9,610.4,227.3,610.7,227z
		 M613.3,229.4c-0.5-0.1-1.3,0.4-2.1,1.6c-0.9,1.2-1.7,2.6-2.6,4.3c-0.8,1.7-1.6,3.3-2.2,4.9c-0.6,1.6-1,2.8-1.1,3.6
		c0.3-0.7,0.7-1.7,1.4-3c0.6-1.4,1.3-2.8,2.1-4.3c0.7-1.5,1.5-2.9,2.3-4.2C611.9,231,612.6,230.1,613.3,229.4z M612,227.8
		c-0.2-0.1-0.5,0-1,0.5c-0.4,0.4-0.9,1.1-1.4,1.8c-0.5,0.8-0.9,1.7-1.4,2.7c-0.5,1-0.8,2-1,2.8c0.3-0.7,0.7-1.4,1.1-2.3
		c0.4-0.8,0.8-1.6,1.3-2.4c0.4-0.7,0.9-1.4,1.3-2C611.3,228.4,611.7,228,612,227.8z M613,244.1c-0.2,1-0.3,2-0.3,3.2
		c0,1.2,0.2,2.3,0.6,3.3c0.3,1.1,0.9,2,1.6,2.7c0.7,0.8,1.6,1.3,2.6,1.6c-1.2-0.4-2-1.1-2.6-2.2c-0.6-1-1.1-2.1-1.3-3.3
		c-0.3-1.1-0.4-2.2-0.5-3.2C613,245.2,613,244.5,613,244.1z M623.6,233.4c-1.6-0.2-3,0.3-4.2,1.4c-1.2,1.1-2.1,2.5-2.8,4.2
		c-0.7,1.7-1.2,3.5-1.3,5.3c-0.2,1.8-0.1,3.4,0.3,4.7c-0.2-2.3-0.1-4.4,0.5-6.3c0.5-1.9,1.2-3.5,2-4.9c0.8-1.4,1.8-2.4,2.8-3.2
		C621.9,233.9,622.8,233.5,623.6,233.4z M627.6,242.3c1-3.7,1.2-6.4,0.6-8.3c-0.6-1.9-1.6-3-3-3.4c-1.4-0.3-2.9,0-4.5,1.1
		c-1.7,1.1-3,2.7-4.1,4.9c1.2-1.8,2.6-3.1,4.1-4.1c1.5-0.9,2.9-1.3,4.1-1c1.2,0.3,2.2,1.3,2.8,2.9
		C628.1,236.1,628.2,238.7,627.6,242.3z M630.5,249.2c-2,1.6-3.8,2.7-5.4,3.2c-1.7,0.5-3.1,0.5-4.3,0c-1.2-0.5-2.1-1.3-2.7-2.5
		c-0.6-1.2-0.8-2.7-0.6-4.5c-0.6,2-0.5,3.7,0.2,5.1c0.7,1.4,1.8,2.3,3.2,2.7c1.4,0.4,3,0.4,4.7-0.3C627.4,252.2,629,251,630.5,249.2
		z M617.5,252.7c0.6,1.1,1.6,1.8,2.8,2.2c1.3,0.4,2.7,0.5,4.1,0.2c1.5-0.3,2.9-1,4.3-2c1.4-1,2.6-2.5,3.5-4.4
		c-1.7,2.2-3.4,3.8-5,4.6c-1.7,0.8-3.2,1.2-4.5,1.2c-1.4,0-2.5-0.2-3.4-0.7C618.4,253.3,617.8,252.9,617.5,252.7z M619.9,243.6
		c0.7-2.2,1-3.5,0.8-3.9c-0.2-0.3-0.9,0.8-2,3.6c-0.7,2-1,3.7-0.8,5.2C618.7,246.8,619.4,245.2,619.9,243.6z M630.7,237.4
		c-0.1-2.5-0.6-4.4-1.5-5.7c-0.9-1.3-1.9-2.1-3.2-2.5c-1.2-0.4-2.5-0.4-3.8,0.1c-1.3,0.4-2.5,1.1-3.5,1.9c1.4-1.9,2.9-3,4.6-3.3
		c1.6-0.3,3.1,0,4.3,0.8c1.3,0.8,2.2,2,2.8,3.6C631.1,233.9,631.2,235.6,630.7,237.4z M620.7,237.3c0.5-0.1,0.8,0.1,1.1,0.5
		c0.3,0.4,0.4,1,0.3,2c-0.1,1-0.4,2.2-0.9,3.8c-0.5,1.6-1.3,3.5-2.4,5.8c0.9-1.6,1.7-3.2,2.3-4.8c0.7-1.6,1.1-3.1,1.3-4.3
		c0.2-1.3,0.2-2.2-0.1-2.8C622.2,236.9,621.6,236.8,620.7,237.3z M620.7,249c1.1-1.6,1.9-3.2,2.6-4.9c0.6-1.7,1-3.3,1.1-4.6
		c0.1-1.4-0.1-2.4-0.5-3.2c-0.4-0.8-1.2-1-2.3-0.8c0.5,0,1,0.2,1.5,0.7c0.4,0.4,0.7,1.2,0.7,2.2c0,1-0.2,2.4-0.6,4.1
		C622.8,244.1,622,246.3,620.7,249z M621.5,256.1c1.6,0.2,3.1,0.1,4.6-0.4c1.5-0.4,2.8-1.1,4.1-1.9c1.2-0.8,2.2-1.8,3-2.9
		c0.8-1.1,1.3-2.2,1.4-3.3c-0.9,1.8-1.9,3.3-3,4.4c-1.1,1.1-2.3,1.9-3.5,2.5c-1.2,0.6-2.4,1-3.6,1.2
		C623.4,255.9,622.3,256,621.5,256.1z M622.5,232.4c2.6,0.1,3.9,1.5,4,4.1c0.1,2.6-0.8,6.3-2.5,11.1c1-2.4,1.8-4.6,2.3-6.6
		c0.5-2,0.7-3.7,0.7-5c-0.1-1.4-0.5-2.4-1.2-3C625,232.3,623.9,232.1,622.5,232.4z M624.7,251.3c1.4-2.5,2.5-4.7,3.2-6.7
		c0.7-2,1.1-3.7,1.4-5.1c0.2-1.4,0.3-2.6,0.2-3.4c-0.1-0.8-0.2-1.4-0.4-1.6c0,0.2,0,0.7,0,1.6c0,0.9-0.1,2-0.4,3.5
		c-0.2,1.4-0.7,3.1-1.3,5.1C626.8,246.7,625.9,248.9,624.7,251.3z"/>
	<path class="st2" d="M651.4,240c0.1-0.4,0.5-0.6,1-0.7c0.5,0,1,0.1,1.6,0.3c0.5,0.2,1,0.5,1.4,0.8c0.4,0.3,0.5,0.7,0.4,1
		c-1.7,4.4-3.3,8.1-4.7,11c-1.4,2.9-2.8,5.3-4.1,7.2c-1.6,2.2-3.4,3.7-5.6,4.6c-2.2,0.9-4.3,1-6.3,0.3c-1.6-0.5-2.9-1.5-4-2.8
		c-1.1-1.3-1.7-3.3-1.7-5.8s0.7-6,2.2-10.2c1.5-4.2,3.9-9.5,7.5-15.8c0.1-0.2,0.4-0.3,0.9-0.2c0.4,0.1,1,0.2,1.7,0.5
		c-0.3,0.5-0.6,1.2-0.9,2c-0.3,0.8-0.6,1.7-0.9,2.7c0.4-0.7,0.9-1.6,1.4-2.6c0.5-1,0.9-1.7,1-2.1c1.3,0.5,2.6,1.1,3.8,1.8
		c1.3,0.7,1.8,1.2,1.8,1.4c-1.5,2.4-3,5.2-4.6,8.4c-1.6,3.2-2.8,6.2-3.8,9.2c-0.8,2.4-1.2,4.3-1,5.5c0.1,1.2,0.6,1.9,1.3,2
		c0.7,0.1,1.6-0.3,2.5-1.2c1-0.9,1.9-2.3,2.9-4c0.8-1.6,1.7-3.5,2.7-5.7S650.2,243,651.4,240z M630.4,253.6
		c-0.4,0.8-0.6,1.7-0.5,2.7c0.1,1,0.3,1.9,0.6,2.8c0.3,0.9,0.8,1.7,1.3,2.4c0.5,0.7,1.1,1.1,1.6,1.2c-0.5-0.4-1-1-1.4-1.8
		c-0.4-0.8-0.7-1.6-1-2.5c-0.2-0.9-0.4-1.8-0.5-2.6C630.5,255,630.4,254.2,630.4,253.6z M634.2,251.1c-1,1.9-1.6,3.7-1.7,5.4
		c-0.1,1.7,0.1,3.2,0.7,4.4c0.6,1.3,1.4,2.2,2.6,2.8c1.2,0.6,2.5,0.8,3.9,0.5c1.5-0.3,3-1.1,4.6-2.5c1.6-1.4,3.2-3.4,4.7-6.2
		c-2.2,3.6-4.5,5.9-6.7,7c-2.2,1.1-4.1,1.3-5.6,0.6c-1.5-0.7-2.6-2.1-3.2-4.3C632.9,256.6,633.1,254.1,634.2,251.1z M637.7,244.7
		c-2.2,4.5-3.3,8.1-3.4,11c-0.1,2.9,0.5,4.7,1.6,5.4c-0.7-1.1-1.1-2.4-1.1-4.1c0-1.6,0.2-3.3,0.5-4.9c0.3-1.6,0.8-3.1,1.3-4.5
		C637.2,246.3,637.5,245.3,637.7,244.7z M644.8,258.2c-1.4,1.6-2.7,2.6-3.8,2.8c-1.1,0.3-2.1,0.2-2.9-0.4c-0.8-0.5-1.4-1.2-1.8-2.2
		c-0.4-0.9-0.6-1.9-0.5-2.7c-0.5,1.6-0.4,2.9,0.2,3.9c0.6,1.1,1.4,1.7,2.4,2.1c1,0.3,2.1,0.3,3.4-0.3
		C642.9,261,644,259.9,644.8,258.2z M642.8,238.3c-0.5,0.2-1.1,0.9-1.8,2c-0.6,1.1-1.3,2.4-1.9,3.9c-0.6,1.5-1.2,3-1.6,4.7
		c-0.5,1.6-0.8,3-0.9,4.2c0.3-1.1,0.7-2.4,1.2-3.9c0.5-1.5,1.1-2.9,1.8-4.4c0.6-1.4,1.3-2.7,1.8-3.9
		C642,239.7,642.5,238.8,642.8,238.3z M636.6,265.3c1,0,2.1-0.1,3.3-0.3c1.2-0.2,2.4-0.6,3.6-1.4s2.4-1.8,3.6-3.3
		c1.2-1.5,2.3-3.5,3.3-6c-0.3,1.8-0.9,3.5-1.7,5c-0.8,1.5-1.8,2.8-3,3.8c-1.2,1-2.6,1.7-4.1,2.1C640,265.7,638.4,265.7,636.6,265.3z
		 M638.7,259.9c-0.8-0.4-1.2-1.3-1.2-2.6s0.2-2.8,0.7-4.5c0.4-1.7,1-3.5,1.8-5.4c0.7-1.9,1.5-3.7,2.2-5.3c0.7-1.7,1.4-3.1,2-4.2
		c0.6-1.2,0.9-1.9,1.1-2.1c-2.4,4.3-4.3,7.9-5.5,10.9c-1.3,3-2.1,5.4-2.4,7.4c-0.4,1.9-0.4,3.4-0.1,4.3
		C637.5,259.2,638,259.7,638.7,259.9z M644,232.2c-0.3,0.2-0.7,0.5-1.1,1c-0.4,0.5-0.7,1-1,1.5c-0.3,0.5-0.6,1.1-0.8,1.6
		c-0.2,0.5-0.3,0.9-0.3,1.3c0.1-0.2,0.2-0.6,0.5-1.1c0.3-0.5,0.6-1.1,0.9-1.7c0.3-0.6,0.6-1.1,1-1.6
		C643.5,232.6,643.8,232.3,644,232.2z M647.8,249.5c-0.9,3.1-2,5.4-3.2,6.8s-2.2,2.3-3,2.7c0.8-0.1,1.6-0.5,2.3-1.2
		c0.7-0.7,1.4-1.6,1.9-2.5c0.6-1,1-2,1.4-3.1C647.5,251.1,647.7,250.2,647.8,249.5z M645.5,229.6c-1.6-0.4-2.5-1.3-2.9-2.6
		s-0.3-2.7,0.3-4c0.5-1.2,1.6-2,3-2.5c1.5-0.4,3-0.2,4.7,0.9c-0.7-0.3-1.6-0.4-2.4-0.4c1.5,0.4,2.5,1.1,2.9,2.2
		c0.5,1.1,0.5,2.1,0.2,3.2c-0.3,1.1-1,2-2,2.7C648.3,229.8,647,230,645.5,229.6z M643.9,223.1c-0.5,1-0.7,1.8-0.6,2.6
		c0.2,0.8,0.6,1.4,1.2,1.9c0.6,0.4,1.4,0.6,2.3,0.6c0.9-0.1,1.8-0.5,2.7-1.4c-0.7,0.6-1.5,1-2.3,1.1c-0.8,0.1-1.5,0-2.1-0.4
		c-0.6-0.3-1.1-0.9-1.3-1.6C643.5,225.1,643.6,224.2,643.9,223.1z M643.6,227.4c0.7,1.2,1.7,1.7,2.8,1.8c1.2,0,2.2-0.3,3-1
		c0.9-0.7,1.4-1.6,1.6-2.6c0.2-1.1-0.3-2.2-1.4-3.3c0.8,1,1.1,2,0.9,3c-0.2,1-0.7,1.8-1.4,2.4c-0.7,0.6-1.6,0.9-2.7,0.9
		C645.5,228.7,644.5,228.3,643.6,227.4z M643.6,260.6c1.4-0.9,2.8-2.4,4.1-4.6c1.3-2.2,2.2-4.7,2.7-7.5c-0.3,0.7-0.6,1.5-1,2.5
		c-0.4,1-0.9,2.1-1.4,3.2c-0.5,1.1-1.2,2.2-1.9,3.4C645.3,258.8,644.5,259.8,643.6,260.6z M644.3,229.5c1.1,0.5,2.1,0.7,3.2,0.6
		c1-0.1,1.9-0.5,2.6-1.1c0.7-0.6,1.2-1.4,1.6-2.3c0.3-0.9,0.4-1.9,0.1-3.1c0.5,1.2,0.6,2.3,0.3,3.3c-0.3,1.1-0.9,1.9-1.7,2.6
		c-0.8,0.7-1.8,1.1-2.8,1.1C646.4,230.7,645.3,230.4,644.3,229.5z M647.9,227.1c0.9-0.2,1.5-0.6,1.8-1.3c0.3-0.7,0.4-1.3,0.2-2
		c-0.2-0.6-0.5-1.2-1.1-1.7c-0.5-0.5-1.2-0.7-2-0.6c0.5,0,1,0.2,1.5,0.6c0.5,0.4,0.9,0.9,1.1,1.5c0.2,0.6,0.3,1.2,0.1,1.9
		C649.3,226.2,648.8,226.7,647.9,227.1z"/>
	<path class="st2" d="M678.5,240c0.1-0.4,0.5-0.6,1-0.7c0.5,0,1,0.1,1.6,0.3c0.5,0.2,1,0.5,1.4,0.8c0.4,0.3,0.5,0.7,0.4,1
		c-0.5,1.5-1.1,2.9-1.6,4.2c-0.5,1.3-1.1,2.5-1.6,3.7c-1.8,4.2-4.1,7.5-6.8,9.9c-2.7,2.4-5.5,3.9-8.3,4.7c-2.8,0.7-5.5,0.7-8.1-0.1
		s-4.6-2.2-6.2-4.2c-1.6-2-2.4-4.7-2.5-7.9c-0.1-3.2,0.8-6.9,2.7-11.1c1.9-3.9,4-7.1,6.3-9.5c2.3-2.4,4.5-4.1,6.8-5.2
		c2.2-1.1,4.4-1.6,6.4-1.7c2,0,3.6,0.3,4.8,0.9c1.7,0.9,2.8,2,3.4,3.4c0.5,1.4,0.6,2.7,0.2,4.1c-0.4,1.4-1.2,2.6-2.4,3.8
		s-2.7,1.9-4.6,2.3c0.4-0.3,0.9-0.8,1.6-1.6c0.7-0.8,1.2-1.5,1.4-2.1c-0.5,0.7-1,1.3-1.7,1.8c-0.6,0.5-1.3,0.9-2,1.3
		c-0.7,0.4-1.3,0.6-1.9,0.8c-0.6,0.1-1,0.2-1.3,0.2c2-1.8,3.3-3.5,3.9-5c0.6-1.5,0.8-2.2,0.5-2.2c-0.7,0-1.9,0.8-3.7,2.5
		c-1.8,1.7-3.8,4.6-6.1,8.8c-1.6,2.9-2.6,5.4-2.8,7.5c-0.3,2.1-0.1,3.7,0.5,4.9c0.6,1.2,1.5,1.9,2.7,2.2c1.3,0.3,2.6,0.2,4.2-0.5
		c1.5-0.6,3-1.7,4.6-3.2c1.5-1.5,2.9-3.5,4-5.9c0.5-1.2,1.1-2.4,1.7-3.8C677.2,243,677.8,241.6,678.5,240z M650.3,253.8
		c-0.3,1.9-0.1,3.5,0.7,4.8c0.8,1.3,1.8,2.3,3.2,3.2c1.3,0.8,2.8,1.4,4.3,1.6c1.6,0.3,3,0.3,4.3,0.2c-1.8,0-3.4-0.2-4.9-0.7
		c-1.5-0.4-2.8-1.1-4-1.9c-1.1-0.8-2-1.9-2.6-3C650.5,256.8,650.3,255.4,650.3,253.8z M663.9,226.5c-1,0.1-2.1,0.7-3.3,1.7
		c-1.3,1-2.5,2.1-3.7,3.5c-1.2,1.3-2.2,2.6-3.1,4c-0.9,1.3-1.4,2.4-1.6,3.1c0.3-0.3,0.7-1,1.4-2c0.7-1,1.5-2.1,2.5-3.4
		c1-1.2,2.2-2.5,3.5-3.7C661,228.3,662.4,227.3,663.9,226.5z M657.8,261.8c-1-0.3-1.8-0.9-2.4-1.6c-0.6-0.7-1.1-1.6-1.4-2.5
		c-0.3-0.9-0.5-1.9-0.5-2.9c0-1-0.1-2-0.1-2.9c-0.3,1.1-0.4,2.2-0.4,3.3c0,1.1,0.2,2.1,0.6,3c0.3,1,0.8,1.8,1.5,2.4
		C655.9,261.1,656.8,261.6,657.8,261.8z M654.1,249.8c0.2-1.7,0.5-3.3,1-4.8c0.5-1.5,1-2.8,1.5-4c0.5-1.2,1-2.1,1.5-2.9
		c0.5-0.8,0.9-1.4,1.2-1.7c-0.7,0.5-1.3,1.2-2,2.3c-0.6,1.1-1.2,2.2-1.7,3.5c-0.5,1.3-0.9,2.6-1.2,4
		C654,247.5,653.9,248.7,654.1,249.8z M655,256.2c-0.3-3.3-0.1-6.3,0.7-9c0.7-2.7,1.6-5,2.7-7c1.1-2,2.3-3.6,3.4-4.8
		c1.2-1.2,2-2,2.6-2.4c-1.2,0.4-2.4,1.4-3.7,2.8c-1.3,1.5-2.5,3.3-3.5,5.4c-1,2.1-1.8,4.5-2.3,7.1
		C654.4,250.9,654.5,253.5,655,256.2z M659.9,241.1c-1.6,2.8-2.7,5.3-3.4,7.6c-0.6,2.3-0.8,4.2-0.7,5.8c0.2,1.6,0.6,2.9,1.4,3.9
		c0.8,0.9,1.8,1.5,3,1.6c-1.8-0.7-3-2-3.4-3.7c-0.4-1.7-0.5-3.6-0.3-5.5c0.3-1.9,0.8-3.8,1.5-5.6
		C658.8,243.5,659.4,242.1,659.9,241.1z M674.7,253c-2.1,2.8-4.2,4.9-6.3,6.1c-2.1,1.3-3.9,2-5.6,2.2c-1.7,0.2-3.1,0-4.3-0.6
		c-1.2-0.6-1.9-1.3-2.1-2.1c0.2,1.3,1,2.2,2.3,2.8c1.3,0.6,2.9,0.7,4.8,0.4c1.9-0.4,3.8-1.3,5.8-2.7S673.2,255.7,674.7,253z
		 M671.2,254.8c-2,1.8-4,3-5.8,3.5c-1.8,0.5-3.4,0.4-4.7-0.4c-1.3-0.7-2.2-2.1-2.6-4c-0.5-1.9-0.3-4.3,0.4-7.3
		c-1.2,3-1.5,5.5-1.1,7.5c0.4,2,1.3,3.5,2.6,4.3c1.4,0.8,3,1,5.1,0.5C667.1,258.4,669.1,257,671.2,254.8z M675.1,226.1
		c-0.7-0.5-1.7-0.7-3.1-0.7c-1.4,0-2.9,0.3-4.6,1c-1.7,0.7-3.4,1.7-5.1,3.2c-1.8,1.5-3.4,3.4-4.9,5.8c1.1-1.4,2.4-2.7,3.8-4.1
		c1.5-1.4,3-2.5,4.6-3.5c1.6-0.9,3.2-1.6,4.8-2C672.3,225.5,673.8,225.5,675.1,226.1z M658.2,251.7c0.2-2,0.7-3.9,1.6-5.9
		c0.8-2,1.8-3.8,2.8-5.4c1-1.7,2-3.1,3-4.3c1-1.2,1.7-2.1,2.1-2.5c-3.8,4.1-6.4,7.7-7.7,10.8C658.6,247.4,658,249.9,658.2,251.7z
		 M660,243.1c1.6-3,3.1-5.4,4.6-7.2c1.5-1.8,2.8-3.1,4.1-4c1.2-0.9,2.2-1.4,3-1.6c0.8-0.2,1.3-0.2,1.5-0.1c-0.7-0.6-1.7-0.6-2.9-0.1
		c-1.2,0.6-2.4,1.5-3.7,2.8c-1.3,1.3-2.5,2.8-3.7,4.6C661.6,239.3,660.7,241.2,660,243.1z M660.6,264.8c0.4,0,1.2-0.1,2.5-0.3
		c1.3-0.2,2.7-0.7,4.4-1.4c1.7-0.7,3.4-1.9,5.3-3.5c1.9-1.6,3.6-3.7,5.1-6.4c-0.5,1.4-1.2,2.7-2.2,4.1c-1,1.4-2.3,2.6-3.8,3.8
		c-1.5,1.1-3.2,2-5.1,2.7C664.9,264.5,662.8,264.8,660.6,264.8z M676.2,227.7c-0.3-0.4-0.8-0.8-1.5-1.1c-0.7-0.3-1.7-0.4-2.9-0.2
		c-1.2,0.2-2.6,0.8-4.2,1.7c-1.6,1-3.4,2.5-5.3,4.6c-0.1,0-0.1,0-0.1,0.1c0,0,0,0.1-0.1,0.1c0.1,0,0.1,0,0.1-0.1c0,0,0-0.1,0.1-0.1
		c0.5-0.5,1.3-1.3,2.4-2.1c1.1-0.9,2.3-1.7,3.7-2.4c1.3-0.7,2.7-1.2,4.1-1.4C673.8,226.7,675.1,227,676.2,227.7z M664.6,262.4
		c3-0.4,5.7-1.9,8-4.4c2.3-2.5,3.8-5.4,4.6-8.7c-0.4,1.2-1,2.5-1.8,3.9c-0.8,1.4-1.8,2.7-2.9,4c-1.1,1.3-2.4,2.4-3.7,3.4
		C667.4,261.5,666,262.1,664.6,262.4z M676.5,232.9c0.6-1.4,0.7-2.5,0.3-3.5c-0.4-0.9-1.1-1.6-2.2-1.9c-1.1-0.3-2.3-0.2-3.8,0.3
		c-1.5,0.5-3,1.5-4.6,3c0.9-0.8,2-1.5,3.4-2c1.4-0.5,2.6-0.7,3.8-0.7c1.2,0.1,2.1,0.5,2.7,1.2C676.8,230.1,677,231.3,676.5,232.9z
		 M668.4,238.3c0.6-0.3,1.2-0.7,1.7-1.2c0.5-0.5,1-1.1,1.4-1.7c0.4-0.6,0.7-1.2,0.9-1.8c0.2-0.6,0.2-1.2-0.1-1.6
		c0,0.3-0.1,0.7-0.3,1.3c-0.2,0.6-0.5,1.2-0.9,1.9c-0.4,0.7-0.8,1.3-1.3,1.9C669.4,237.6,668.9,238,668.4,238.3z M672.5,235.5
		c0.4-0.4,0.8-0.9,1.1-1.4c0.3-0.5,0.5-1,0.6-1.5c0.1-0.5,0-0.9-0.3-1.2c-0.2-0.3-0.7-0.5-1.4-0.5c0.5,0.1,0.9,0.5,1.1,1.4
		C673.8,233.1,673.4,234.2,672.5,235.5z"/>
	<path class="st2" d="M675.6,256.5c0.1,0.3,0.3,1,0.7,2c0.4,1,1.1,2,2.1,3.2c1,1.1,2.3,2.1,4,3c1.7,0.9,3.9,1.4,6.5,1.5
		c-1.4,0.3-2.9,0.3-4.5-0.1c-1.6-0.4-3-1-4.3-1.9c-1.3-0.9-2.4-2-3.2-3.3C676.1,259.6,675.6,258.1,675.6,256.5z M708.6,240
		c0.1-0.4,0.5-0.6,1-0.7c0.5,0,1.1,0.1,1.6,0.3c0.5,0.2,1,0.5,1.4,0.8c0.4,0.3,0.5,0.7,0.4,1c-0.5,1.5-1.1,2.9-1.6,4.2
		c-0.5,1.3-1.1,2.6-1.5,3.7c-1.6,3.5-3.4,6.4-5.6,8.7c-2.2,2.3-4.5,4.1-6.9,5.3c-2.4,1.2-4.8,1.9-7.2,2.1c-2.4,0.2-4.6-0.1-6.6-0.9
		c-3-1.2-5.1-3.2-6.3-5.9c-1.2-2.7-1.7-5.8-1.6-9.1c0.2-3.3,1-6.7,2.3-10.1c1.4-3.4,3.2-6.3,5.4-8.8c2.2-2.5,4.8-4.3,7.7-5.4
		c2.9-1.1,6-1,9.2,0.3c2,0.7,3.3,2,4.1,3.7c0.7,1.7,1,3.7,0.7,5.8c-0.3,2.2-1,4.4-2.1,6.7c-1.2,2.3-2.6,4.4-4.4,6.4
		c-1.8,2-3.8,3.6-6.1,5c-2.3,1.4-4.7,2.1-7.3,2.2l0.6,0.2c0.2,0.1,0.4,0.1,0.5,0.2c0.2,1.4,1,2.3,2.4,2.8c1.4,0.5,3.1,0.6,5,0.1
		c1.9-0.5,3.9-1.6,5.9-3.3c2-1.7,3.8-4.1,5.3-7.2C706,245.9,707.2,243.2,708.6,240z M679.2,257.7c-0.3,1.2-0.1,2.2,0.5,3.3
		c0.6,1,1.5,1.9,2.7,2.6c1.2,0.7,2.6,1.2,4.3,1.5c1.7,0.3,3.4,0.3,5.3-0.1c-2.6,0.1-4.7-0.2-6.3-0.8c-1.6-0.6-2.9-1.3-3.8-2.1
		c-0.9-0.8-1.6-1.6-2-2.5C679.5,258.7,679.3,258.1,679.2,257.7z M688.9,233.8c-1.4,1.2-2.6,3-3.8,5.3c-1.2,2.3-2.1,4.8-2.6,7.4
		c-0.6,2.6-0.7,5.1-0.5,7.6c0.2,2.4,1.1,4.4,2.5,5.8c-0.9-1.2-1.4-2.7-1.6-4.4c-0.2-1.7-0.2-3.5,0.1-5.3c0.2-1.8,0.6-3.7,1.2-5.5
		c0.5-1.9,1.1-3.6,1.8-5.1c0.6-1.5,1.3-2.8,1.8-3.9C688.2,234.7,688.7,234.1,688.9,233.8z M691.1,263c-1.2,0.1-2.2-0.1-3.2-0.4
		c-1-0.3-1.9-0.8-2.7-1.3s-1.5-1.1-2-1.7c-0.5-0.6-0.9-1.2-1-1.6c0,0.9,0.3,1.7,0.9,2.3c0.6,0.7,1.3,1.2,2.2,1.7
		c0.9,0.4,1.9,0.7,2.9,0.9C689.1,263.1,690.1,263.1,691.1,263z M703,231.1c-0.6-1.6-1.8-2.8-3.5-3.5c-1.7-0.7-3.6-0.8-5.7-0.5
		c-2.1,0.3-4.2,1.2-6.2,2.5c-2,1.3-3.7,3.1-4.9,5.4c1.3-1.9,2.9-3.4,4.8-4.6c1.9-1.2,3.8-2,5.8-2.4c2-0.4,3.9-0.4,5.6,0.1
		C700.6,228.6,702,229.6,703,231.1z M692.6,233.6c-0.7-0.3-1.6,0.2-2.7,1.4c-1.1,1.2-2.1,2.8-3,4.7c-1,1.9-1.8,3.9-2.5,6
		c-0.7,2.1-1,3.9-1,5.5c1.3-5.4,2.9-9.6,4.7-12.4C689.9,235.9,691.5,234.2,692.6,233.6z M687.9,259.3c-1.7-0.6-2.7-1.8-3-3.5
		c-0.3-1.7-0.3-3.6,0.1-5.6c0.4-2,0.9-4,1.7-5.8c0.8-1.9,1.4-3.2,1.9-4.1l0.3-0.6l-0.3,0.6c-1.6,3-2.8,5.6-3.6,7.9
		c-0.7,2.3-1.1,4.2-1.1,5.8c0,1.6,0.4,2.8,1.1,3.8C685.8,258.7,686.7,259.2,687.9,259.3z M684.7,237.6c0.2-0.6,0.7-1.4,1.4-2.4
		c0.7-1,1.6-1.9,2.7-2.9c1.1-0.9,2.4-1.8,3.8-2.4c1.4-0.7,2.9-1,4.6-0.9c-0.9-0.2-1.9-0.2-3.1,0c-1.2,0.2-2.4,0.7-3.6,1.4
		c-1.2,0.7-2.4,1.7-3.4,2.9C686,234.4,685.2,235.9,684.7,237.6z M685.3,254.7c2.1,0,4.2-0.5,6.1-1.5c2-1,3.8-2.2,5.4-3.7
		c1.6-1.5,3-3.1,4.1-4.8c1.1-1.7,1.9-3.3,2.3-4.8c-1.2,2.8-2.6,5.1-4.3,7c-1.7,1.9-3.5,3.4-5.3,4.5c-1.8,1.1-3.5,1.9-5,2.5
		C687.2,254.3,686,254.6,685.3,254.7z M685.9,260.6c0.7,1,1.9,1.6,3.4,1.8c1.5,0.2,3.2,0,4.9-0.6c1.7-0.5,3.4-1.4,4.9-2.6
		c1.6-1.2,2.7-2.7,3.6-4.4c-1.6,2.2-3.4,3.9-5.2,4.9c-1.9,1-3.6,1.7-5.2,1.9c-1.6,0.3-3,0.3-4.2-0.1
		C686.9,261.3,686.2,261,685.9,260.6l-0.1-0.1L685.9,260.6z M696.7,238.3c-0.5,2-1.3,3.7-2.3,5.1c-1,1.4-2.1,2.4-3.2,3.3
		c-1.1,0.8-2.1,1.4-3,1.8c-0.9,0.4-1.5,0.6-1.8,0.7c1.6-0.1,3.1-0.5,4.5-1.4c1.4-0.9,2.5-1.9,3.4-3c0.9-1.1,1.6-2.3,2-3.5
		C696.8,240.1,696.9,239.1,696.7,238.3z M695.6,236c-0.4-0.6-1-0.7-1.9-0.2c-0.8,0.5-1.7,1.3-2.6,2.4c-0.9,1.2-1.8,2.6-2.6,4.3
		c-0.8,1.7-1.4,3.5-1.8,5.4c1.4-0.3,2.8-1,4-2.1c1.3-1,2.3-2.2,3.2-3.5c0.9-1.3,1.5-2.5,1.9-3.7C696.1,237.6,696,236.7,695.6,236z
		 M704.6,250.5c-1.2,1.7-2.5,3.3-3.8,4.7c-1.3,1.4-2.7,2.6-4.2,3.5c-1.5,0.9-3.1,1.5-4.7,1.7c-1.7,0.3-3.4,0.1-5.3-0.4
		c1.5,0.8,3,1.2,4.7,1c1.6-0.1,3.2-0.6,4.8-1.5c1.6-0.9,3.1-2.1,4.5-3.6C702.1,254.3,703.4,252.5,704.6,250.5z M704.2,235.3
		c0.5-2.2,0.4-4-0.6-5.6c-0.9-1.6-2.2-2.7-4-3.5c-1.7-0.7-3.7-0.9-6-0.6c-2.3,0.3-4.5,1.3-6.7,3c2.2-1.4,4.3-2.2,6.5-2.5
		c2.1-0.3,4-0.1,5.7,0.5c1.7,0.6,3,1.7,3.9,3.2C704,231.3,704.4,233.2,704.2,235.3z M700.2,230.8c0.8,1.8,1.2,3.6,1.2,5.4
		c0,1.9-0.5,3.7-1.3,5.4s-2,3.3-3.6,4.8c-1.6,1.5-3.5,2.8-5.7,3.9c2.9-1,5.2-2.5,6.9-4.3c1.7-1.9,2.9-3.8,3.6-5.7
		c0.7-2,0.9-3.8,0.7-5.6C701.8,232.9,701.2,231.6,700.2,230.8z M690.9,236.4c1.7-1.5,3.1-2.1,4.3-1.9c1.2,0.2,1.9,0.9,2.2,2.2
		c0.3,1.3,0.1,2.8-0.6,4.8c-0.7,1.9-2.1,3.9-4.2,5.9c2.8-2.2,4.6-4.4,5.4-6.5c0.7-2.1,0.8-3.7,0.3-5c-0.6-1.3-1.6-2-3-2
		C693.9,233.7,692.4,234.6,690.9,236.4z M691,263.8c1.2,0.3,2.6,0.3,4-0.3c1.5-0.5,2.8-1.3,4.1-2.2c1.3-1,2.5-2.2,3.5-3.6
		c1-1.4,1.8-2.9,2.2-4.4c-1.2,2.4-2.5,4.2-4,5.6c-1.4,1.4-2.8,2.4-4.1,3.2c-1.3,0.7-2.5,1.2-3.6,1.4
		C692.1,263.7,691.4,263.8,691,263.8z M700,238.3c0.3-2.2,0.2-3.8-0.4-5c-0.6-1.2-1.4-2-2.4-2.3c-1-0.4-2-0.4-3.1,0
		c-1.1,0.4-1.9,1-2.4,2c0.5-0.5,1.2-0.8,2.1-1.1c0.9-0.3,1.9-0.3,2.8,0c0.9,0.3,1.7,0.9,2.4,1.9C699.8,234.7,700.1,236.3,700,238.3z
		"/>
</g>
<g>
	<rect x="319.3" y="163.2" class="st3" width="90" height="146"/>
	<path class="st2" d="M338.6,262l-3.4-5.4l-1-2.4l-0.9-1.2l0.6-0.8l-0.9-0.9l-0.1-1.8l-1.8-1.8l0.1-3.1l-0.5-0.9l-0.1-9.4l2.1-2.2
		l1.3-0.3l1.8-0.8l2.1,0.1l2.4,1.2v1.5l-0.8,2.7v7.6l1.5,4.9l3,6.6l1.9,1.8l2.4,3.3h0.8l4.4-2l4.6-4.6l6-11.7l2.5-7.3l1.1-7.8
		l0.3-1.2v-8.5l-0.9-2l-1.5-4.2l-3.6-5.1l-2.4-1.6l-5.7-0.1l-2.7,1.6l-1.2,1.3l-3-0.1l-4.5-2.7l-2.1-0.8l-0.7-1l4.3-7l4.9-9.4
		l3.3-5.2l1.8-3.9l3.9-6.4l-17.7,0.8l-8.5,0.9l0.1,8.5l1.8,12.7l-1.6,1.4l-7.5-0.3l-1.2-1.5l-0.3-21.7l-0.8-1.8v-2.4l2.7-1.3
		l32.8-0.8l2-0.5l3.7-0.1l4-0.5l1.5,0.9l2.2,2.4v2.9l-2.8,4.9l-3.5,3.9l-3.3,6l-1.8,1.8l-1.4,2.5l-2.5,3.6l-1.2,3.5l-1.3,2.1
		l0.4,0.6l7.2,0.5l5.4,2.5l2.1,0.8l5.7,7.5l1.9,6.8l0.6,8.2l-0.5,3.8l0.2,0.9l-1.4,4.5l0.3,3.3l-1,2.2l-0.6,4.2l-1.6,3l-0.3,1.3
		l-2.5,5.1l-5.4,7l-2.9,2.1l-6.1,2.5l-4.8-0.2L338.6,262z M333.7,242.8l0.5-0.3l-0.9-0.1L333.7,242.8z M343.3,201.3l2.2,0.1l2.2-2.1
		l3-5.2l0.2-2.4l1.6-1.1l0.8-1.6l1.3-1.3l-1-0.5l1.5-3.1h-1.8l-2.2,4.2l-2,2.6l-1.8,3.6l-0.5,1.4l-0.4,0.4l-0.5,0.9l-2.2,3.3
		l-0.8,0.4L343.3,201.3z M354.7,182.7h0.5l0.4-0.4h-0.9V182.7z M360.2,258.7l1.2-1.9l1.3-0.9l2.4-4.2v-0.5l1.5-1.4l3.1-8.4l-2.8-0.1
		l0.1,2.8l-0.5,0.3l-0.4,1.2l-2.1,1.8l-1.9,4.2l-3.5,5.4v0.9L360.2,258.7z M369.2,240.6l1.2-0.6l0.6-2.2l-0.8-0.1l-0.6,1.2h-0.9
		l-2.2,1l1.8,0.1L369.2,240.6z M369.4,237.6l0.9-2.4v-2.2l0.6-3l-0.1-1.8l0.3-0.9l0.1-3.2l-1.6-0.1l-0.5,6.9v1.7l-0.9,4.9
		L369.4,237.6z"/>
</g>
<g>
</g>
<g>
</g>
<g>
</g>
<g>
</g>
<g>
</g>
<g>
</g>
</svg>
